{
.appVersion = "3133";
.formatVersion = 3;
DisplayStrings = (
"3",
"{",
"4",
$,
"5",
"-",
"&"
);
customParameters = (
{
name = vendorID;
value = "HL  ";
},
{
name = panose;
value = (
2,
0,
5,
0,
0,
0,
0,
0,
0,
0
);
},
{
name = unicodeRanges;
value = (
0,
1,
2,
5,
7,
31,
33,
35,
38,
60,
62
);
},
{
name = codePageRanges;
value = (
"1252",
"1254",
"1258",
"bit 29",
"857",
"850"
);
},
{
name = glyphOrder;
value = (
.notdef,
.null,
CR,
space,
exclam,
quotedbl,
numbersign,
dollar,
percent,
ampersand,
quotesingle,
parenleft,
parenright,
asterisk,
plus,
comma,
hyphen,
period,
slash,
zero,
one,
two,
three,
four,
five,
six,
seven,
eight,
nine,
colon,
semicolon,
less,
equal,
greater,
question,
at,
A,
B,
C,
D,
E,
F,
G,
H,
I,
J,
K,
L,
M,
N,
O,
P,
Q,
R,
S,
T,
U,
V,
W,
X,
Y,
Z,
bracketleft,
backslash,
bracketright,
asciicircum,
underscore,
grave,
a,
b,
c,
d,
e,
f,
g,
h,
i,
j,
k,
l,
m,
n,
o,
p,
q,
r,
s,
t,
u,
v,
w,
x,
y,
z,
braceleft,
bar,
braceright,
asciitilde,
exclamdown,
cent,
sterling,
currency,
yen,
brokenbar,
section,
dieresis,
copyright,
ordfeminine,
guillemotleft,
logicalnot,
registered,
macron,
degree,
plusminus,
uni00B2,
uni00B3,
acute,
mu,
paragraph,
periodcentered,
cedilla,
uni00B9,
ordmasculine,
guillemotright,
onequarter,
onehalf,
threequarters,
questiondown,
Agrave,
Aacute,
Acircumflex,
Atilde,
Adieresis,
Aring,
AE,
Ccedilla,
Egrave,
Eacute,
Ecircumflex,
Edieresis,
Igrave,
Iacute,
Icircumflex,
Idieresis,
Eth,
Ntilde,
Ograve,
Oacute,
Ocircumflex,
Otilde,
Odieresis,
multiply,
Oslash,
Ugrave,
Uacute,
Ucircumflex,
Udieresis,
Yacute,
Thorn,
germandbls,
agrave,
aacute,
acircumflex,
atilde,
adieresis,
aring,
ae,
ccedilla,
egrave,
eacute,
ecircumflex,
edieresis,
igrave,
iacute,
icircumflex,
idieresis,
eth,
ntilde,
ograve,
oacute,
ocircumflex,
otilde,
odieresis,
divide,
oslash,
ugrave,
uacute,
ucircumflex,
udieresis,
yacute,
thorn,
ydieresis,
dotlessi,
circumflex,
caron,
uni02C9,
breve,
dotaccent,
ring,
ogonek,
tilde,
hungarumlaut,
endash,
emdash,
quoteleft,
quoteright,

glyphs = (
{
glyphname = .notdef;
lastChange = "2024-07-02 17:45:55 +0000";
layers = (
{
layerId = m01;
shapes = (
{
closed = 1;
nodes = (
(924,1574,l),
(100,1574,l),
(100,140,l),
(924,140,l)
);
},
{
closed = 1;
nodes = (
(874,1524,l),
(874,190,l),
(150,190,l),
(150,1524,l)
);
},
{
closed = 1;
nodes = (
(355,1268,o),
(381,1283,qs),
(412,1300,o),
(450,1300,qs),
(508,1300,o),
(574,1234,o),
(574,1177,qs),
(574,1102,o),
(411,818,o),
(411,742,qs),
(411,691,o),
(446,594,q),
(478,594,l),
(454,689,o),
(454,727,qs),
(454,774,o),
(526,878,o),
(589,958,qs),
(653,1038,o),
(699,1137,o),
(699,1186,qs),
(699,1266,o),
(587,1361,o),
(495,1361,qs),
(436,1361,o),
(383,1331,qs),
(356,1316,o),
(325,1288,q),
(325,1243,l)
);
},
{
closed = 1;
nodes = (
(378,452,qs),
(378,443,o),
(385,434,qs),
(446,363,ls),
(455,353,o),
(466,353,qs),
(473,353,o),
(487,367,qs),
(543,429,ls),
(553,440,o),
(553,451,qs),
(553,460,o),
(544,471,qs),
(488,531,l),
(476,542,o),
(466,542,qs),
(457,542,o),
(446,532,qs),
(389,474,ls),
(378,462,o)
);
}
);
width = 1024;
}
);
note = ".notdef";
},
{
glyphname = exclam;
lastChange = "2024-07-02 17:45:55 +0000";
layers = (
{
layerId = m01;
shapes = (
{
closed = 1;
nodes = (
(125,1202,o),
(111,1186,qs),
(75,1141,o),
(75,888,qs),
(75,679,o),
(123,377,q),
(186,377,l),
(222,521,o),
(228,725,qs),
(230,805,o),
(230,871,qs),
(230,1144,o),
(196,1186,qs),
(183,1202,o),
(154,1202,qs)
);
},
{
closed = 1;
nodes = (
(111,278,o),
(95,261,qs),
(78,245,o),
(78,222,qs),
(78,184,ls),
(78,161,o),
(95,145,qs),
(111,128,o),
(134,128,qs),
(172,128,ls),
(195,128,o),
(211,145,qs),
(228,161,o),
(228,184,qs),
(228,222,ls),
(228,245,o),
(211,261,qs),
(195,278,o),
(172,278,qs),
(134,278,ls)
);
}
);
width = 315;
}
);
note = exclam;
unicode = 33;
},
{
glyphname = quotedbl;
lastChange = "2024-07-02 17:45:55 +0000";
layers = (
{
layerId = m01;
shapes = (
{
closed = 1;
nodes = (
(200,1205,o),
(183,1222,qs),
(167,1238,o),
(144,1238,qs),
(106,1238,ls),
(83,1238,o),
(67,1222,qs),
(50,1205,o),
(50,1182,qs),
(50,1144,ls),
(50,1121,o),
(67,1105,qs),
(83,1088,o),
(106,1088,qs),
(108,1088,l),
(107,1021,o),
(96,1007,qs),
(85,992,o),
(72,992,qs),
(70,992,o),
(67,993,q),
(60,958,l),
(76,954,o),
(90,954,qs),
(126,954,o),
(155,979,qs),
(193,1013,o),
(199,1092,qs),
(200,1102,o),
(200,1150,qs),
(200,1182,ls)
);
},
{
closed = 1;
nodes = (
(410,1205,o),
(393,1222,qs),
(377,1238,o),
(354,1238,qs),
(316,1238,ls),
(293,1238,o),
(277,1222,qs),
(260,1205,o),
(260,1182,qs),
(260,1144,ls),
(260,1121,o),
(277,1105,qs),
(293,1088,o),
(316,1088,qs),
(318,1088,l),
(317,1021,o),
(306,1007,qs),
(295,992,o),
(282,992,qs),
(280,992,o),
(277,993,q),
(270,958,l),
(286,954,o),
(300,954,qs),
(336,954,o),
(365,979,qs),
(403,1013,o),
(409,1092,qs),
(410,1102,o),
(410,1150,qs),
(410,1182,ls)
);
}
);
width = 460;
}
);
note = quotedbl;
unicode = 34;
},
{
glyphname = numbersign;
lastChange = "2024-07-02 17:45:55 +0000";
layers = (
{
layerId = m01;
shapes = (
{
closed = 1;
nodes = (
(20,450,l),
(170,450,l),
(69,115,l),
(171,115,l),
(272,450,l),
(573,450,l),
(472,115,l),
(574,115,l),
(675,450,l),
(880,450,l),
(905,540,l),
(702,540,l),
(786,821,l),
(963,821,l),
(988,911,l),
(814,911,l),
(905,1215,l),
(804,1215,l),
(712,911,l),
(411,911,l),
(502,1215,l),
(401,1215,l),
(309,911,l),
(128,911,l),
(103,821,l),
(282,821,l),
(197,540,l),
(45,540,l)
);
},
{
closed = 1;
nodes = (
(383,821,l),
(685,821,l),
(600,540,l),
(299,540,l)
);
}
);
width = 1023;
}
);
note = numbersign;
unicode = 35;
},
{
glyphname = dollar;
lastChange = "2024-07-02 17:45:55 +0000";
layers = (
{
layerId = m01;
shapes = (
{
closed = 1;
nodes = (
(417,761,qs),
(313,818,o),
(269,863,qs),
(217,916,o),
(217,979,qs),
(217,985,o),
(218,992,qs),
(223,1048,o),
(266,1084,qs),
(311,1123,o),
(383,1123,qs),
(472,1123,o),
(529,1083,qs),
(591,1039,o),
(609,976,q),
(611,965,o),
(611,946,qs),
(611,916,o),
(606,867,q),
(701,867,l),
(729,1031,l),
(700,1098,o),
(622,1145,qs),
(533,1198,o),
(414,1202,q),
(448,1421,l),
(328,1421,l),
(362,1201,l),
(271,1197,o),
(203,1166,qs),
(109,1124,o),
(76,1034,q),
(67,1000,o),
(67,968,qs),
(67,782,o),
(359,627,qs),
(467,569,o),
(521,519,q),
(568,468,o),
(568,394,qs),
(568,379,ls),
(568,287,o),
(516,246,qs),
(465,207,o),
(393,207,qs),
(294,207,o),
(237,247,qs),
(175,291,o),
(157,354,q),
(155,365,o),
(155,384,qs),
(155,414,o),
(160,463,q),
(65,463,l),
(37,299,l),
(66,232,o),
(144,185,qs),
(233,132,o),
(362,128,q),
(328,-91,l),
(448,-91,l),
(414,129,l),
(509,134,o),
(581,166,qs),
(685,213,o),
(719,308,qs),
(739,364,o),
(739,413,qs),
(739,475,o),
(708,527,qs),
(643,637,o)
);
}
);
width = 779;
}
);
note = dollar;
unicode = 36;
},
{
glyphname = percent;
lastChange = "2024-07-02 17:45:55 +0000";
layers = (
{
layerId = m01;
shapes = (
{
closed = 1;
nodes = (
(162,1049,qs),
(198,1087,o),
(250,1087,qs),
(302,1087,o),
(338,1049,qs),
(375,1011,o),
(375,958,qs),
(375,904,o),
(338,866,qs),
(302,828,o),
(250,828,qs),
(198,828,o),
(162,866,qs),
(125,904,o),
(125,958,qs),
(125,1011,o)
);
},
{
closed = 1;
nodes = (
(391,1099,qs),
(333,1158,o),
(250,1158,qs),
(167,1158,o),
(109,1099,qs),
(50,1040,o),
(50,958,qs),
(50,875,o),
(109,816,qs),
(167,758,o),
(250,758,qs),
(333,758,o),
(391,816,qs),
(450,875,o),
(450,958,qs),
(450,1040,o)
);
},
{
closed = 1;
nodes = (
(602,219,qs),
(565,257,o),
(565,311,qs),
(565,364,o),
(602,402,qs),
(639,441,o),
(690,441,qs),
(742,441,o),
(779,402,qs),
(815,364,o),
(815,311,qs),
(815,257,o),
(779,219,qs),
(742,181,o),
(690,181,qs),
(639,181,o)
);
},
{
closed = 1;
nodes = (
(549,452,qs),
(490,393,o),
(490,311,qs),
(490,228,o),
(549,169,qs),
(608,111,o),
(690,111,qs),
(773,111,o),
(832,169,qs),
(890,228,o),
(890,311,qs),
(890,393,o),
(832,452,qs),
(773,511,o),
(690,511,qs),
(608,511,o)
);
},
{
closed = 1;
nodes = (
(148,140,l),
(243,140,l),
(811,1140,l),
(731,1190,l)
);
}
);
width = 940;
}
);
note = percent;
unicode = 37;
},
{
glyphname = ampersand;
lastChange = "2024-07-02 17:45:55 +0000";
layers = (
{
layerId = m01;
shapes = (
{
closed = 1;
nodes = (
(207,443,qs),
(207,559,o),
(306,622,qs),
(387,674,o),
(501,674,qs),
(593,674,l),
(593,368,l),
(586,294,o),
(505,240,qs),
(451,204,o),
(398,204,qs),
(366,204,o),
(334,217,qs),
(207,269,o)
);
},
{
closed = 1;
nodes = (
(791,213,o),
(781,213,qs),
(772,213,o),
(760,217,qs),
(730,228,o),
(720,258,qs),
(713,281,o),
(713,338,qs),
(713,674,l),
(868,674,l),
(868,775,l),
(499,775,ls),
(399,775,o),
(322,832,qs),
(247,888,o),
(247,957,qs),
(247,1053,o),
(304,1097,qs),
(348,1131,o),
(422,1131,qs),
(511,1131,o),
(567,1062,qs),
(607,1013,o),
(616,956,qs),
(618,943,o),
(618,926,qs),
(618,901,o),
(613,867,q),
(708,867,l),
(736,1031,l),
(717,1078,o),
(645,1127,qs),
(551,1192,o),
(434,1200,qs),
(411,1202,o),
(389,1202,qs),
(284,1202,o),
(213,1158,qs),
(113,1096,o),
(113,963,qs),
(113,824,o),
(304,744,qs),
(312,741,o),
(332,736,q),
(332,731,l),
(325,730,o),
(316,727,q),
(219,705,o),
(152,647,qs),
(50,559,o),
(50,410,qs),
(50,268,o),
(164,191,qs),
(258,128,o),
(388,128,qs),
(516,128,o),
(607,220,q),
(612,202,o),
(618,191,qs),
(652,131,o),
(715,128,qs),
(722,128,ls),
(770,128,o),
(821,152,q),
(799,217,l)
);
}
);
width = 903;
}
);
note = ampersand;
unicode = 38;
},
{
glyphname = quotesingle;
lastChange = "2024-07-02 17:45:55 +0000";
layers = (
{
layerId = m01;
shapes = (
{
closed = 1;
nodes = (
(200,1205,o),
(183,1222,qs),
(167,1238,o),
(144,1238,qs),
(106,1238,ls),
(83,1238,o),
(67,1222,qs),
(50,1205,o),
(50,1182,qs),
(50,1144,ls),
(50,1121,o),
(67,1105,qs),
(83,1088,o),
(106,1088,qs),
(108,1088,l),
(107,1021,o),
(96,1007,qs),
(85,992,o),
(72,992,qs),
(70,992,o),
(67,993,q),
(60,958,l),
(76,954,o),
(90,954,qs),
(126,954,o),
(155,979,qs),
(193,1013,o),
(199,1092,qs),
(200,1102,o),
(200,1150,qs),
(200,1182,ls)
);
}
);
width = 250;
}
);
note = quotesingle;
unicode = 39;
},
{
glyphname = parenleft;
lastChange = "2024-07-02 17:45:55 +0000";
layers = (
{
layerId = m01;
shapes = (
{
closed = 1;
nodes = (
(302,-160,o),
(252,32,qs),
(200,228,o),
(200,536,qs),
(200,844,o),
(252,1040,qs),
(302,1232,o),
(392,1232,q),
(392,1282,l),
(229,1282,o),
(145,1056,qs),
(70,850,o),
(70,536,qs),
(70,222,o),
(145,16,qs),
(229,-210,o),
(392,-210,q),
(392,-160,l)
);
}
);
width = 442;
}
);
note = parenleft;
unicode = 40;
},
{
glyphname = parenright;
lastChange = "2024-07-02 17:45:55 +0000";
layers = (
{
layerId = m01;
shapes = (
{
closed = 1;
nodes = (
(233,-210,o),
(317,16,qs),
(392,222,o),
(392,536,qs),
(392,850,o),
(317,1056,qs),
(233,1282,o),
(70,1282,q),
(70,1232,l),
(160,1232,o),
(210,1040,qs),
(262,844,o),
(262,536,qs),
(262,228,o),
(210,32,qs),
(160,-160,o),
(70,-160,q),
(70,-210,l)
);
}
);
width = 442;
}
);
note = parenright;
unicode = 41;
},
{
glyphname = asterisk;
lastChange = "2024-07-02 17:45:55 +0000";
layers = (
{
layerId = m01;
shapes = (
{
closed = 1;
nodes = (
(486,1116,o),
(486,1121,qs),
(486,1136,o),
(473,1158,qs),
(456,1186,o),
(439,1190,q),
(434,1190,ls),
(405,1190,o),
(340,1126,qs),
(304,1091,o),
(273,1055,q),
(290,1100,o),
(301,1150,qs),
(314,1203,o),
(314,1233,qs),
(314,1259,o),
(305,1268,qs),
(294,1281,o),
(260,1281,qs),
(227,1281,o),
(216,1268,qs),
(207,1259,o),
(207,1233,qs),
(207,1203,o),
(220,1150,qs),
(231,1100,o),
(247,1055,q),
(217,1091,o),
(181,1126,qs),
(116,1190,o),
(87,1190,qs),
(82,1190,l),
(65,1186,o),
(48,1158,qs),
(35,1136,o),
(35,1121,qs),
(35,1116,o),
(36,1112,qs),
(45,1084,o),
(143,1055,qs),
(191,1039,o),
(238,1030,q),
(191,1023,o),
(143,1007,qs),
(45,978,o),
(36,950,qs),
(35,946,o),
(35,941,qs),
(35,926,o),
(48,904,qs),
(65,876,o),
(82,872,q),
(87,872,ls),
(116,872,o),
(181,936,qs),
(217,971,o),
(247,1007,q),
(231,962,o),
(220,912,qs),
(207,859,o),
(207,829,qs),
(207,803,o),
(216,794,qs),
(227,781,o),
(260,781,qs),
(294,781,o),
(305,794,qs),
(314,803,o),
(314,829,qs),
(314,859,o),
(301,912,qs),
(290,962,o),
(273,1007,q),
(304,971,o),
(340,936,qs),
(405,872,o),
(434,872,qs),
(439,872,l),
(456,876,o),
(473,904,qs),
(486,926,o),
(486,941,qs),
(486,946,o),
(485,950,qs),
(476,978,o),
(378,1007,qs),
(330,1023,o),
(283,1030,q),
(330,1039,o),
(378,1055,qs),
(476,1084,o),
(485,1112,qs)
);
}
);
width = 521;
}
);
note = asterisk;
unicode = 42;
},
{
glyphname = plus;
lastChange = "2024-07-02 17:45:55 +0000";
layers = (
{
layerId = m01;
shapes = (
{
closed = 1;
nodes = (
(370,989,l),
(370,667,l),
(50,667,l),
(50,562,l),
(370,562,l),
(370,239,l),
(480,239,l),
(480,562,l),
(800,562,l),
(800,667,l),
(480,667,l),
(480,989,l)
);
}
);
width = 850;
}
);
note = plus;
unicode = 43;
},
{
glyphname = comma;
lastChange = "2024-07-02 17:45:55 +0000";
layers = (
{
layerId = m01;
shapes = (
{
closed = 1;
nodes = (
(250,245,o),
(233,262,qs),
(217,278,o),
(194,278,qs),
(156,278,ls),
(133,278,o),
(117,262,qs),
(100,245,o),
(100,222,qs),
(100,184,ls),
(100,161,o),
(117,145,qs),
(133,128,o),
(156,128,qs),
(158,128,l),
(157,61,o),
(146,47,qs),
(135,32,o),
(122,32,qs),
(120,32,o),
(117,33,q),
(110,-2,l),
(126,-6,o),
(140,-6,qs),
(176,-6,o),
(205,19,qs),
(243,53,o),
(249,132,qs),
(250,142,o),
(250,190,qs),
(250,222,ls)
);
}
);
width = 400;
}
);
note = comma;
unicode = 44;
},
{
glyphname = hyphen;
lastChange = "2024-07-02 17:45:55 +0000";
layers = (
{
layerId = m01;
shapes = (
{
closed = 1;
nodes = (
(55,462,l),
(555,462,l),
(555,562,l),
(55,562,l)
);
}
);
width = 610;
}
);
note = hyphen;
unicode = (45,173);
},
{
glyphname = period;
lastChange = "2024-07-02 17:45:55 +0000";
layers = (
{
layerId = m01;
shapes = (
{
closed = 1;
nodes = (
(133,278,o),
(117,261,qs),
(100,245,o),
(100,222,qs),
(100,184,ls),
(100,161,o),
(117,145,qs),
(133,128,o),
(156,128,qs),
(194,128,ls),
(217,128,o),
(233,145,qs),
(250,161,o),
(250,184,qs),
(250,222,ls),
(250,245,o),
(233,261,qs),
(217,278,o),
(194,278,qs),
(156,278,ls)
);
}
);
width = 400;
}
);
note = period;
unicode = 46;
},
{
glyphname = slash;
lastChange = "2024-07-02 17:45:55 +0000";
layers = (
{
layerId = m01;
shapes = (
{
closed = 1;
nodes = (
(15,35,l),
(125,35,l),
(445,1275,l),
(335,1275,l)
);
}
);
width = 460;
}
);
note = slash;
unicode = 47;
},
{
glyphname = zero;
lastChange = "2024-07-02 17:45:55 +0000";
layers = (
{
layerId = m01;
shapes = (
{
closed = 1;
nodes = (
(231,320,qs),
(173,451,o),
(173,675,qs),
(173,899,o),
(231,1030,qs),
(286,1155,o),
(377,1155,qs),
(468,1155,o),
(523,1030,qs),
(581,899,o),
(581,675,qs),
(581,451,o),
(523,320,qs),
(468,195,o),
(377,195,qs),
(286,195,o)
);
},
{
closed = 1;
nodes = (
(120,1056,qs),
(35,905,o),
(35,675,qs),
(35,445,o),
(120,294,qs),
(214,128,o),
(377,128,qs),
(540,128,o),
(634,294,qs),
(719,445,o),
(719,675,qs),
(719,905,o),
(634,1056,qs),
(540,1222,o),
(377,1222,qs),
(214,1222,o)
);
}
);
width = 754;
}
);
note = zero;
unicode = 48;
},
{
glyphname = one;
lastChange = "2024-07-02 17:45:55 +0000";
layers = (
{
layerId = m01;
shapes = (
{
closed = 1;
nodes = (
(35,1070,l),
(35,1019,l),
(174,1068,l),
(174,223,l),
(109,191,l),
(109,140,l),
(359,140,l),
(359,191,l),
(294,222,l),
(294,1210,l),
(243,1210,l)
);
}
);
width = 394;
}
);
note = one;
unicode = 49;
},
{
glyphname = two;
lastChange = "2024-07-02 17:45:55 +0000";
layers = (
{
layerId = m01;
shapes = (
{
closed = 1;
nodes = (
(565,260,l),
(190,260,l),
(354,404,o),
(466,559,qs),
(623,777,o),
(623,951,qs),
(623,976,o),
(620,1000,qs),
(606,1102,o),
(526,1162,qs),
(448,1222,o),
(336,1222,qs),
(244,1222,o),
(170,1166,qs),
(98,1112,o),
(78,1031,q),
(124,1019,l),
(154,1096,o),
(222,1125,qs),
(258,1140,o),
(296,1140,qs),
(318,1140,o),
(340,1135,qs),
(482,1104,o),
(482,929,qs),
(482,736,o),
(284,474,qs),
(222,391,o),
(135,295,qs),
(39,191,l),
(39,140,l),
(652,140,l),
(677,358,l),
(606,358,l)
);
}
);
width = 712;
}
);
note = two;
unicode = 50;
},
{
glyphname = three;
lastChange = "2024-07-02 17:45:55 +0000";
layers = (
{
layerId = m01;
shapes = (
{
closed = 1;
nodes = (
(504,740,qs),
(442,772,o),
(366,772,qs),
(352,772,o),
(338,771,q),
(533,871,o),
(533,1000,qs),
(533,1102,o),
(459,1163,qs),
(387,1222,o),
(273,1222,qs),
(181,1222,o),
(107,1166,qs),
(35,1112,o),
(15,1031,q),
(61,1019,l),
(91,1096,o),
(160,1125,qs),
(195,1140,o),
(234,1140,qs),
(255,1140,o),
(278,1135,qs),
(352,1119,o),
(384,1065,qs),
(404,1031,o),
(404,989,qs),
(404,961,o),
(395,929,qs),
(358,800,o),
(167,748,q),
(167,695,l),
(233,713,o),
(285,713,qs),
(337,713,o),
(374,695,qs),
(457,658,o),
(478,534,qs),
(487,481,o),
(487,435,qs),
(487,355,o),
(459,299,qs),
(412,201,o),
(289,195,qs),
(278,195,ls),
(229,195,o),
(195,218,qs),
(155,245,o),
(143,294,qs),
(142,300,o),
(142,310,qs),
(142,327,o),
(145,358,q),
(71,358,l),
(52,243,l),
(71,198,o),
(124,166,qs),
(188,128,o),
(276,128,qs),
(356,128,o),
(431,163,qs),
(507,198,o),
(559,260,qs),
(637,355,o),
(637,472,qs),
(637,536,o),
(614,607,qs),
(586,696,o)
);
}
);
width = 694;
}
);
note = three;
unicode = 51;
},
{
glyphname = four;
lastChange = "2024-07-02 17:45:55 +0000";
layers = (
{
layerId = m01;
shapes = (
{
closed = 1;
nodes = (
(15,470,l),
(15,419,l),
(459,419,l),
(459,140,l),
(579,140,l),
(579,419,l),
(684,419,l),
(684,470,l),
(579,498,l),
(579,840,l),
(459,894,l),
(459,498,l),
(155,498,l),
(445,1210,l),
(370,1210,l)
);
}
);
width = 699;
}
);
note = four;
unicode = 52;
},
{
glyphname = five;
lastChange = "2024-07-02 17:45:55 +0000";
layers = (
{
background = {
shapes = (
{
closed = 1;
nodes = (
(424,673,qs),
(361,694,o),
(304,694,qs),
(233,694,o),
(172,661,q),
(192,950,l),
(499,950,l),
(541,852,l),
(612,852,l),
(587,1070,l),
(118,1070,l),
(82,569,l),
(121,569,l),
(191,617,o),
(261,617,qs),
(300,617,o),
(339,602,qs),
(459,557,o),
(492,394,qs),
(501,347,o),
(501,305,qs),
(501,219,o),
(461,156,qs),
(397,55,o),
(253,55,qs),
(192,55,o),
(158,78,qs),
(118,105,o),
(106,154,qs),
(105,160,o),
(105,170,qs),
(105,187,o),
(108,218,q),
(34,218,l),
(15,103,l),
(32,64,o),
(77,34,qs),
(147,-12,o),
(264,-12,qs),
(454,-12,o),
(567,127,qs),
(646,224,o),
(646,343,qs),
(646,402,o),
(627,467,qs),
(581,620,o)
);
}
);
};
layerId = m01;
shapes = (
{
closed = 1;
nodes = (
(424,813,qs),
(361,834,o),
(304,834,qs),
(233,834,o),
(172,801,q),
(192,1090,l),
(499,1090,l),
(541,992,l),
(612,992,l),
(587,1210,l),
(118,1210,l),
(82,709,l),
(121,709,l),
(191,757,o),
(261,757,qs),
(300,757,o),
(339,742,qs),
(459,697,o),
(492,534,qs),
(501,487,o),
(501,445,qs),
(501,359,o),
(461,296,qs),
(397,195,o),
(253,195,qs),
(192,195,o),
(158,218,qs),
(118,245,o),
(106,294,qs),
(105,300,o),
(105,310,qs),
(105,327,o),
(108,358,q),
(34,358,l),
(15,243,l),
(32,204,o),
(77,174,qs),
(147,128,o),
(264,128,qs),
(454,128,o),
(567,267,qs),
(646,364,o),
(646,483,qs),
(646,542,o),
(627,607,qs),
(581,760,o)
);
}
);
width = 700;
}
);
note = five;
unicode = 53;
},
{
glyphname = six;
lastChange = "2024-07-02 17:45:55 +0000";
layers = (
{
layerId = m01;
shapes = (
{
closed = 1;
nodes = (
(554,781,qs),
(478,835,o),
(383,835,qs),
(380,835,ls),
(272,835,o),
(210,774,q),
(225,741,l),
(293,764,o),
(345,764,qs),
(399,764,o),
(436,740,qs),
(514,689,o),
(528,531,qs),
(530,506,o),
(530,482,qs),
(530,395,o),
(500,316,qs),
(456,200,o),
(370,192,qs),
(362,191,o),
(355,191,qs),
(279,191,o),
(223,266,qs),
(156,357,o),
(143,534,qs),
(140,566,o),
(140,598,qs),
(140,802,o),
(233,976,qs),
(281,1064,o),
(353,1120,qs),
(413,1166,o),
(471,1177,q),
(471,1234,l),
(273,1197,o),
(149,1024,qs),
(21,846,o),
(18,568,qs),
(18,554,ls),
(18,368,o),
(93,256,qs),
(178,130,o),
(343,128,qs),
(348,128,ls),
(510,128,o),
(610,263,qs),
(682,361,o),
(682,485,qs),
(682,543,o),
(666,608,qs),
(638,720,o)
);
}
);
width = 732;
}
);
note = six;
unicode = 54;
},
{
glyphname = seven;
lastChange = "2024-07-02 17:45:55 +0000";
layers = (
{
layerId = m01;
shapes = (
{
closed = 1;
nodes = (
(15,992,l),
(86,992,l),
(128,1090,l),
(500,1090,l),
(182,140,l),
(325,140,l),
(615,1159,l),
(615,1210,l),
(40,1210,l)
);
}
);
width = 630;
}
);
note = seven;
unicode = 55;
},
{
glyphname = eight;
lastChange = "2024-07-02 17:45:55 +0000";
layers = (
{
layerId = m01;
shapes = (
{
closed = 1;
nodes = (
(200,249,qs),
(145,300,o),
(145,386,qs),
(145,461,o),
(182,530,qs),
(221,603,o),
(289,645,q),
(320,625,o),
(355,606,qs),
(453,552,o),
(499,502,qs),
(550,448,o),
(556,384,qs),
(557,373,o),
(557,363,qs),
(557,272,o),
(485,227,qs),
(432,194,o),
(363,194,qs),
(351,194,o),
(338,195,qs),
(251,202,o)
);
},
{
closed = 1;
nodes = (
(195,993,o),
(195,1006,qs),
(195,1068,o),
(224,1106,qs),
(262,1156,o),
(342,1156,qs),
(421,1156,o),
(461,1113,qs),
(499,1073,o),
(499,1003,qs),
(499,868,o),
(353,769,q),
(207,863,o),
(196,978,qs)
);
},
{
closed = 1;
nodes = (
(394,744,q),
(465,768,o),
(518,817,qs),
(607,898,o),
(607,1021,qs),
(607,1110,o),
(530,1167,qs),
(455,1222,o),
(342,1222,qs),
(224,1222,o),
(141,1147,qs),
(58,1072,o),
(58,961,qs),
(58,945,o),
(60,929,qs),
(73,798,o),
(242,677,q),
(146,636,o),
(87,558,qs),
(30,483,o),
(24,396,qs),
(23,385,o),
(23,374,qs),
(23,253,o),
(115,189,qs),
(202,128,o),
(349,128,qs),
(510,128,o),
(603,203,qs),
(693,276,o),
(693,398,qs),
(693,488,o),
(656,548,qs),
(599,639,o),
(440,719,qs),
(416,732,o)
);
}
);
width = 708;
}
);
note = eight;
unicode = 56;
},
{
glyphname = nine;
lastChange = "2024-07-02 17:45:55 +0000";
layers = (
{
layerId = m01;
shapes = (
{
closed = 1;
nodes = (
(147,629,qs),
(228,563,o),
(331,559,qs),
(348,559,ls),
(443,559,o),
(507,612,q),
(492,645,l),
(428,621,o),
(376,621,qs),
(325,621,o),
(286,644,qs),
(200,694,o),
(186,850,qs),
(184,873,o),
(184,895,qs),
(184,983,o),
(216,1056,qs),
(261,1158,o),
(348,1167,qs),
(357,1168,o),
(365,1168,qs),
(439,1168,o),
(491,1096,qs),
(555,1008,o),
(572,831,qs),
(576,791,o),
(576,751,qs),
(576,550,o),
(492,388,qs),
(409,228,o),
(253,181,q),
(253,128,l),
(307,128,o),
(377,160,qs),
(461,199,o),
(530,269,qs),
(713,458,o),
(713,805,qs),
(713,1000,o),
(629,1113,qs),
(540,1234,o),
(374,1234,qs),
(226,1234,o),
(127,1128,qs),
(37,1032,o),
(37,889,qs),
(37,854,o),
(43,815,qs),
(59,700,o)
);
}
);
width = 728;
}
);
note = nine;
unicode = 57;
},
{
glyphname = colon;
lastChange = "2024-07-02 17:45:55 +0000";
layers = (
{
layerId = m01;
shapes = (
{
closed = 1;
nodes = (
(133,857,o),
(117,840,qs),
(100,824,o),
(100,801,qs),
(100,763,ls),
(100,740,o),
(117,724,qs),
(133,707,o),
(156,707,qs),
(194,707,ls),
(217,707,o),
(233,724,qs),
(250,740,o),
(250,763,qs),
(250,801,ls),
(250,824,o),
(233,840,qs),
(217,857,o),
(194,857,qs),
(156,857,ls)
);
},
{
closed = 1;
nodes = (
(133,278,o),
(117,261,qs),
(100,245,o),
(100,222,qs),
(100,184,ls),
(100,161,o),
(117,145,qs),
(133,128,o),
(156,128,qs),
(194,128,ls),
(217,128,o),
(233,145,qs),
(250,161,o),
(250,184,qs),
(250,222,ls),
(250,245,o),
(233,261,qs),
(217,278,o),
(194,278,qs),
(156,278,ls)
);
}
);
width = 400;
}
);
note = colon;
unicode = 58;
},
{
glyphname = semicolon;
lastChange = "2024-07-02 17:45:55 +0000";
layers = (
{
layerId = m01;
shapes = (
{
closed = 1;
nodes = (
(250,244,o),
(234,260,qs),
(217,277,o),
(194,277,qs),
(157,277,ls),
(134,277,o),
(117,260,qs),
(101,244,o),
(101,221,qs),
(101,183,ls),
(101,160,o),
(117,144,qs),
(134,128,o),
(157,128,qs),
(159,128,l),
(157,60,o),
(147,47,qs),
(135,32,o),
(122,32,qs),
(118,32,l),
(111,-2,l),
(126,-6,o),
(141,-6,qs),
(176,-6,o),
(205,19,qs),
(243,52,o),
(249,132,qs),
(250,141,o),
(250,189,qs),
(250,221,ls)
);
},
{
closed = 1;
nodes = (
(216,707,o),
(233,723,qs),
(249,740,o),
(249,763,qs),
(249,800,ls),
(249,823,o),
(233,840,qs),
(216,856,o),
(193,856,qs),
(156,856,ls),
(133,856,o),
(116,840,qs),
(100,823,o),
(100,800,qs),
(100,763,ls),
(100,740,o),
(116,723,qs),
(133,707,o),
(156,707,qs),
(193,707,ls)
);
}
);
width = 400;
}
);
note = semicolon;
unicode = (59,894);
},
{
glyphname = less;
lastChange = "2024-07-02 17:45:55 +0000";
layers = (
{
layerId = m01;
shapes = (
{
closed = 1;
nodes = (
(35,625,l),
(35,573,l),
(671,140,l),
(701,241,l),
(206,599,l),
(701,957,l),
(671,1058,l)
);
}
);
width = 736;
}
);
note = less;
unicode = 60;
},
{
glyphname = equal;
lastChange = "2024-07-02 17:45:55 +0000";
layers = (
{
layerId = m01;
shapes = (
{
closed = 1;
nodes = (
(50,472,l),
(750,472,l),
(750,572,l),
(50,572,l)
);
},
{
closed = 1;
nodes = (
(750,662,l),
(750,762,l),
(50,762,l),
(50,662,l)
);
}
);
width = 800;
}
);
note = equal;
unicode = 61;
},
{
glyphname = greater;
lastChange = "2024-07-02 17:45:55 +0000";
layers = (
{
layerId = m01;
shapes = (
{
closed = 1;
nodes = (
(530,599,l),
(35,241,l),
(65,140,l),
(701,573,l),
(701,625,l),
(65,1058,l),
(35,957,l)
);
}
);
width = 736;
}
);
note = greater;
unicode = 62;
},
{
glyphname = question;
lastChange = "2024-07-02 17:45:55 +0000";
layers = (
{
layerId = m01;
shapes = (
{
closed = 1;
nodes = (
(356,1202,qs),
(175,1202,o),
(106,1086,qs),
(75,1034,o),
(75,949,qs),
(75,911,o),
(81,867,q),
(155,867,l),
(155,1092,o),
(305,1109,qs),
(322,1111,o),
(335,1111,qs),
(442,1111,o),
(442,1006,qs),
(442,919,o),
(402,839,qs),
(383,798,o),
(316,705,qs),
(255,620,o),
(230,560,qs),
(191,469,o),
(191,377,q),
(260,377,l),
(295,515,o),
(336,574,qs),
(351,594,o),
(399,649,qs),
(456,714,o),
(504,775,qs),
(549,832,o),
(569,905,qs),
(581,950,o),
(581,988,qs),
(581,1012,o),
(576,1034,qs),
(539,1202,o)
);
},
{
closed = 1;
nodes = (
(184,278,o),
(168,261,qs),
(151,245,o),
(151,222,qs),
(151,184,ls),
(151,161,o),
(168,145,qs),
(184,128,o),
(207,128,qs),
(245,128,ls),
(268,128,o),
(284,145,qs),
(301,161,o),
(301,184,qs),
(301,222,ls),
(301,245,o),
(284,261,qs),
(268,278,o),
(245,278,qs),
(207,278,ls)
);
}
);
width = 656;
}
);
note = question;
unicode = 63;
},
{
glyphname = at;
lastChange = "2024-07-02 17:45:55 +0000";
layers = (
{
layerId = m01;
shapes = (
{
closed = 1;
nodes = (
(717,568,o),
(683,517,qs),
(642,458,o),
(587,450,qs),
(575,448,o),
(564,448,qs),
(503,448,o),
(463,500,qs),
(419,557,o),
(414,654,qs),
(413,666,o),
(413,677,qs),
(413,769,o),
(451,824,qs),
(490,882,o),
(563,888,qs),
(571,889,o),
(579,889,qs),
(628,889,o),
(668,857,qs),
(714,821,o),
(732,758,q),
(732,642,l)
);
},
{
closed = 1;
nodes = (
(237,1050,qs),
(75,887,o),
(75,665,qs),
(75,443,o),
(237,280,qs),
(399,118,o),
(622,118,qs),
(693,118,o),
(761,141,qs),
(831,165,o),
(870,204,q),
(836,260,l),
(736,195,o),
(622,195,qs),
(435,195,o),
(304,330,qs),
(172,474,o),
(172,665,qs),
(172,856,o),
(304,1000,qs),
(435,1135,o),
(622,1135,qs),
(798,1135,o),
(912,1047,q),
(1040,939,o),
(1040,759,qs),
(1040,625,o),
(995,547,qs),
(958,483,o),
(896,465,qs),
(881,461,o),
(870,461,qs),
(850,461,o),
(841,473,qs),
(825,493,o),
(825,553,qs),
(825,941,l),
(732,941,l),
(732,866,l),
(659,950,o),
(575,950,qs),
(464,950,o),
(386,862,qs),
(309,776,o),
(309,657,qs),
(309,487,o),
(423,421,qs),
(482,386,o),
(545,386,qs),
(562,386,o),
(579,389,qs),
(690,405,o),
(742,506,q),
(743,506,l),
(752,420,o),
(799,396,qs),
(817,387,o),
(843,387,qs),
(880,387,o),
(932,406,qs),
(1022,439,o),
(1076,523,qs),
(1137,618,o),
(1137,759,qs),
(1137,969,o),
(974,1097,qs),
(827,1212,o),
(622,1212,qs),
(399,1212,o)
);
}
);
width = 1212;
}
);
note = at;
unicode = 64;
},
{
glyphname = A;
lastChange = "2024-07-02 17:45:55 +0000";
layers = (
{
layerId = m01;
shapes = (
{
closed = 1;
nodes = (
(472,1202,l),
(105,223,l),
(25,191,l),
(25,140,l),
(304,140,l),
(304,191,l),
(224,223,l),
(346,581,l),
(612,581,l),
(727,223,l),
(647,191,l),
(647,140,l),
(962,140,l),
(962,191,l),
(882,223,l),
(527,1202,l)
);
},
{
closed = 1;
nodes = (
(486,983,l),
(588,661,l),
(379,661,l)
);
}
);
width = 987;
}
);
note = A;
unicode = 65;
},
{
glyphname = B;
lastChange = "2024-07-02 17:45:55 +0000";
layers = (
{
layerId = m01;
shapes = (
{
closed = 1;
nodes = (
(317,625,o),
(353,625,qs),
(474,625,o),
(546,599,qs),
(652,557,o),
(652,420,qs),
(652,410,o),
(651,400,qs),
(637,250,o),
(462,219,qs),
(421,212,o),
(367,212,qs),
(326,212,o),
(277,216,q),
(277,623,l)
);
},
{
closed = 1;
nodes = (
(515,729,q),
(446,708,o),
(349,708,qs),
(315,708,o),
(277,711,q),
(277,1108,l),
(321,1112,o),
(360,1112,qs),
(643,1112,o),
(643,911,qs),
(643,901,ls),
(643,786,o)
);
},
{
closed = 1;
nodes = (
(748,597,qs),
(699,653,o),
(616,671,q),
(593,673,l),
(593,676,l),
(607,679,l),
(696,711,o),
(737,768,qs),
(780,835,o),
(780,924,qs),
(780,1087,o),
(643,1147,qs),
(539,1190,o),
(428,1190,qs),
(50,1190,l),
(50,1140,l),
(147,1107,l),
(147,223,l),
(50,188,l),
(50,140,l),
(406,140,ls),
(536,140,o),
(613,164,qs),
(705,194,o),
(751,249,qs),
(802,312,o),
(802,417,qs),
(802,532,o)
);
}
);
width = 827;
}
);
note = B;
unicode = 66;
},
{
glyphname = C;
lastChange = "2024-07-02 17:45:55 +0000";
layers = (
{
layerId = m01;
shapes = (
{
closed = 1;
nodes = (
(551,220,o),
(542,220,qs),
(419,220,o),
(304,335,q),
(202,458,o),
(196,636,qs),
(195,654,o),
(195,670,qs),
(195,848,o),
(262,970,q),
(343,1093,o),
(487,1119,q),
(507,1121,o),
(525,1121,qs),
(603,1121,o),
(657,1083,qs),
(719,1039,o),
(737,976,q),
(739,965,o),
(739,946,qs),
(739,916,o),
(734,867,q),
(829,867,l),
(857,1031,l),
(828,1098,o),
(750,1145,qs),
(655,1202,o),
(524,1202,qs),
(323,1202,o),
(177,1034,qs),
(35,871,o),
(35,643,qs),
(35,422,o),
(169,274,q),
(311,128,o),
(511,128,qs),
(735,128,o),
(861,331,q),
(803,361,l),
(735,292,o),
(696,267,qs),
(634,226,o),
(560,221,qs)
);
}
);
width = 896;
}
);
note = C;
unicode = 67;
},
{
glyphname = D;
lastChange = "2024-07-02 17:45:55 +0000";
layers = (
{
layerId = m01;
shapes = (
{
closed = 1;
nodes = (
(475,218,qs),
(458,217,o),
(433,217,qs),
(371,217,o),
(260,221,q),
(260,1100,l),
(304,1113,o),
(372,1113,qs),
(413,1113,o),
(462,1108,qs),
(619,1094,o),
(703,995,q),
(797,871,o),
(803,694,qs),
(804,679,o),
(804,665,qs),
(804,480,o),
(721,357,q),
(622,223,o)
);
},
{
closed = 1;
nodes = (
(488,1190,qs),
(50,1190,l),
(50,1139,l),
(130,1107,l),
(130,223,l),
(50,191,l),
(50,140,l),
(482,140,ls),
(708,140,o),
(834,299,qs),
(964,461,o),
(964,687,qs),
(964,908,o),
(830,1056,qs),
(700,1190,o)
);
}
);
width = 989;
}
);
note = D;
unicode = 68;
},
{
glyphname = E;
lastChange = "2024-07-02 17:45:55 +0000";
layers = (
{
layerId = m01;
shapes = (
{
closed = 1;
nodes = (
(50,1139,l),
(130,1108,l),
(130,222,l),
(50,191,l),
(50,140,l),
(761,140,l),
(796,463,l),
(705,463,l),
(634,217,l),
(260,217,l),
(260,623,l),
(452,623,l),
(513,497,l),
(554,497,l),
(544,662,l),
(554,826,l),
(513,826,l),
(452,700,l),
(260,700,l),
(260,1113,l),
(634,1113,l),
(705,867,l),
(796,867,l),
(761,1190,l),
(50,1190,l)
);
}
);
width = 831;
}
);
note = E;
unicode = 69;
},
{
glyphname = F;
lastChange = "2024-07-02 17:45:55 +0000";
layers = (
{
layerId = m01;
shapes = (
{
closed = 1;
nodes = (
(35,1139,l),
(115,1107,l),
(115,223,l),
(35,191,l),
(35,140,l),
(325,140,l),
(325,191,l),
(245,223,l),
(245,613,l),
(432,613,l),
(493,487,l),
(534,487,l),
(524,652,l),
(534,816,l),
(493,816,l),
(432,690,l),
(245,690,l),
(245,1113,l),
(594,1113,l),
(665,867,l),
(756,867,l),
(721,1190,l),
(35,1190,l)
);
}
);
width = 781;
}
);
note = F;
unicode = 70;
},
{
glyphname = G;
lastChange = "2024-07-02 17:45:55 +0000";
layers = (
{
layerId = m01;
shapes = (
{
closed = 1;
nodes = (
(523,601,l),
(733,569,l),
(733,383,ls),
(733,305,o),
(666,257,qs),
(612,221,o),
(550,221,qs),
(387,221,o),
(284,335,q),
(192,449,o),
(186,636,qs),
(185,654,o),
(185,670,qs),
(185,848,o),
(252,970,q),
(333,1093,o),
(487,1119,q),
(507,1121,o),
(525,1121,qs),
(603,1121,o),
(657,1083,qs),
(719,1039,o),
(737,976,q),
(739,965,o),
(739,946,qs),
(739,916,o),
(734,867,q),
(829,867,l),
(857,1031,l),
(828,1098,o),
(750,1145,qs),
(655,1202,o),
(524,1202,qs),
(313,1202,o),
(167,1034,qs),
(25,871,o),
(25,643,qs),
(25,422,o),
(149,274,q),
(291,128,o),
(501,128,qs),
(664,128,o),
(761,254,q),
(812,140,l),
(863,140,l),
(863,569,l),
(943,601,l),
(943,672,l),
(523,672,l)
);
}
);
width = 968;
}
);
note = G;
unicode = 71;
},
{
glyphname = H;
lastChange = "2024-07-02 17:45:55 +0000";
layers = (
{
layerId = m01;
shapes = (
{
closed = 1;
nodes = (
(673,1139,l),
(753,1107,l),
(753,701,l),
(245,701,l),
(245,1107,l),
(325,1139,l),
(325,1190,l),
(35,1190,l),
(35,1139,l),
(115,1107,l),
(115,223,l),
(35,191,l),
(35,140,l),
(325,140,l),
(325,191,l),
(245,223,l),
(245,621,l),
(753,621,l),
(753,223,l),
(673,191,l),
(673,140,l),
(963,140,l),
(963,191,l),
(883,223,l),
(883,1107,l),
(963,1139,l),
(963,1190,l),
(673,1190,l)
);
}
);
width = 1013;
}
);
note = H;
unicode = 72;
},
{
glyphname = I;
lastChange = "2024-07-02 17:45:55 +0000";
layers = (
{
layerId = m01;
shapes = (
{
closed = 1;
nodes = (
(50,1139,l),
(160,1107,l),
(160,223,l),
(60,191,l),
(60,140,l),
(390,140,l),
(390,191,l),
(290,223,l),
(290,1107,l),
(390,1139,l),
(390,1190,l),
(50,1190,l)
);
}
);
width = 440;
}
);
note = I;
unicode = 73;
},
{
glyphname = J;
lastChange = "2024-07-02 17:45:55 +0000";
layers = (
{
layerId = m01;
shapes = (
{
closed = 1;
nodes = (
(42,1139,l),
(182,1107,l),
(182,375,ls),
(182,159,o),
(164,98,qs),
(144,33,o),
(93,17,qs),
(81,13,o),
(69,13,qs),
(58,13,o),
(47,17,q),
(25,-48,l),
(90,-72,o),
(149,-72,qs),
(217,-72,o),
(257,-29,qs),
(294,12,o),
(306,88,qs),
(317,159,o),
(317,343,qs),
(317,1107,l),
(427,1139,l),
(427,1190,l),
(42,1190,l)
);
}
);
width = 452;
}
);
note = J;
unicode = 74;
},
{
glyphname = K;
lastChange = "2024-07-02 17:45:55 +0000";
layers = (
{
layerId = m01;
shapes = (
{
closed = 1;
nodes = (
(867,214,o),
(858,214,qs),
(849,214,o),
(838,217,qs),
(797,230,o),
(776,298,qs),
(743,400,o),
(698,575,q),
(560,672,o),
(513,685,q),
(513,687,l),
(777,1102,l),
(878,1139,l),
(878,1190,l),
(568,1190,l),
(568,1139,l),
(652,1107,l),
(414,694,l),
(260,694,l),
(260,1108,l),
(340,1139,l),
(340,1190,l),
(50,1190,l),
(50,1139,l),
(130,1107,l),
(130,223,l),
(50,191,l),
(50,140,l),
(340,140,l),
(340,191,l),
(260,223,l),
(260,620,l),
(434,620,ls),
(478,620,o),
(568,534,q),
(606,326,o),
(623,269,qs),
(640,210,o),
(679,171,qs),
(722,128,o),
(773,128,qs),
(837,128,o),
(897,152,q),
(875,217,l)
);
}
);
width = 922;
}
);
note = K;
unicode = 75;
},
{
glyphname = L;
lastChange = "2024-07-02 17:45:55 +0000";
layers = (
{
layerId = m01;
shapes = (
{
closed = 1;
nodes = (
(766,463,l),
(675,463,l),
(604,217,l),
(245,217,l),
(245,1107,l),
(325,1139,l),
(325,1190,l),
(35,1190,l),
(35,1139,l),
(115,1107,l),
(115,223,l),
(35,191,l),
(35,140,l),
(731,140,l)
);
}
);
width = 791;
}
);
note = L;
unicode = 76;
},
{
glyphname = M;
lastChange = "2024-07-02 17:45:55 +0000";
layers = (
{
layerId = m01;
shapes = (
{
closed = 1;
nodes = (
(641,362,l),
(401,1190,l),
(127,1190,l),
(127,1139,l),
(202,1107,l),
(112,228,l),
(15,191,l),
(15,140,l),
(306,140,l),
(306,191,l),
(219,224,l),
(295,1026,l),
(307,1026,l),
(577,140,l),
(685,140,l),
(942,1026,l),
(950,1026,l),
(1047,224,l),
(962,191,l),
(962,140,l),
(1274,140,l),
(1274,191,l),
(1189,225,l),
(1083,1107,l),
(1155,1139,l),
(1155,1190,l),
(891,1190,l)
);
}
);
width = 1289;
}
);
note = M;
unicode = 77;
},
{
glyphname = N;
lastChange = "2024-07-02 17:45:55 +0000";
layers = (
{
layerId = m01;
shapes = (
{
closed = 1;
nodes = (
(713,1139,l),
(818,1107,l),
(818,345,l),
(815,391,o),
(808,402,qs),
(675,600,o),
(258,1190,q),
(25,1190,l),
(25,1139,l),
(130,1107,l),
(130,223,l),
(25,191,l),
(25,140,l),
(340,140,l),
(340,191,l),
(235,223,l),
(235,1025,l),
(241,972,o),
(245,965,qs),
(332,819,o),
(823,140,q),
(923,140,l),
(923,1107,l),
(1028,1139,l),
(1028,1190,l),
(713,1190,l)
);
}
);
width = 1053;
}
);
note = N;
unicode = 78;
},
{
glyphname = O;
lastChange = "2024-07-02 17:45:55 +0000";
layers = (
{
layerId = m01;
shapes = (
{
closed = 1;
nodes = (
(551,218,o),
(537,218,qs),
(413,218,o),
(312,329,qs),
(201,451,o),
(185,636,qs),
(182,666,o),
(182,695,qs),
(182,844,o),
(256,960,qs),
(344,1099,o),
(486,1111,qs),
(499,1112,o),
(513,1112,qs),
(637,1112,o),
(738,1001,qs),
(849,879,o),
(865,694,qs),
(868,664,o),
(868,635,qs),
(868,486,o),
(794,370,qs),
(706,231,o),
(564,219,qs)
);
},
{
closed = 1;
nodes = (
(172,1030,qs),
(25,861,o),
(25,635,qs),
(25,416,o),
(172,270,qs),
(316,128,o),
(525,128,qs),
(729,128,o),
(878,299,qs),
(1025,468,o),
(1025,693,qs),
(1025,913,o),
(878,1059,qs),
(734,1202,o),
(525,1202,qs),
(321,1202,o)
);
}
);
width = 1050;
}
);
note = O;
unicode = 79;
},
{
glyphname = P;
lastChange = "2024-07-02 17:45:55 +0000";
layers = (
{
layerId = m01;
shapes = (
{
closed = 1;
nodes = (
(277,1190,qs),
(50,1190,l),
(50,1139,l),
(147,1107,l),
(147,223,l),
(50,191,l),
(50,140,l),
(364,140,l),
(364,191,l),
(277,222,l),
(277,1108,l),
(310,1113,o),
(344,1113,qs),
(396,1113,o),
(452,1102,qs),
(606,1066,o),
(622,922,qs),
(624,900,o),
(624,880,qs),
(624,768,o),
(557,717,qs),
(492,668,o),
(339,668,q),
(326,610,l),
(385,603,o),
(437,603,qs),
(562,603,o),
(642,645,qs),
(779,717,o),
(779,893,qs),
(779,1120,o),
(543,1175,qs),
(479,1190,o)
);
}
);
width = 814;
}
);
note = P;
unicode = 80;
},
{
glyphname = Q;
lastChange = "2024-07-02 17:45:55 +0000";
layers = (
{
layerId = m01;
shapes = (
{
closed = 1;
nodes = (
(185,637,qs),
(182,667,o),
(182,695,qs),
(182,844,o),
(256,960,qs),
(344,1099,o),
(485,1111,qs),
(498,1112,o),
(512,1112,qs),
(636,1112,o),
(737,1001,qs),
(848,879,o),
(864,695,qs),
(867,662,o),
(867,631,qs),
(867,477,o),
(793,361,qs),
(705,222,o),
(563,210,qs),
(550,209,o),
(536,209,qs),
(412,209,o),
(312,320,qs),
(202,441,o)
);
},
{
closed = 1;
nodes = (
(999,-7,o),
(970,-15,qs),
(947,-22,o),
(924,-22,qs),
(888,-22,o),
(849,-6,qs),
(721,44,o),
(671,56,qs),
(624,68,o),
(582,68,qs),
(544,68,o),
(509,58,q),
(668,143,o),
(719,174,qs),
(822,237,o),
(877,300,qs),
(1024,469,o),
(1024,694,qs),
(1024,913,o),
(877,1059,qs),
(733,1202,o),
(524,1202,qs),
(321,1202,o),
(172,1030,qs),
(25,861,o),
(25,636,qs),
(25,417,o),
(172,271,qs),
(303,141,o),
(489,130,q),
(285,-15,l),
(335,-73,l),
(429,-22,o),
(514,-22,qs),
(561,-22,o),
(628,-57,qs),
(640,-64,o),
(689,-92,qs),
(730,-115,o),
(758,-129,qs),
(812,-155,o),
(864,-155,qs),
(914,-155,o),
(963,-132,qs),
(1016,-106,o),
(1055,-15,q),
(1015,6,l)
);
}
);
width = 1080;
}
);
note = Q;
unicode = 81;
},
{
glyphname = R;
lastChange = "2024-07-02 17:45:55 +0000";
layers = (
{
layerId = m01;
shapes = (
{
closed = 1;
nodes = (
(621,1070,o),
(621,902,qs),
(621,889,o),
(620,875,qs),
(605,762,o),
(490,724,qs),
(438,707,o),
(262,706,q),
(262,1103,l),
(306,1108,o),
(353,1108,qs),
(408,1108,o),
(465,1101,q)
);
},
{
closed = 1;
nodes = (
(273,627,ls),
(504,627,o),
(544,534,q),
(583,326,o),
(599,269,qs),
(617,210,o),
(656,171,qs),
(699,128,o),
(750,128,qs),
(814,128,o),
(874,152,q),
(852,217,l),
(844,214,o),
(834,214,qs),
(825,214,o),
(815,217,qs),
(774,230,o),
(753,298,qs),
(723,401,o),
(675,575,q),
(608,636,o),
(519,655,q),
(519,659,l),
(746,677,o),
(770,863,qs),
(772,884,o),
(772,904,qs),
(772,995,o),
(727,1065,q),
(660,1154,o),
(538,1178,qs),
(483,1190,o),
(272,1190,qs),
(35,1190,l),
(35,1139,l),
(132,1107,l),
(132,223,l),
(52,191,l),
(52,140,l),
(352,140,l),
(352,191,l),
(262,223,l),
(262,627,l)
);
}
);
width = 889;
}
);
note = R;
unicode = 82;
},
{
glyphname = S;
lastChange = "2024-07-02 17:45:55 +0000";
layers = (
{
layerId = m01;
shapes = (
{
closed = 1;
nodes = (
(308,863,qs),
(256,916,o),
(256,979,qs),
(256,985,o),
(257,992,qs),
(262,1048,o),
(305,1084,qs),
(350,1123,o),
(422,1123,qs),
(511,1123,o),
(568,1083,qs),
(630,1039,o),
(648,976,q),
(650,965,o),
(650,946,qs),
(650,916,o),
(645,867,q),
(740,867,l),
(768,1031,l),
(739,1098,o),
(661,1145,qs),
(566,1202,o),
(435,1202,qs),
(322,1202,o),
(242,1166,qs),
(148,1124,o),
(115,1034,q),
(106,1000,o),
(106,968,qs),
(106,792,o),
(398,627,qs),
(506,569,o),
(560,519,qs),
(612,468,o),
(617,404,qs),
(617,389,ls),
(611,292,o),
(555,246,qs),
(504,207,o),
(432,207,qs),
(333,207,o),
(276,247,qs),
(214,291,o),
(196,354,q),
(194,365,o),
(194,384,qs),
(194,414,o),
(199,463,q),
(104,463,l),
(76,299,l),
(105,232,o),
(183,185,qs),
(278,128,o),
(419,128,qs),
(535,128,o),
(620,166,qs),
(724,213,o),
(758,308,qs),
(778,364,o),
(778,413,qs),
(778,475,o),
(747,527,qs),
(682,637,o),
(456,761,qs),
(352,818,o)
);
}
);
width = 828;
}
);
note = S;
unicode = 83;
},
{
glyphname = T;
lastChange = "2024-07-02 17:45:55 +0000";
layers = (
{
layerId = m01;
shapes = (
{
closed = 1;
nodes = (
(20,867,l),
(111,867,l),
(182,1113,l),
(410,1113,l),
(410,222,l),
(330,191,l),
(330,140,l),
(620,140,l),
(620,191,l),
(540,222,l),
(540,1113,l),
(768,1113,l),
(839,867,l),
(930,867,l),
(895,1190,l),
(55,1190,l)
);
}
);
width = 950;
}
);
note = T;
unicode = 84;
},
{
glyphname = U;
lastChange = "2024-07-02 17:45:55 +0000";
layers = (
{
layerId = m01;
shapes = (
{
closed = 1;
nodes = (
(178,255,qs),
(277,128,o),
(505,128,qs),
(718,128,o),
(807,255,qs),
(869,344,o),
(869,477,qs),
(869,1107,l),
(974,1139,l),
(974,1190,l),
(664,1190,l),
(664,1139,l),
(769,1107,l),
(769,462,ls),
(769,373,o),
(733,314,qs),
(672,211,o),
(501,211,qs),
(351,211,o),
(287,324,qs),
(250,390,o),
(250,482,qs),
(250,1107,l),
(330,1139,l),
(330,1190,l),
(35,1190,l),
(35,1139,l),
(115,1107,l),
(115,445,ls),
(115,336,o)
);
}
);
width = 1009;
}
);
note = U;
unicode = 85;
},
{
glyphname = V;
lastChange = "2024-07-02 17:45:55 +0000";
layers = (
{
layerId = m01;
shapes = (
{
closed = 1;
nodes = (
(749,1139,l),
(836,1106,l),
(558,287,l),
(566,319,o),
(566,338,qs),
(566,346,o),
(565,352,q),
(505,528,o),
(277,1106,q),
(362,1139,l),
(362,1190,l),
(15,1190,l),
(15,1139,l),
(110,1105,l),
(508,140,l),
(616,140,l),
(943,1102,l),
(1040,1139,l),
(1040,1190,l),
(749,1190,l)
);
}
);
width = 1055;
}
);
note = V;
unicode = 86;
},
{
glyphname = W;
lastChange = "2024-07-02 17:45:55 +0000";
layers = (
{
layerId = m01;
shapes = (
{
closed = 1;
nodes = (
(1204,1139,l),
(1291,1106,l),
(1049,287,l),
(1056,316,o),
(1056,335,qs),
(1056,345,o),
(1054,352,qs),
(1017,464,o),
(798,1106,q),
(882,1139,l),
(882,1190,l),
(536,1190,l),
(536,1139,l),
(630,1105,l),
(722,865,l),
(548,287,ls),
(556,315,o),
(556,334,qs),
(556,345,o),
(553,352,qs),
(495,528,o),
(277,1106,q),
(362,1139,l),
(362,1190,l),
(15,1190,l),
(15,1139,l),
(110,1105,l),
(498,140,l),
(605,140,l),
(781,709,l),
(998,140,l),
(1106,140,l),
(1398,1102,l),
(1495,1139,l),
(1495,1190,l),
(1204,1190,l)
);
}
);
width = 1510;
}
);
note = W;
unicode = 87;
},
{
glyphname = X;
lastChange = "2024-07-02 17:45:55 +0000";
layers = (
{
layerId = m01;
shapes = (
{
closed = 1;
nodes = (
(698,1139,l),
(783,1108,l),
(535,744,l),
(305,1108,l),
(390,1139,l),
(390,1190,l),
(30,1190,l),
(30,1139,l),
(125,1107,l),
(434,661,l),
(123,223,l),
(20,191,l),
(20,140,l),
(340,140,l),
(340,191,l),
(255,222,l),
(501,587,l),
(748,222,l),
(663,191,l),
(663,140,l),
(1018,140,l),
(1018,191,l),
(923,223,l),
(602,665,l),
(908,1107,l),
(1008,1139,l),
(1008,1190,l),
(698,1190,l)
);
}
);
width = 1033;
}
);
note = X;
unicode = 88;
},
{
glyphname = Y;
lastChange = "2024-07-02 17:45:55 +0000";
layers = (
{
layerId = m01;
shapes = (
{
closed = 1;
nodes = (
(683,1139,l),
(768,1108,l),
(538,735,l),
(300,1108,l),
(385,1139,l),
(385,1190,l),
(25,1190,l),
(25,1139,l),
(120,1107,l),
(458,639,l),
(458,223,l),
(378,191,l),
(378,140,l),
(668,140,l),
(668,191,l),
(588,223,l),
(588,638,l),
(893,1107,l),
(993,1139,l),
(993,1190,l),
(683,1190,l)
);
}
);
width = 1018;
}
);
note = Y;
unicode = 89;
},
{
glyphname = Z;
lastChange = "2024-07-02 17:45:55 +0000";
layers = (
{
layerId = m01;
shapes = (
{
closed = 1;
nodes = (
(46,867,l),
(136,867,l),
(207,1113,l),
(633,1113,l),
(25,191,l),
(25,140,l),
(786,140,l),
(821,463,l),
(730,463,l),
(659,217,l),
(220,217,l),
(831,1139,l),
(831,1190,l),
(81,1190,l)
);
}
);
width = 856;
}
);
note = Z;
unicode = 90;
},
{
glyphname = bracketleft;
lastChange = "2024-07-02 17:45:55 +0000";
layers = (
{
layerId = m01;
shapes = (
{
closed = 1;
nodes = (
(50,-210,l),
(320,-210,l),
(320,-159,l),
(170,-127,l),
(170,1199,l),
(320,1231,l),
(320,1282,l),
(50,1282,l)
);
}
);
width = 370;
}
);
note = bracketleft;
unicode = 91;
},
{
glyphname = backslash;
lastChange = "2024-07-02 17:45:55 +0000";
layers = (
{
layerId = m01;
shapes = (
{
closed = 1;
nodes = (
(335,35,l),
(445,35,l),
(125,1275,l),
(15,1275,l)
);
}
);
width = 460;
}
);
note = backslash;
unicode = 92;
},
{
glyphname = bracketright;
lastChange = "2024-07-02 17:45:55 +0000";
layers = (
{
layerId = m01;
shapes = (
{
closed = 1;
nodes = (
(50,1231,l),
(200,1199,l),
(200,-127,l),
(50,-159,l),
(50,-210,l),
(320,-210,l),
(320,1282,l),
(50,1282,l)
);
}
);
width = 370;
}
);
note = bracketright;
unicode = 93;
},
{
glyphname = asciicircum;
lastChange = "2024-07-02 17:45:55 +0000";
layers = (
{
layerId = m01;
shapes = (
{
closed = 1;
nodes = (
(400,1261,l),
(348,1261,l),
(35,655,l),
(156,655,l),
(374,1108,l),
(592,655,l),
(713,655,l)
);
}
);
width = 748;
}
);
note = asciicircum;
unicode = 94;
},
{
glyphname = underscore;
lastChange = "2024-07-02 17:45:55 +0000";
layers = (
{
layerId = m01;
shapes = (
{
closed = 1;
nodes = (
(50,67,l),
(750,67,l),
(750,157,l),
(50,157,l)
);
}
);
width = 800;
}
);
note = underscore;
unicode = 95;
},
{
glyphname = grave;
lastChange = "2024-07-02 17:45:55 +0000";
layers = (
{
layerId = m01;
shapes = (
{
closed = 1;
nodes = (
(232,940,l),
(326,966,l),
(211,1230,l),
(35,1230,l)
);
}
);
width = 361;
}
);
note = grave;
unicode = 96;
},
{
glyphname = a;
lastChange = "2024-07-02 17:45:55 +0000";
layers = (
{
layerId = m01;
shapes = (
{
closed = 1;
nodes = (
(352,236,o),
(286,216,qs),
(263,209,o),
(242,209,qs),
(218,209,o),
(197,218,qs),
(153,237,o),
(151,288,qs),
(151,293,ls),
(151,378,o),
(243,428,qs),
(273,445,o),
(388,484,q),
(388,296,l)
);
},
{
closed = 1;
nodes = (
(512,852,o),
(248,852,qs),
(179,852,o),
(114,814,qs),
(55,779,o),
(37,737,q),
(57,612,l),
(128,612,l),
(126,640,o),
(126,659,qs),
(126,677,o),
(128,686,qs),
(139,732,o),
(169,759,qs),
(199,785,o),
(243,785,qs),
(321,785,o),
(355,736,qs),
(389,687,o),
(389,576,qs),
(389,562,o),
(388,546,q),
(214,497,o),
(169,475,qs),
(14,399,o),
(14,273,qs),
(14,266,o),
(15,258,qs),
(19,196,o),
(58,163,qs),
(98,128,o),
(173,128,qs),
(309,128,o),
(397,227,q),
(402,205,o),
(415,183,qs),
(440,140,o),
(482,140,qs),
(557,140,o),
(598,165,q),
(576,230,l),
(565,225,o),
(555,225,qs),
(546,225,o),
(537,230,qs),
(512,244,o),
(512,298,qs),
(512,563,ls)
);
}
);
width = 613;
}
);
note = a;
unicode = 97;
},
{
glyphname = b;
lastChange = "2024-07-02 17:45:55 +0000";
layers = (
{
layerId = m01;
shapes = (
{
closed = 1;
nodes = (
(443,201,qs),
(433,200,o),
(424,200,qs),
(344,200,o),
(283,260,qs),
(211,330,o),
(201,447,qs),
(201,453,o),
(200,483,q),
(204,590,o),
(258,682,q),
(315,767,o),
(394,777,qs),
(402,778,o),
(411,778,qs),
(489,778,o),
(551,708,qs),
(619,629,o),
(630,509,qs),
(632,490,o),
(632,472,qs),
(632,375,o),
(587,299,qs),
(532,209,o)
);
},
{
closed = 1;
nodes = (
(454,852,qs),
(274,852,o),
(198,689,q),
(198,1202,l),
(15,1193,l),
(15,1141,l),
(80,1110,l),
(80,140,l),
(131,140,l),
(182,254,l),
(266,128,o),
(418,128,qs),
(565,128,o),
(664,241,qs),
(765,356,o),
(765,531,qs),
(765,672,o),
(670,764,qs),
(580,852,o)
);
}
);
width = 780;
}
);
note = b;
unicode = 98;
},
{
glyphname = c;
lastChange = "2024-07-02 17:45:55 +0000";
layers = (
{
layerId = m01;
shapes = (
{
closed = 1;
nodes = (
(377,201,ls),
(293,201,o),
(225,273,qs),
(149,353,o),
(145,471,qs),
(145,490,ls),
(145,616,o),
(195,693,qs),
(247,773,o),
(339,784,qs),
(352,786,o),
(365,786,qs),
(411,786,o),
(446,762,qs),
(486,735,o),
(498,686,qs),
(500,679,o),
(500,665,qs),
(500,646,o),
(496,612,q),
(570,612,l),
(589,737,l),
(570,782,o),
(517,814,qs),
(453,852,o),
(365,852,qs),
(221,852,o),
(117,739,qs),
(15,627,o),
(15,475,qs),
(15,322,o),
(107,226,qs),
(201,128,o),
(356,128,qs),
(507,128,o),
(592,265,q),
(550,288,l),
(506,245,o),
(480,228,qs),
(441,204,o),
(390,201,qs)
);
}
);
width = 607;
}
);
note = c;
unicode = 99;
},
{
glyphname = d;
lastChange = "2024-07-02 17:45:55 +0000";
layers = (
{
layerId = m01;
shapes = (
{
closed = 1;
nodes = (
(386,203,qs),
(378,202,o),
(369,202,qs),
(291,202,o),
(229,272,qs),
(161,351,o),
(150,471,qs),
(148,490,o),
(148,508,qs),
(148,605,o),
(193,681,qs),
(248,771,o),
(337,779,qs),
(347,780,o),
(356,780,qs),
(436,780,o),
(497,720,qs),
(569,650,o),
(579,533,qs),
(579,527,o),
(580,497,q),
(576,390,o),
(522,298,q),
(465,213,o)
);
},
{
closed = 1;
nodes = (
(515,1141,l),
(580,1110,l),
(580,742,l),
(570,785,l),
(497,852,o),
(369,852,qs),
(362,852,ls),
(215,852,o),
(116,739,qs),
(15,624,o),
(15,449,qs),
(15,308,o),
(110,216,qs),
(200,128,o),
(326,128,qs),
(506,128,o),
(580,291,q),
(590,138,l),
(760,147,l),
(760,199,l),
(695,230,l),
(695,1202,l),
(515,1193,l)
);
}
);
width = 775;
}
);
note = d;
unicode = 100;
},
{
glyphname = e;
lastChange = "2024-07-02 17:45:55 +0000";
layers = (
{
layerId = m01;
shapes = (
{
closed = 1;
nodes = (
(345,791,o),
(358,791,qs),
(458,791,o),
(475,686,qs),
(480,652,o),
(480,620,qs),
(480,602,l),
(160,602,l),
(177,681,o),
(222,730,qs),
(268,781,o),
(331,789,qs)
);
},
{
closed = 1;
nodes = (
(595,565,o),
(595,588,qs),
(595,675,o),
(570,737,qs),
(525,852,o),
(361,852,qs),
(218,852,o),
(116,739,qs),
(15,627,o),
(15,475,qs),
(15,322,o),
(106,226,qs),
(200,128,o),
(356,128,qs),
(507,128,o),
(592,265,q),
(549,288,l),
(506,245,o),
(479,228,qs),
(440,204,o),
(390,201,qs),
(377,201,ls),
(293,201,o),
(225,273,qs),
(149,353,o),
(145,471,qs),
(144,488,o),
(144,501,qs),
(144,528,o),
(147,541,q),
(593,541,l)
);
}
);
width = 616;
}
);
note = e;
unicode = 101;
},
{
glyphname = f;
lastChange = "2024-07-02 17:45:55 +0000";
layers = (
{
layerId = m01;
shapes = (
{
closed = 1;
nodes = (
(470,1113,l),
(418,1202,o),
(308,1202,qs),
(231,1202,o),
(184,1162,qs),
(109,1099,o),
(109,906,qs),
(109,844,l),
(15,833,l),
(15,762,l),
(109,762,l),
(109,223,l),
(24,191,l),
(24,140,l),
(324,140,l),
(324,191,l),
(229,222,l),
(229,762,l),
(430,762,l),
(430,852,l),
(229,848,l),
(229,910,ls),
(229,1108,o),
(291,1132,q),
(302,1135,o),
(313,1135,qs),
(334,1135,o),
(355,1122,qs),
(376,1106,o),
(379,1062,qs),
(380,1051,o),
(380,1038,qs),
(380,1016,o),
(377,988,q),
(451,988,l)
);
}
);
width = 485;
}
);
note = f;
unicode = 102;
},
{
glyphname = g;
lastChange = "2024-07-02 17:45:55 +0000";
layers = (
{
layerId = m01;
shapes = (
{
closed = 1;
nodes = (
(318,372,qs),
(311,372,ls),
(287,372,o),
(262,384,qs),
(230,399,o),
(212,427,qs),
(173,485,o),
(169,573,qs),
(169,591,ls),
(169,667,o),
(199,724,qs),
(231,786,o),
(299,791,qs),
(306,791,ls),
(330,791,o),
(355,780,qs),
(387,764,o),
(405,736,qs),
(444,678,o),
(448,591,qs),
(448,572,ls),
(448,497,o),
(419,440,qs),
(386,377,o)
);
},
{
closed = 1;
nodes = (
(452,824,l),
(397,852,o),
(309,852,qs),
(182,852,o),
(103,765,qs),
(26,680,o),
(26,567,qs),
(26,456,o),
(103,383,qs),
(113,374,o),
(124,365,q),
(73,341,o),
(51,295,qs),
(39,270,o),
(39,247,qs),
(39,232,o),
(44,218,qs),
(60,175,o),
(111,157,qs),
(164,137,o),
(292,128,qs),
(445,118,o),
(511,95,qs),
(589,69,o),
(598,13,qs),
(599,5,o),
(599,-2,qs),
(599,-57,o),
(532,-86,qs),
(478,-109,o),
(395,-109,qs),
(368,-109,o),
(338,-107,q),
(198,-88,o),
(141,-16,qs),
(124,8,o),
(106,69,qs),
(104,76,o),
(104,89,qs),
(104,108,o),
(108,140,q),
(34,140,l),
(15,15,l),
(42,-47,o),
(71,-73,q),
(148,-154,o),
(321,-172,qs),
(364,-176,o),
(403,-176,qs),
(526,-176,o),
(601,-135,qs),
(692,-84,o),
(692,15,qs),
(692,116,o),
(630,166,qs),
(552,229,o),
(361,233,qs),
(349,234,o),
(227,237,qs),
(164,239,o),
(146,251,qs),
(126,265,o),
(126,289,qs),
(126,294,ls),
(129,322,o),
(159,342,q),
(216,311,o),
(309,311,qs),
(436,311,o),
(514,397,qs),
(591,482,o),
(591,596,qs),
(591,693,o),
(532,762,q),
(708,762,l),
(708,852,l)
);
}
);
width = 723;
}
);
note = g;
unicode = 103;
},
{
glyphname = h;
lastChange = "2024-07-02 17:45:55 +0000";
layers = (
{
layerId = m01;
shapes = (
{
closed = 1;
nodes = (
(688,553,ls),
(688,733,o),
(602,806,qs),
(547,852,o),
(464,852,qs),
(442,852,o),
(417,849,qs),
(305,832,o),
(215,689,q),
(215,1202,l),
(30,1193,l),
(30,1141,l),
(95,1110,l),
(95,223,l),
(20,191,l),
(20,140,l),
(290,140,l),
(290,191,l),
(215,222,l),
(215,554,l),
(240,620,o),
(289,685,q),
(346,752,o),
(398,767,qs),
(422,774,o),
(442,774,qs),
(568,774,o),
(568,508,qs),
(568,223,l),
(493,191,l),
(493,140,l),
(763,140,l),
(763,191,l),
(688,222,l)
);
}
);
width = 778;
}
);
note = h;
unicode = 104;
},
{
glyphname = i;
lastChange = "2024-07-02 17:45:55 +0000";
layers = (
{
layerId = m01;
shapes = (
{
closed = 1;
nodes = (
(201,1038,o),
(220,1056,qs),
(238,1074,o),
(238,1100,qs),
(238,1125,ls),
(238,1151,o),
(220,1169,qs),
(201,1188,o),
(175,1188,qs),
(156,1188,ls),
(129,1188,o),
(111,1169,qs),
(93,1151,o),
(93,1125,qs),
(93,1100,ls),
(93,1074,o),
(111,1056,qs),
(129,1038,o),
(156,1038,qs),
(175,1038,ls)
);
},
{
closed = 1;
nodes = (
(45,832,l),
(45,761,l),
(110,750,l),
(110,223,l),
(35,191,l),
(35,140,l),
(305,140,l),
(305,191,l),
(230,222,l),
(230,852,l)
);
}
);
width = 340;
}
);
note = i;
unicode = 105;
},
{
glyphname = j;
lastChange = "2024-07-02 17:45:55 +0000";
layers = (
{
layerId = m01;
shapes = (
{
closed = 1;
nodes = (
(37,761,l),
(147,750,l),
(147,224,ls),
(147,8,o),
(129,-86,o),
(104,-114,qs),
(81,-140,o),
(50,-147,qs),
(40,-150,o),
(31,-150,qs),
(22,-150,o),
(13,-147,q),
(-5,-199,l),
(35,-223,o),
(108,-223,q),
(173,-218,o),
(212,-170,qs),
(252,-121,o),
(267,5,o),
(267,183,qs),
(267,852,l),
(37,832,l)
);
},
{
closed = 1;
nodes = (
(231,1038,o),
(250,1056,qs),
(268,1074,o),
(268,1100,qs),
(268,1125,ls),
(268,1151,o),
(250,1169,qs),
(231,1188,o),
(205,1188,qs),
(186,1188,ls),
(159,1188,o),
(141,1169,qs),
(123,1151,o),
(123,1125,qs),
(123,1100,ls),
(123,1074,o),
(141,1056,qs),
(159,1038,o),
(186,1038,qs),
(205,1038,ls)
);
}
);
width = 318;
}
);
note = j;
unicode = 106;
},
{
glyphname = k;
lastChange = "2024-07-02 17:45:55 +0000";
layers = (
{
layerId = m01;
shapes = (
{
closed = 1;
nodes = (
(618,214,o),
(610,214,qs),
(602,214,o),
(593,217,qs),
(557,230,o),
(536,298,qs),
(503,410,o),
(498,436,q),
(418,508,o),
(371,521,q),
(370,523,l),
(525,752,l),
(616,789,l),
(616,840,l),
(376,840,l),
(376,789,l),
(440,757,l),
(302,530,l),
(205,530,l),
(205,1202,l),
(20,1193,l),
(20,1141,l),
(85,1110,l),
(85,223,l),
(20,191,l),
(20,140,l),
(270,140,l),
(270,191,l),
(205,222,l),
(205,464,l),
(318,464,ls),
(362,464,o),
(400,407,q),
(408,336,o),
(424,269,qs),
(446,194,o),
(460,171,qs),
(486,128,o),
(533,128,qs),
(597,128,o),
(647,152,q),
(625,217,l)
);
}
);
width = 662;
}
);
note = k;
unicode = 107;
},
{
glyphname = l;
lastChange = "2024-07-02 17:45:55 +0000";
layers = (
{
layerId = m01;
shapes = (
{
closed = 1;
nodes = (
(35,1193,l),
(35,1141,l),
(100,1110,l),
(100,223,l),
(15,191,l),
(15,140,l),
(305,140,l),
(305,191,l),
(220,222,l),
(220,1202,l)
);
}
);
width = 320;
}
);
note = l;
unicode = 108;
},
{
glyphname = m;
lastChange = "2024-07-02 17:45:55 +0000";
layers = (
{
layerId = m01;
shapes = (
{
closed = 1;
nodes = (
(1140,552,ls),
(1140,733,o),
(1054,806,qs),
(1000,852,o),
(918,852,qs),
(895,852,o),
(869,848,qs),
(804,839,o),
(744,794,qs),
(685,749,o),
(659,689,q),
(630,789,o),
(555,828,qs),
(511,852,o),
(452,852,qs),
(429,852,o),
(404,848,qs),
(339,839,o),
(287,796,qs),
(236,754,o),
(210,689,q),
(200,852,l),
(25,832,l),
(25,761,l),
(90,750,l),
(90,223,l),
(15,191,l),
(15,140,l),
(285,140,l),
(285,191,l),
(210,222,l),
(210,534,l),
(227,604,o),
(264,664,qs),
(313,742,o),
(380,767,qs),
(411,779,o),
(436,779,qs),
(484,779,o),
(512,737,qs),
(555,673,o),
(555,508,qs),
(555,223,l),
(480,191,l),
(480,140,l),
(750,140,l),
(750,191,l),
(675,222,l),
(675,552,l),
(691,618,o),
(729,673,qs),
(777,742,o),
(845,767,qs),
(876,779,o),
(901,779,qs),
(949,779,o),
(977,737,qs),
(1020,673,o),
(1020,508,qs),
(1020,223,l),
(945,191,l),
(945,140,l),
(1215,140,l),
(1215,191,l),
(1140,222,l)
);
}
);
width = 1230;
}
);
note = m;
unicode = 109;
},
{
glyphname = n;
lastChange = "2024-07-02 17:45:55 +0000";
layers = (
{
layerId = m01;
shapes = (
{
closed = 1;
nodes = (
(709,552,ls),
(709,733,o),
(623,806,qs),
(569,852,o),
(487,852,qs),
(464,852,o),
(438,848,qs),
(375,839,o),
(311,792,qs),
(252,748,o),
(215,689,q),
(205,852,l),
(30,832,l),
(30,761,l),
(95,750,l),
(95,223,l),
(20,191,l),
(20,140,l),
(290,140,l),
(290,191,l),
(215,222,l),
(215,534,l),
(231,601,o),
(276,669,q),
(332,742,o),
(399,767,q),
(423,772,o),
(444,772,qs),
(589,772,o),
(589,531,qs),
(589,223,l),
(514,191,l),
(514,140,l),
(784,140,l),
(784,191,l),
(709,222,l)
);
}
);
width = 799;
}
);
note = n;
unicode = 110;
},
{
glyphname = o;
lastChange = "2024-07-02 17:45:55 +0000";
layers = (
{
layerId = m01;
shapes = (
{
closed = 1;
nodes = (
(389,200,o),
(381,200,qs),
(301,200,o),
(237,272,qs),
(166,351,o),
(155,471,qs),
(153,489,o),
(153,507,qs),
(153,605,o),
(201,681,qs),
(257,771,o),
(347,779,qs),
(355,780,o),
(363,780,qs),
(443,780,o),
(507,708,qs),
(578,629,o),
(589,509,qs),
(591,491,o),
(591,473,qs),
(591,375,o),
(543,299,qs),
(487,209,o),
(397,201,qs)
);
},
{
closed = 1;
nodes = (
(124,736,qs),
(20,622,o),
(20,470,qs),
(20,322,o),
(124,224,qs),
(225,128,o),
(372,128,qs),
(516,128,o),
(620,243,qs),
(724,357,o),
(724,509,qs),
(724,657,o),
(620,756,qs),
(519,852,o),
(372,852,qs),
(229,852,o)
);
}
);
width = 744;
}
);
note = o;
unicode = 111;
},
{
glyphname = p;
lastChange = "2024-07-02 17:45:55 +0000";
layers = (
{
layerId = m01;
shapes = (
{
closed = 1;
nodes = (
(443,200,o),
(434,200,qs),
(354,200,o),
(293,260,qs),
(221,330,o),
(211,447,qs),
(211,453,o),
(210,483,q),
(214,590,o),
(268,682,q),
(325,767,o),
(404,777,qs),
(412,778,o),
(421,778,qs),
(499,778,o),
(561,708,qs),
(629,629,o),
(640,509,qs),
(642,490,o),
(642,472,qs),
(642,375,o),
(597,299,qs),
(542,209,o),
(453,201,qs)
);
},
{
closed = 1;
nodes = (
(210,689,q),
(200,842,l),
(25,833,l),
(25,781,l),
(90,750,l),
(90,-127,l),
(25,-159,l),
(25,-210,l),
(275,-210,l),
(275,-159,l),
(210,-128,l),
(210,208,l),
(305,128,o),
(428,128,qs),
(575,128,o),
(674,241,qs),
(775,356,o),
(775,531,qs),
(775,672,o),
(680,764,qs),
(590,852,o),
(464,852,qs),
(284,852,o)
);
}
);
width = 795;
}
);
note = p;
unicode = 112;
},
{
glyphname = q;
lastChange = "2024-07-02 17:45:55 +0000";
layers = (
{
layerId = m01;
shapes = (
{
closed = 1;
nodes = (
(386,203,qs),
(378,202,o),
(369,202,qs),
(291,202,o),
(230,272,qs),
(161,351,o),
(151,471,qs),
(149,490,o),
(149,509,qs),
(149,605,o),
(193,681,qs),
(249,771,o),
(338,779,qs),
(347,780,o),
(357,780,qs),
(437,780,o),
(498,720,qs),
(570,650,o),
(580,533,qs),
(580,527,o),
(581,497,q),
(577,390,o),
(523,298,q),
(465,213,o)
);
},
{
closed = 1;
nodes = (
(701,840,l),
(650,840,l),
(599,726,l),
(515,852,o),
(362,852,qs),
(215,852,o),
(116,739,qs),
(15,624,o),
(15,449,qs),
(15,308,o),
(110,216,qs),
(200,128,o),
(327,128,qs),
(507,128,o),
(583,291,q),
(583,-128,l),
(518,-159,l),
(518,-210,l),
(766,-210,l),
(766,-159,l),
(701,-127,l)
);
}
);
width = 789;
}
);
note = q;
unicode = 113;
},
{
glyphname = r;
lastChange = "2024-07-02 17:45:55 +0000";
layers = (
{
layerId = m01;
shapes = (
{
closed = 1;
nodes = (
(472,686,qs),
(474,679,o),
(474,665,qs),
(474,646,o),
(470,612,q),
(544,612,l),
(563,737,l),
(547,774,o),
(513,806,qs),
(463,852,o),
(400,852,qs),
(295,852,o),
(215,689,q),
(205,852,l),
(30,833,l),
(30,761,l),
(95,750,l),
(95,223,l),
(20,191,l),
(20,140,l),
(290,140,l),
(290,191,l),
(215,222,l),
(215,534,l),
(241,659,o),
(296,727,q),
(326,758,o),
(358,768,qs),
(371,772,o),
(383,772,qs),
(402,772,o),
(420,762,qs),
(459,742,o)
);
}
);
width = 578;
}
);
note = r;
unicode = 114;
},
{
glyphname = s;
lastChange = "2024-07-02 17:45:55 +0000";
layers = (
{
layerId = m01;
shapes = (
{
closed = 1;
nodes = (
(215,596,qs),
(148,648,o),
(148,703,qs),
(148,739,o),
(175,761,qs),
(203,784,o),
(250,787,qs),
(263,787,ls),
(320,787,o),
(357,762,qs),
(397,735,o),
(409,686,qs),
(411,679,o),
(411,665,qs),
(411,646,o),
(407,612,q),
(481,612,l),
(500,737,l),
(481,782,o),
(428,814,qs),
(364,852,o),
(266,852,qs),
(177,852,o),
(123,825,qs),
(56,791,o),
(43,709,qs),
(40,692,o),
(40,676,qs),
(40,561,o),
(174,480,qs),
(272,418,o),
(312,392,qs),
(375,347,o),
(375,292,qs),
(375,255,o),
(355,229,qs),
(332,200,o),
(289,194,qs),
(273,192,o),
(258,192,qs),
(204,192,o),
(158,218,q),
(118,245,o),
(106,294,qs),
(104,301,o),
(104,315,qs),
(104,334,o),
(108,368,q),
(34,368,l),
(15,243,l),
(34,198,o),
(87,166,qs),
(151,128,o),
(262,128,qs),
(358,128,o),
(411,150,qs),
(488,184,o),
(497,271,qs),
(499,286,o),
(499,300,qs),
(499,364,o),
(466,415,qs),
(435,466,o),
(359,513,q),
(238,580,o)
);
}
);
width = 535;
}
);
note = s;
unicode = 115;
},
{
glyphname = t;
lastChange = "2024-07-02 17:45:55 +0000";
layers = (
{
layerId = m01;
shapes = (
{
closed = 1;
nodes = (
(400,852,l),
(229,848,l),
(229,1023,l),
(150,1014,l),
(110,844,l),
(15,833,l),
(15,762,l),
(109,762,l),
(109,319,ls),
(109,225,o),
(129,191,qs),
(161,134,o),
(231,128,q),
(287,128,o),
(337,152,q),
(315,217,l),
(307,213,o),
(297,213,qs),
(288,213,o),
(276,217,qs),
(246,228,o),
(236,258,qs),
(229,281,o),
(229,338,qs),
(229,762,l),
(400,762,l)
);
}
);
width = 415;
}
);
note = t;
unicode = 116;
},
{
glyphname = u;
lastChange = "2024-07-02 17:45:55 +0000";
layers = (
{
layerId = m01;
shapes = (
{
closed = 1;
nodes = (
(694,852,l),
(499,832,l),
(499,761,l),
(574,750,l),
(574,436,ls),
(574,373,o),
(528,303,qs),
(476,223,o),
(400,203,q),
(380,200,o),
(362,200,qs),
(292,200,o),
(255,252,qs),
(210,316,o),
(210,472,qs),
(210,852,l),
(15,832,l),
(15,761,l),
(90,750,l),
(90,427,ls),
(90,249,o),
(176,176,qs),
(232,128,o),
(321,128,qs),
(344,128,o),
(368,131,qs),
(434,140,o),
(491,184,qs),
(548,229,o),
(574,291,q),
(584,138,l),
(759,147,l),
(759,199,l),
(694,230,l)
);
}
);
width = 779;
}
);
note = u;
unicode = 117;
},
{
glyphname = v;
lastChange = "2024-07-02 17:45:55 +0000";
layers = (
{
layerId = m01;
shapes = (
{
closed = 1;
nodes = (
(512,789,l),
(577,758,l),
(402,241,l),
(408,264,o),
(408,290,qs),
(408,308,o),
(405,327,q),
(226,758,l),
(291,789,l),
(291,840,l),
(15,840,l),
(15,789,l),
(90,757,l),
(364,140,l),
(436,140,l),
(668,757,l),
(743,789,l),
(743,840,l),
(512,840,l)
);
}
);
width = 758;
}
);
note = v;
unicode = 118;
},
{
glyphname = w;
lastChange = "2024-07-02 17:45:55 +0000";
layers = (
{
layerId = m01;
shapes = (
{
closed = 1;
nodes = (
(816,789,l),
(881,758,l),
(721,241,l),
(727,265,o),
(727,292,qs),
(727,309,o),
(725,327,q),
(574,757,l),
(645,789,l),
(645,840,l),
(369,840,l),
(369,789,l),
(444,757,l),
(502,611,l),
(388,241,ls),
(394,263,o),
(394,289,qs),
(394,307,o),
(391,327,q),
(221,757,l),
(291,789,l),
(291,840,l),
(15,840,l),
(15,789,l),
(90,757,l),
(347,140,l),
(430,140,l),
(546,502,l),
(691,140,l),
(763,140,l),
(972,757,l),
(1047,789,l),
(1047,840,l),
(816,840,l)
);
}
);
width = 1062;
}
);
note = w;
unicode = 119;
},
{
glyphname = x;
lastChange = "2024-07-02 17:45:55 +0000";
layers = (
{
layerId = m01;
shapes = (
{
closed = 1;
nodes = (
(474,789,l),
(549,758,l),
(384,555,l),
(235,758,l),
(310,789,l),
(310,840,l),
(20,840,l),
(20,789,l),
(95,757,l),
(310,492,l),
(98,223,l),
(15,191,l),
(15,140,l),
(270,140,l),
(270,191,l),
(195,222,l),
(360,432,l),
(516,222,l),
(441,191,l),
(441,140,l),
(736,140,l),
(736,191,l),
(661,223,l),
(435,499,l),
(649,757,l),
(729,789,l),
(729,840,l),
(474,840,l)
);
}
);
width = 751;
}
);
note = x;
unicode = 120;
},
{
glyphname = y;
lastChange = "2024-07-02 17:45:55 +0000";
layers = (
{
layerId = m01;
shapes = (
{
closed = 1;
nodes = (
(483,789,l),
(562,758,l),
(397,241,l),
(397,346,o),
(225,758,q),
(305,789,l),
(305,840,l),
(15,840,l),
(15,789,l),
(100,757,l),
(349,140,l),
(305,1,o),
(233,-95,qs),
(202,-135,o),
(161,-140,qs),
(157,-141,o),
(152,-141,qs),
(139,-141,o),
(122,-132,q),
(90,-198,l),
(135,-232,o),
(199,-232,qs),
(285,-232,o),
(363,-81,qs),
(388,-30,o),
(440,129,qs),
(645,756,l),
(731,789,l),
(731,840,l),
(483,840,l)
);
}
);
width = 746;
}
);
note = y;
unicode = 121;
},
{
glyphname = z;
lastChange = "2024-07-02 17:45:55 +0000";
layers = (
{
layerId = m01;
shapes = (
{
closed = 1;
nodes = (
(27,612,l),
(98,612,l),
(159,768,l),
(396,768,l),
(15,191,l),
(15,140,l),
(533,140,l),
(558,368,l),
(487,368,l),
(426,212,l),
(169,212,l),
(552,789,l),
(552,840,l),
(52,840,l)
);
}
);
width = 573;
}
);
note = z;
unicode = 122;
},
{
glyphname = braceleft;
lastChange = "2024-07-02 17:45:55 +0000";
layers = (
{
layerId = m01;
shapes = (
{
closed = 1;
nodes = (
(188,736,qs),
(189,723,o),
(189,712,qs),
(189,560,o),
(50,560,q),
(50,512,l),
(189,512,o),
(189,360,qs),
(189,349,o),
(188,336,qs),
(185,265,o),
(139,69,qs),
(132,40,o),
(132,14,qs),
(132,-74,o),
(207,-139,qs),
(290,-210,o),
(392,-210,q),
(392,-160,l),
(315,-139,o),
(280,-88,qs),
(254,-50,o),
(254,1,qs),
(254,34,o),
(264,71,qs),
(294,183,o),
(294,279,qs),
(294,332,o),
(285,380,qs),
(256,536,o),
(139,536,q),
(256,536,o),
(285,692,qs),
(294,740,o),
(294,793,qs),
(294,889,o),
(264,1001,qs),
(254,1038,o),
(254,1071,qs),
(254,1122,o),
(280,1160,qs),
(315,1211,o),
(392,1232,q),
(392,1282,l),
(290,1282,o),
(207,1211,qs),
(132,1146,o),
(132,1058,qs),
(132,1032,o),
(139,1003,qs),
(185,807,o)
);
}
);
width = 442;
}
);
note = braceleft;
unicode = 123;
},
{
glyphname = bar;
lastChange = "2024-07-02 17:45:55 +0000";
layers = (
{
layerId = m01;
shapes = (
{
closed = 1;
nodes = (
(50,-265,l),
(150,-265,l),
(150,1575,l),
(50,1575,l)
);
}
);
width = 200;
}
);
note = bar;
unicode = 124;
},
{
glyphname = braceright;
lastChange = "2024-07-02 17:45:55 +0000";
layers = (
{
layerId = m01;
shapes = (
{
closed = 1;
nodes = (
(310,1032,o),
(310,1058,qs),
(310,1146,o),
(235,1211,qs),
(152,1282,o),
(50,1282,q),
(50,1232,l),
(127,1211,o),
(162,1160,qs),
(188,1122,o),
(188,1071,qs),
(188,1038,o),
(178,1001,qs),
(148,889,o),
(148,793,qs),
(148,740,o),
(157,692,qs),
(186,536,o),
(303,536,q),
(186,536,o),
(157,380,qs),
(148,332,o),
(148,279,qs),
(148,183,o),
(178,71,qs),
(188,34,o),
(188,1,qs),
(188,-50,o),
(162,-88,qs),
(127,-139,o),
(50,-160,q),
(50,-210,l),
(152,-210,o),
(235,-139,qs),
(310,-74,o),
(310,14,qs),
(310,40,o),
(303,69,qs),
(257,265,o),
(254,336,qs),
(253,349,o),
(253,360,qs),
(253,512,o),
(392,512,q),
(392,560,l),
(253,560,o),
(253,712,qs),
(253,723,o),
(254,736,qs),
(257,807,o),
(303,1003,qs)
);
}
);
width = 442;
}
);
note = braceright;
unicode = 125;
},
{
glyphname = asciitilde;
lastChange = "2024-07-02 17:45:55 +0000";
layers = (
{
layerId = m01;
shapes = (
{
closed = 1;
nodes = (
(758,644,o),
(733,613,qs),
(698,568,o),
(647,568,qs),
(628,568,o),
(606,575,qs),
(583,582,o),
(466,624,qs),
(349,665,o),
(345,666,qs),
(283,685,o),
(233,685,qs),
(179,685,o),
(140,663,qs),
(86,633,o),
(63,546,qs),
(51,503,o),
(50,466,q),
(99,454,l),
(106,489,o),
(130,520,qs),
(165,565,o),
(219,565,qs),
(238,565,o),
(260,559,qs),
(285,552,o),
(401,510,qs),
(432,499,o),
(480,482,qs),
(518,468,o),
(521,467,qs),
(581,447,o),
(631,447,qs),
(684,447,o),
(726,470,qs),
(780,501,o),
(803,587,qs),
(815,630,o),
(816,667,q),
(767,679,l)
);
}
);
width = 866;
}
);
note = asciitilde;
unicode = 126;
},
{
glyphname = cent;
lastChange = "2024-07-02 17:45:55 +0000";
layers = (
{
layerId = m01;
shapes = (
{
closed = 1;
nodes = (
(415,773,o),
(431,762,qs),
(471,735,o),
(483,686,qs),
(485,679,o),
(485,665,qs),
(485,646,o),
(481,612,q),
(555,612,l),
(574,737,l),
(555,782,o),
(502,814,qs),
(461,839,o),
(409,847,q),
(461,1135,l),
(384,1135,l),
(333,852,l),
(200,845,o),
(102,739,qs),
(0,627,o),
(0,475,qs),
(0,322,o),
(92,226,qs),
(141,175,o),
(206,151,q),
(160,-105,l),
(237,-105,l),
(280,132,l),
(309,128,o),
(341,128,qs),
(492,128,o),
(577,265,q),
(535,288,l),
(491,245,o),
(465,228,qs),
(426,204,o),
(375,201,qs),
(362,201,ls),
(327,201,o),
(295,214,q),
(397,779,l)
);
},
{
closed = 1;
nodes = (
(218,265,o),
(210,273,qs),
(134,353,o),
(130,471,qs),
(130,490,ls),
(130,616,o),
(180,693,qs),
(231,771,o),
(321,784,q),
(226,258,l)
);
}
);
width = 754;
}
);
note = cent;
unicode = 162;
},
{
glyphname = sterling;
lastChange = "2024-07-02 17:45:55 +0000";
layers = (
{
layerId = m01;
shapes = (
{
closed = 1;
nodes = (
(738,403,o),
(716,347,qs),
(679,256,o),
(622,256,qs),
(609,256,o),
(595,261,qs),
(587,263,o),
(553,284,qs),
(517,306,o),
(490,317,qs),
(450,333,o),
(412,333,qs),
(360,333,o),
(312,304,q),
(384,419,o),
(384,520,qs),
(384,559,o),
(373,596,q),
(640,596,l),
(640,686,l),
(336,686,l),
(249,856,o),
(239,920,qs),
(234,955,o),
(234,983,qs),
(234,1013,o),
(240,1035,qs),
(263,1116,o),
(363,1123,qs),
(373,1124,o),
(382,1124,qs),
(454,1124,o),
(511,1083,qs),
(573,1039,o),
(591,976,q),
(593,965,o),
(593,946,qs),
(593,916,o),
(588,867,q),
(683,867,l),
(711,1031,l),
(652,1121,o),
(551,1166,qs),
(472,1202,o),
(391,1202,qs),
(285,1202,o),
(220,1166,qs),
(159,1132,o),
(125,1066,qs),
(94,1007,o),
(94,938,qs),
(94,925,o),
(95,911,qs),
(105,801,o),
(175,686,q),
(35,686,l),
(35,596,l),
(229,596,l),
(264,529,o),
(264,464,qs),
(264,449,o),
(262,434,qs),
(249,330,o),
(150,179,q),
(150,128,l),
(182,160,o),
(226,189,qs),
(297,234,o),
(352,234,qs),
(368,234,o),
(382,231,qs),
(406,224,o),
(449,196,qs),
(507,156,o),
(509,155,qs),
(556,128,o),
(605,128,qs),
(612,128,ls),
(661,130,o),
(699,157,qs),
(756,196,o),
(788,333,qs),
(805,402,o),
(810,463,q),
(745,463,l)
);
}
);
width = 845;
}
);
note = sterling;
unicode = 163;
},
{
glyphname = currency;
lastChange = "2024-07-02 17:45:55 +0000";
layers = (
{
layerId = m01;
shapes = (
{
closed = 1;
nodes = (
(298,481,qs),
(221,560,o),
(221,673,qs),
(221,785,o),
(298,864,qs),
(374,944,o),
(482,944,qs),
(590,944,o),
(666,864,qs),
(743,785,o),
(743,673,qs),
(743,560,o),
(666,481,qs),
(590,402,o),
(482,402,qs),
(374,402,o)
);
},
{
closed = 1;
nodes = (
(765,442,l),
(847,543,o),
(847,673,qs),
(847,815,o),
(759,911,q),
(917,1018,l),
(828,1107,l),
(721,949,l),
(721,948,l),
(619,1038,o),
(482,1038,qs),
(352,1038,o),
(251,956,q),
(145,1113,l),
(56,1025,l),
(212,919,l),
(117,814,o),
(117,673,qs),
(117,537,o),
(206,434,q),
(50,328,l),
(138,240,l),
(244,396,l),
(347,308,o),
(482,308,qs),
(624,308,o),
(728,403,q),
(835,246,l),
(923,335,l)
);
}
);
width = 973;
}
);
note = currency;
unicode = 164;
},
{
glyphname = brokenbar;
lastChange = "2024-07-02 17:45:55 +0000";
layers = (
{
layerId = m01;
shapes = (
{
closed = 1;
nodes = (
(50,775,l),
(150,775,l),
(150,1575,l),
(50,1575,l)
);
},
{
closed = 1;
nodes = (
(150,-265,l),
(150,535,l),
(50,535,l),
(50,-265,l)
);
}
);
width = 200;
}
);
note = brokenbar;
unicode = 166;
},
{
glyphname = section;
lastChange = "2024-07-02 17:45:55 +0000";
layers = (
{
layerId = m01;
shapes = (
{
closed = 1;
nodes = (
(414,353,qs),
(291,446,o),
(250,503,qs),
(202,569,o),
(202,632,qs),
(202,698,o),
(254,760,q),
(308,697,o),
(401,627,qs),
(524,534,o),
(565,477,qs),
(613,411,o),
(613,348,qs),
(613,282,o),
(561,220,q),
(507,283,o)
);
},
{
closed = 1;
nodes = (
(361,1100,qs),
(390,1111,o),
(427,1111,qs),
(443,1111,o),
(461,1109,qs),
(549,1098,o),
(608,1013,qs),
(651,951,o),
(671,867,q),
(762,867,l),
(753,998,o),
(682,1086,qs),
(589,1202,o),
(412,1202,qs),
(308,1202,o),
(243,1149,qs),
(188,1104,o),
(173,1034,qs),
(166,1002,o),
(166,971,qs),
(166,889,o),
(214,814,q),
(98,758,o),
(73,641,qs),
(66,610,o),
(66,579,qs),
(66,510,o),
(103,447,qs),
(166,340,o),
(360,185,qs),
(438,122,o),
(468,85,qs),
(513,30,o),
(513,-26,qs),
(513,-96,o),
(454,-120,qs),
(425,-131,o),
(389,-131,qs),
(373,-131,o),
(355,-129,qs),
(266,-118,o),
(207,-33,qs),
(164,29,o),
(145,113,q),
(54,113,l),
(62,-18,o),
(133,-106,qs),
(226,-222,o),
(404,-222,qs),
(507,-222,o),
(572,-169,qs),
(627,-124,o),
(642,-54,qs),
(649,-22,o),
(649,10,qs),
(649,92,o),
(602,166,q),
(717,222,o),
(743,339,qs),
(749,370,o),
(749,399,qs),
(749,469,o),
(712,533,qs),
(649,640,o),
(455,795,qs),
(378,858,o),
(347,895,qs),
(302,950,o),
(302,1006,qs),
(302,1076,o)
);
}
);
width = 815;
}
);
note = section;
unicode = 167;
},
{
glyphname = dieresis;
lastChange = "2024-07-02 17:45:55 +0000";
layers = (
{
layerId = m01;
shapes = (
{
closed = 1;
nodes = (
(81,1288,o),
(66,1272,qs),
(50,1257,o),
(50,1236,qs),
(50,1200,ls),
(50,1179,o),
(66,1164,qs),
(81,1148,o),
(102,1148,qs),
(138,1148,ls),
(159,1148,o),
(174,1164,qs),
(190,1179,o),
(190,1200,qs),
(190,1236,ls),
(190,1257,o),
(174,1272,qs),
(159,1288,o),
(138,1288,qs),
(102,1288,ls)
);
},
{
closed = 1;
nodes = (
(409,1288,o),
(394,1272,qs),
(378,1257,o),
(378,1236,qs),
(378,1200,ls),
(378,1179,o),
(394,1164,qs),
(409,1148,o),
(430,1148,qs),
(466,1148,ls),
(487,1148,o),
(502,1164,qs),
(518,1179,o),
(518,1200,qs),
(518,1236,ls),
(518,1257,o),
(502,1272,qs),
(487,1288,o),
(466,1288,qs),
(430,1288,ls)
);
}
);
width = 568;
}
);
note = dieresis;
unicode = 168;
},
{
glyphname = copyright;
lastChange = "2024-07-02 17:45:55 +0000";
layers = (
{
layerId = m01;
shapes = (
{
closed = 1;
nodes = (
(623,373,qs),
(610,373,ls),
(526,373,o),
(458,445,qs),
(382,525,o),
(378,643,qs),
(378,662,ls),
(378,788,o),
(428,865,qs),
(480,945,o),
(572,956,qs),
(585,958,o),
(598,958,qs),
(644,958,o),
(679,934,qs),
(719,907,o),
(731,858,qs),
(733,851,o),
(733,837,qs),
(733,818,o),
(729,784,q),
(803,784,l),
(822,909,l),
(803,954,o),
(750,986,qs),
(686,1024,o),
(598,1024,qs),
(454,1024,o),
(350,911,qs),
(248,799,o),
(248,647,qs),
(248,494,o),
(340,398,qs),
(434,300,o),
(589,300,qs),
(740,300,o),
(825,437,q),
(783,460,l),
(739,417,o),
(713,400,qs),
(674,376,o)
);
},
{
closed = 1;
nodes = (
(241,329,qs),
(105,468,o),
(105,665,qs),
(105,862,o),
(241,1001,qs),
(378,1140,o),
(572,1140,qs),
(766,1140,o),
(903,1001,qs),
(1040,862,o),
(1040,665,qs),
(1040,468,o),
(903,329,qs),
(766,190,o),
(572,190,qs),
(378,190,o)
);
},
{
closed = 1;
nodes = (
(192,1045,qs),
(35,887,o),
(35,665,qs),
(35,443,o),
(192,285,qs),
(350,128,o),
(572,128,qs),
(794,128,o),
(952,285,qs),
(1109,443,o),
(1109,665,qs),
(1109,887,o),
(952,1045,qs),
(794,1202,o),
(572,1202,qs),
(350,1202,o)
);
}
);
width = 1144;
}
);
note = copyright;
unicode = 169;
},
{
glyphname = logicalnot;
lastChange = "2024-07-02 17:45:55 +0000";
layers = (
{
layerId = m01;
shapes = (
{
closed = 1;
nodes = (
(550,485,l),
(550,842,l),
(50,842,l),
(50,722,l),
(430,722,l),
(430,485,l)
);
}
);
width = 600;
}
);
note = logicalnot;
unicode = 172;
},
{
glyphname = registered;
lastChange = "2024-07-02 17:45:55 +0000";
layers = (
{
layerId = m01;
shapes = (
{
closed = 1;
nodes = (
(484,964,o),
(516,964,qs),
(551,964,o),
(588,959,q),
(691,939,o),
(691,829,qs),
(691,820,o),
(690,810,qs),
(680,736,o),
(604,711,qs),
(570,699,o),
(454,699,q),
(454,960,l)
);
},
{
closed = 1;
nodes = (
(778,430,qs),
(758,498,o),
(726,612,q),
(682,653,o),
(623,665,q),
(623,668,l),
(773,680,o),
(789,802,qs),
(790,816,o),
(790,829,qs),
(790,889,o),
(761,935,q),
(716,994,o),
(636,1010,qs),
(600,1018,o),
(461,1018,qs),
(304,1018,l),
(304,984,l),
(368,963,l),
(368,380,l),
(316,359,l),
(316,326,l),
(513,326,l),
(513,359,l),
(454,380,l),
(454,647,l),
(458,647,ls),
(614,647,o),
(640,585,q),
(666,448,o),
(676,411,qs),
(688,372,o),
(714,346,qs),
(742,318,o),
(776,318,qs),
(818,318,o),
(857,334,q),
(843,376,l),
(838,374,o),
(832,374,qs),
(826,374,o),
(819,376,qs),
(792,385,o)
);
},
{
closed = 1;
nodes = (
(241,329,qs),
(105,468,o),
(105,665,qs),
(105,862,o),
(241,1001,qs),
(378,1140,o),
(572,1140,qs),
(766,1140,o),
(903,1001,qs),
(1040,862,o),
(1040,665,qs),
(1040,468,o),
(903,329,qs),
(766,190,o),
(572,190,qs),
(378,190,o)
);
},
{
closed = 1;
nodes = (
(192,1045,qs),
(35,887,o),
(35,665,qs),
(35,443,o),
(192,285,qs),
(350,128,o),
(572,128,qs),
(794,128,o),
(952,285,qs),
(1109,443,o),
(1109,665,qs),
(1109,887,o),
(952,1045,qs),
(794,1202,o),
(572,1202,qs),
(350,1202,o)
);
}
);
width = 1144;
}
);
note = registered;
unicode = 174;
},
{
glyphname = degree;
lastChange = "2024-07-02 17:45:55 +0000";
layers = (
{
layerId = m01;
shapes = (
{
closed = 1;
nodes = (
(113,1217,qs),
(81,1250,o),
(81,1298,qs),
(81,1345,o),
(113,1378,qs),
(145,1411,o),
(190,1411,qs),
(235,1411,o),
(267,1378,qs),
(299,1345,o),
(299,1298,qs),
(299,1250,o),
(267,1217,qs),
(235,1184,o),
(190,1184,qs),
(145,1184,o)
);
},
{
closed = 1;
nodes = (
(66,1421,qs),
(15,1370,o),
(15,1298,qs),
(15,1225,o),
(66,1174,qs),
(118,1123,o),
(190,1123,qs),
(262,1123,o),
(314,1174,qs),
(365,1225,o),
(365,1298,qs),
(365,1370,o),
(314,1421,qs),
(262,1473,o),
(190,1473,qs),
(118,1473,o)
);
}
);
width = 380;
}
);
note = degree;
unicode = 176;
},
{
glyphname = acute;
lastChange = "2024-07-02 17:45:55 +0000";
layers = (
{
layerId = m01;
shapes = (
{
closed = 1;
nodes = (
(35,966,l),
(129,940,l),
(326,1230,l),
(150,1230,l)
);
}
);
width = 361;
}
);
note = acute;
unicode = 180;
},
{
glyphname = mu;
lastChange = "2024-07-02 17:45:55 +0000";
layers = (
{
layerId = m01;
shapes = (
{
closed = 1;
nodes = (
(782,226,o),
(772,226,qs),
(763,226,o),
(754,231,qs),
(729,245,o),
(729,299,qs),
(729,852,l),
(534,832,l),
(534,761,l),
(609,750,l),
(609,436,ls),
(609,383,o),
(560,304,qs),
(499,203,o),
(416,203,qs),
(327,203,o),
(280,322,qs),
(245,411,o),
(245,518,qs),
(245,852,l),
(50,832,l),
(50,761,l),
(125,750,l),
(125,-127,l),
(60,-159,l),
(60,-210,l),
(310,-210,l),
(310,-159,l),
(245,-127,l),
(245,227,l),
(280,128,o),
(418,128,qs),
(478,128,o),
(531,162,qs),
(592,202,o),
(609,268,q),
(610,229,o),
(634,191,qs),
(661,146,o),
(708,141,qs),
(717,140,o),
(726,140,qs),
(772,140,o),
(815,166,q),
(793,231,l)
);
}
);
width = 850;
}
);
note = mu;
unicode = 181;
},
{
glyphname = paragraph;
lastChange = "2024-07-02 17:45:55 +0000";
layers = (
{
layerId = m01;
shapes = (
{
closed = 1;
nodes = (
(226,1190,o),
(138,1102,qs),
(50,1014,o),
(50,890,qs),
(50,766,o),
(138,678,qs),
(226,590,o),
(350,590,qs),
(424,590,l),
(424,-116,l),
(524,-116,l),
(524,1113,l),
(670,1113,l),
(670,-116,l),
(770,-116,l),
(770,1107,l),
(850,1139,l),
(850,1190,l),
(350,1190,ls)
);
}
);
width = 900;
}
);
note = paragraph;
unicode = 182;
},
{
glyphname = cedilla;
lastChange = "2024-07-02 17:45:55 +0000";
layers = (
{
layerId = m01;
shapes = (
{
closed = 1;
nodes = (
(68,140,l),
(35,31,l),
(95,31,o),
(95,-23,qs),
(95,-63,o),
(60,-85,qs),
(42,-95,o),
(25,-98,q),
(35,-140,l),
(59,-139,o),
(87,-129,qs),
(144,-109,o),
(169,-63,qs),
(184,-37,o),
(184,-10,qs),
(184,4,o),
(180,18,qs),
(166,64,o),
(116,70,q),
(132,140,l)
);
}
);
width = 207;
}
);
note = cedilla;
unicode = 184;
},
{
glyphname = AE;
lastChange = "2024-07-02 17:45:55 +0000";
layers = (
{
layerId = m01;
shapes = (
{
closed = 1;
nodes = (
(472,700,l),
(652,1113,l),
(652,700,l)
);
},
{
closed = 1;
nodes = (
(314,140,l),
(314,191,l),
(234,223,l),
(426,623,l),
(652,623,l),
(652,222,l),
(572,191,l),
(572,140,l),
(1253,140,l),
(1288,463,l),
(1197,463,l),
(1126,217,l),
(782,217,l),
(782,623,l),
(944,623,l),
(1005,497,l),
(1046,497,l),
(1036,662,l),
(1046,826,l),
(1005,826,l),
(944,700,l),
(782,700,l),
(782,1113,l),
(1126,1113,l),
(1197,867,l),
(1288,867,l),
(1253,1190,l),
(600,1190,l),
(115,223,l),
(35,191,l),
(35,140,l)
);
}
);
width = 1323;
}
);
note = AE;
unicode = 198;
},
{
glyphname = Thorn;
lastChange = "2024-07-02 17:45:55 +0000";
layers = (
{
layerId = m01;
shapes = (
{
closed = 1;
nodes = (
(390,1139,l),
(390,1190,l),
(50,1190,l),
(50,1139,l),
(160,1107,l),
(162,223,l),
(62,191,l),
(62,140,l),
(392,140,l),
(392,191,l),
(293,223,l),
(291,908,l),
(324,913,o),
(358,913,qs),
(410,913,o),
(466,902,qs),
(620,866,o),
(636,722,qs),
(638,700,o),
(638,680,qs),
(638,568,o),
(571,517,qs),
(506,468,o),
(353,468,q),
(340,410,l),
(399,403,o),
(451,403,qs),
(576,403,o),
(656,445,qs),
(793,517,o),
(793,693,qs),
(793,920,o),
(557,975,qs),
(493,990,o),
(291,990,q),
(290,989,l),
(290,1107,l)
);
}
);
width = 814;
}
);
note = Thorn;
unicode = 222;
},
{
glyphname = germandbls;
lastChange = "2024-07-02 17:45:55 +0000";
layers = (
{
layerId = m01;
shapes = (
{
closed = 1;
nodes = (
(664,557,qs),
(580,616,o),
(578,617,q),
(539,648,o),
(539,671,qs),
(539,691,o),
(563,717,qs),
(565,719,o),
(617,769,qs),
(701,850,o),
(718,931,qs),
(724,960,o),
(724,986,qs),
(724,1054,o),
(685,1109,qs),
(619,1202,o),
(460,1202,qs),
(335,1202,o),
(245,1121,qs),
(147,1033,o),
(147,894,qs),
(147,224,l),
(50,189,l),
(50,141,l),
(277,141,l),
(277,905,ls),
(277,1005,o),
(323,1067,qs),
(372,1132,o),
(452,1132,qs),
(536,1132,o),
(574,1065,qs),
(596,1028,o),
(596,982,qs),
(596,944,o),
(581,901,qs),
(571,872,o),
(504,800,qs),
(445,735,o),
(442,686,qs),
(442,675,ls),
(442,588,o),
(533,500,qs),
(543,490,o),
(571,465,qs),
(594,444,o),
(606,432,qs),
(643,395,o),
(651,365,qs),
(659,336,o),
(659,310,qs),
(659,257,o),
(624,223,qs),
(596,196,o),
(558,196,qs),
(526,196,o),
(487,216,q),
(485,227,o),
(485,246,qs),
(485,276,o),
(490,325,q),
(395,325,l),
(367,161,l),
(431,128,o),
(533,128,qs),
(551,128,o),
(571,129,qs),
(686,136,o),
(751,214,qs),
(803,278,o),
(803,356,qs),
(803,369,o),
(802,382,qs),
(792,469,o)
);
}
);
width = 847;
}
);
note = germandbls;
unicode = 223;
},
{
glyphname = ae;
lastChange = "2024-07-02 17:45:55 +0000";
layers = (
{
layerId = m01;
shapes = (
{
closed = 1;
nodes = (
(722,789,qs),
(736,791,o),
(749,791,qs),
(849,791,o),
(866,686,qs),
(871,652,o),
(871,620,qs),
(871,602,l),
(551,602,l),
(568,681,o),
(613,730,qs),
(659,781,o)
);
},
{
closed = 1;
nodes = (
(363,236,o),
(297,216,qs),
(274,209,o),
(253,209,qs),
(229,209,o),
(208,218,qs),
(164,237,o),
(162,288,qs),
(162,293,ls),
(162,378,o),
(254,428,qs),
(284,445,o),
(409,484,q),
(409,296,l)
);
},
{
closed = 1;
nodes = (
(259,852,qs),
(190,852,o),
(125,814,qs),
(66,779,o),
(48,737,q),
(68,612,l),
(139,612,l),
(137,640,o),
(137,659,qs),
(137,677,o),
(139,686,qs),
(150,732,o),
(180,759,qs),
(210,785,o),
(264,785,qs),
(342,785,o),
(376,736,qs),
(410,687,o),
(410,576,qs),
(410,562,o),
(409,546,q),
(225,497,o),
(180,475,qs),
(25,399,o),
(25,273,qs),
(25,266,o),
(26,258,qs),
(30,196,o),
(69,163,qs),
(109,128,o),
(184,128,qs),
(353,128,o),
(471,257,q),
(483,241,o),
(497,226,qs),
(591,128,o),
(747,128,qs),
(898,128,o),
(983,265,q),
(940,288,l),
(897,245,o),
(870,228,qs),
(831,204,o),
(781,201,qs),
(768,201,ls),
(684,201,o),
(616,273,qs),
(540,353,o),
(536,471,qs),
(535,488,o),
(535,501,qs),
(535,528,o),
(538,541,q),
(984,541,l),
(986,565,o),
(986,588,qs),
(986,675,o),
(961,737,qs),
(916,852,o),
(752,852,qs),
(609,852,o),
(507,739,qs),
(500,731,o),
(494,724,q),
(435,852,o)
);
}
);
width = 1011;
}
);
note = ae;
unicode = 230;
},
{
glyphname = eth;
lastChange = "2024-07-02 17:45:55 +0000";
layers = (
{
layerId = m01;
shapes = (
{
closed = 1;
nodes = (
(389,200,o),
(381,200,qs),
(302,200,o),
(244,270,qs),
(181,345,o),
(170,466,qs),
(168,487,o),
(168,507,qs),
(168,602,o),
(208,672,qs),
(258,759,o),
(347,766,qs),
(355,767,o),
(364,767,qs),
(441,767,o),
(497,699,qs),
(557,626,o),
(568,504,qs),
(570,482,o),
(570,461,qs),
(570,366,o),
(533,297,qs),
(485,209,o),
(397,201,qs)
);
},
{
closed = 1;
nodes = (
(559,1229,l),
(450,1132,l),
(385,1164,o),
(285,1190,q),
(263,1135,l),
(339,1114,o),
(393,1082,q),
(298,999,l),
(340,950,l),
(447,1044,l),
(589,925,o),
(599,683,q),
(564,763,o),
(490,805,qs),
(429,840,o),
(362,840,qs),
(220,840,o),
(126,728,qs),
(35,619,o),
(35,465,qs),
(35,316,o),
(131,221,qs),
(226,128,o),
(372,128,qs),
(520,128,o),
(610,226,qs),
(707,332,o),
(716,531,qs),
(717,561,o),
(717,590,qs),
(717,954,o),
(508,1098,q),
(602,1181,l)
);
}
);
width = 769;
}
);
note = eth;
unicode = 240;
},
{
glyphname = oslash;
lastChange = "2024-07-02 17:45:55 +0000";
layers = (
{
layerId = m01;
shapes = (
{
closed = 1;
nodes = (
(262,6,l),
(303,133,l),
(334,128,o),
(367,128,qs),
(511,128,o),
(615,243,qs),
(719,357,o),
(719,509,qs),
(719,657,o),
(615,756,qs),
(573,795,o),
(524,819,q),
(582,998,l),
(472,998,l),
(424,848,l),
(396,852,o),
(367,852,qs),
(224,852,o),
(119,736,qs),
(15,622,o),
(15,470,qs),
(15,322,o),
(119,224,qs),
(158,187,o),
(203,165,q),
(152,6,l)
);
},
{
closed = 1;
nodes = (
(502,708,qs),
(573,629,o),
(584,509,qs),
(586,491,o),
(586,473,qs),
(586,375,o),
(538,299,qs),
(482,209,o),
(392,201,qs),
(384,200,o),
(376,200,qs),
(351,200,o),
(327,207,q),
(492,719,l),
(497,714,o)
);
},
{
closed = 1;
nodes = (
(232,272,qs),
(161,351,o),
(150,471,qs),
(148,489,o),
(148,507,qs),
(148,605,o),
(196,681,qs),
(252,771,o),
(342,779,qs),
(350,780,o),
(358,780,qs),
(380,780,o),
(400,775,q),
(236,267,l),
(234,270,o)
);
}
);
width = 734;
}
);
note = oslash;
unicode = 248;
},
{
glyphname = thorn;
lastChange = "2024-07-02 17:45:55 +0000";
layers = (
{
layerId = m01;
shapes = (
{
closed = 1;
nodes = (
(15,-159,l),
(15,-210,l),
(305,-210,l),
(305,-159,l),
(220,-128,l),
(220,208,l),
(315,128,o),
(438,128,qs),
(585,128,o),
(684,241,qs),
(785,356,o),
(785,531,qs),
(785,672,o),
(690,764,qs),
(600,852,o),
(474,852,qs),
(294,852,o),
(220,689,q),
(220,1202,l),
(35,1193,l),
(35,1141,l),
(100,1110,l),
(100,-127,l)
);
},
{
closed = 1;
nodes = (
(268,682,q),
(325,767,o),
(404,777,qs),
(412,778,o),
(421,778,qs),
(499,778,o),
(561,708,qs),
(629,629,o),
(640,509,qs),
(642,490,o),
(642,472,qs),
(642,375,o),
(597,299,qs),
(542,209,o),
(453,201,qs),
(443,200,o),
(434,200,qs),
(354,200,o),
(293,260,qs),
(239,312,o),
(220,391,q),
(220,561,l),
(234,624,o)
);
}
);
width = 800;
}
);
note = thorn;
unicode = 254;
},
{
glyphname = dotlessi;
lastChange = "2024-07-02 17:45:55 +0000";
layers = (
{
layerId = m01;
shapes = (
{
closed = 1;
nodes = (
(45,832,l),
(45,761,l),
(110,750,l),
(110,223,l),
(35,191,l),
(35,140,l),
(305,140,l),
(305,191,l),
(230,222,l),
(230,852,l)
);
}
);
width = 340;
}
);
note = dotlessi;
unicode = 305;
},
{
glyphname = circumflex;
lastChange = "2024-07-02 17:45:55 +0000";
layers = (
{
layerId = m01;
shapes = (
{
closed = 1;
nodes = (
(387,1190,l),
(361,1190,l),
(205,890,l),
(295,890,l),
(374,1054,l),
(453,890,l),
(543,890,l)
);
}
);
width = 748;
}
);
note = circumflex;
unicode = 710;
},
{
glyphname = caron;
lastChange = "2024-07-02 17:45:55 +0000";
layers = (
{
layerId = m01;
shapes = (
{
closed = 1;
nodes = (
(374,1026,l),
(295,1190,l),
(205,1190,l),
(361,890,l),
(387,890,l),
(543,1190,l),
(453,1190,l)
);
}
);
width = 748;
}
);
note = caron;
unicode = 711;
},
{
glyphname = breve;
lastChange = "2024-07-02 17:45:55 +0000";
layers = (
{
layerId = m01;
shapes = (
{
closed = 1;
nodes = (
(113,1217,qs),
(81,1250,o),
(81,1298,q),
(15,1298,l),
(15,1225,o),
(66,1174,qs),
(118,1123,o),
(190,1123,qs),
(262,1123,o),
(314,1174,qs),
(365,1225,o),
(365,1298,q),
(299,1298,l),
(299,1250,o),
(267,1217,qs),
(235,1184,o),
(190,1184,qs),
(145,1184,o)
);
}
);
width = 380;
}
);
note = breve;
unicode = 728;
},
{
glyphname = ring;
lastChange = "2024-07-02 17:45:55 +0000";
layers = (
{
layerId = m01;
shapes = (
{
closed = 1;
nodes = (
(153,1240,qs),
(130,1264,o),
(130,1299,qs),
(130,1333,o),
(153,1357,qs),
(177,1382,o),
(210,1382,qs),
(243,1382,o),
(267,1357,qs),
(290,1333,o),
(290,1299,qs),
(290,1264,o),
(267,1240,qs),
(243,1216,o),
(210,1216,qs),
(177,1216,o)
);
},
{
closed = 1;
nodes = (
(104,1405,qs),
(60,1361,o),
(60,1299,qs),
(60,1236,o),
(104,1192,qs),
(148,1149,o),
(210,1149,qs),
(272,1149,o),
(316,1192,qs),
(360,1236,o),
(360,1299,qs),
(360,1361,o),
(316,1405,qs),
(272,1449,o),
(210,1449,qs),
(148,1449,o)
);
}
);
width = 420;
}
);
note = ring;
unicode = 730;
},
{
glyphname = ogonek;
lastChange = "2024-07-02 17:45:55 +0000";
layers = (
{
layerId = m01;
shapes = (
{
closed = 1;
nodes = (
(131,-138,o),
(131,-15,qs),
(131,0,o),
(133,17,qs),
(137,48,o),
(162,88,qs),
(186,125,o),
(209,140,q),
(121,140,l),
(97,127,o),
(70,91,qs),
(40,51,o),
(33,16,qs),
(28,-12,o),
(28,-36,qs),
(28,-95,o),
(59,-134,qs),
(104,-190,o),
(205,-190,qs),
(239,-190,o),
(263,-186,q),
(248,-138,l)
);
}
);
width = 278;
}
);
note = ogonek;
unicode = 731;
},
{
glyphname = tilde;
lastChange = "2024-07-02 17:45:55 +0000";
layers = (
{
layerId = m01;
shapes = (
{
closed = 1;
nodes = (
(571,1279,o),
(552,1256,qs),
(526,1222,o),
(487,1222,qs),
(473,1222,o),
(456,1227,qs),
(439,1232,o),
(350,1264,qs),
(261,1295,o),
(258,1296,qs),
(211,1310,o),
(174,1310,qs),
(133,1310,o),
(103,1293,qs),
(62,1271,o),
(45,1205,qs),
(36,1172,o),
(35,1144,q),
(72,1135,l),
(77,1162,o),
(96,1185,qs),
(122,1219,o),
(163,1219,qs),
(177,1219,o),
(194,1215,qs),
(213,1209,o),
(301,1178,qs),
(324,1169,o),
(361,1156,qs),
(389,1146,o),
(392,1145,qs),
(437,1130,o),
(475,1130,qs),
(515,1130,o),
(547,1147,qs),
(588,1171,o),
(605,1236,qs),
(614,1268,o),
(615,1296,q),
(578,1305,l)
);
}
);
width = 650;
}
);
note = tilde;
unicode = 732;
},
{
glyphname = endash;
lastChange = "2024-07-02 17:45:55 +0000";
layers = (
{
layerId = m01;
shapes = (
{
closed = 1;
nodes = (
(55,499,l),
(755,499,l),
(755,584,l),
(55,584,l)
);
}
);
width = 810;
}
);
note = endash;
unicode = 8211;
},
{
glyphname = emdash;
lastChange = "2024-07-02 17:45:55 +0000";
layers = (
{
layerId = m01;
shapes = (
{
closed = 1;
nodes = (
(55,502,l),
(955,502,l),
(955,582,l),
(55,582,l)
);
}
);
width = 1010;
}
);
note = emdash;
unicode = 8212;
},
{
glyphname = quoteleft;
lastChange = "2024-07-02 17:45:55 +0000";
layers = (
{
layerId = m01;
shapes = (
{
closed = 1;
nodes = (
(50,987,o),
(67,970,qs),
(83,954,o),
(106,954,qs),
(144,954,ls),
(167,954,o),
(183,970,qs),
(200,987,o),
(200,1010,qs),
(200,1048,ls),
(200,1071,o),
(183,1087,qs),
(167,1104,o),
(144,1104,qs),
(142,1104,l),
(143,1171,o),
(154,1185,qs),
(165,1200,o),
(178,1200,qs),
(180,1200,o),
(183,1199,q),
(190,1234,l),
(174,1238,o),
(160,1238,qs),
(124,1238,o),
(95,1213,qs),
(57,1179,o),
(51,1100,qs),
(50,1090,o),
(50,1042,qs),
(50,1010,ls)
);
}
);
width = 250;
}
);
note = quoteleft;
unicode = 8216;
},
{
glyphname = quoteright;
lastChange = "2024-07-02 17:45:55 +0000";
layers = (
{
layerId = m01;
shapes = (
{
closed = 1;
nodes = (
(200,1205,o),
(183,1222,qs),
(167,1238,o),
(144,1238,qs),
(106,1238,ls),
(83,1238,o),
(67,1222,qs),
(50,1205,o),
(50,1182,qs),
(50,1144,ls),
(50,1121,o),
(67,1105,qs),
(83,1088,o),
(106,1088,qs),
(108,1088,l),
(107,1021,o),
(96,1007,qs),
(85,992,o),
(72,992,qs),
(70,992,o),
(67,993,q),
(60,958,l),
(76,954,o),
(90,954,qs),
(126,954,o),
(155,979,qs),
(193,1013,o),
(199,1092,qs),
(200,1102,o),
(200,1150,qs),
(200,1182,ls)
);
}
);
width = 250;
}
);
note = quoteright;
unicode = 8217;
},
{
glyphname = quotesinglbase;
lastChange = "2024-07-02 17:45:55 +0000";
layers = (
{
layerId = m01;
shapes = (
{
closed = 1;
nodes = (
(250,185,o),
(233,202,qs),
(217,218,o),
(194,218,qs),
(156,218,ls),
(133,218,o),
(117,202,qs),
(100,185,o),
(100,162,qs),
(100,124,ls),
(100,101,o),
(117,85,qs),
(133,68,o),
(156,68,qs),
(158,68,l),
(157,1,o),
(146,-13,qs),
(135,-28,o),
(122,-28,qs),
(120,-28,o),
(117,-27,q),
(110,-62,l),
(126,-66,o),
(140,-66,qs),
(176,-66,o),
(205,-41,qs),
(243,-7,o),
(249,72,qs),
(250,82,o),
(250,130,qs),
(250,162,ls)
);
}
);
width = 400;
}
);
note = quotesinglbase;
unicode = 8218;
},
{
glyphname = dagger;
lastChange = "2024-07-02 17:45:55 +0000";
layers = (
{
layerId = m01;
shapes = (
{
closed = 1;
nodes = (
(245,851,l),
(165,883,l),
(35,883,l),
(35,768,l),
(165,768,l),
(245,800,l),
(245,140,l),
(285,-210,l),
(336,-210,l),
(375,140,l),
(375,800,l),
(455,768,l),
(585,768,l),
(585,883,l),
(455,883,l),
(375,851,l),
(375,1190,l),
(245,1190,l)
);
}
);
width = 620;
}
);
note = dagger;
unicode = 8224;
},
{
glyphname = daggerdbl;
lastChange = "2024-07-02 17:45:55 +0000";
layers = (
{
layerId = m01;
shapes = (
{
closed = 1;
nodes = (
(245,851,l),
(165,883,l),
(35,883,l),
(35,768,l),
(165,768,l),
(245,800,l),
(245,435,l),
(165,467,l),
(35,467,l),
(35,351,l),
(165,351,l),
(245,384,l),
(245,140,l),
(284,-210,l),
(335,-210,l),
(375,140,l),
(375,384,l),
(455,351,l),
(585,351,l),
(585,467,l),
(455,467,l),
(375,435,l),
(375,800,l),
(455,768,l),
(585,768,l),
(585,883,l),
(455,883,l),
(375,851,l),
(375,1190,l),
(245,1190,l)
);
}
);
width = 620;
}
);
note = daggerdbl;
unicode = 8225;
},
{
glyphname = bullet;
lastChange = "2024-07-02 17:45:55 +0000";
layers = (
{
layerId = m01;
shapes = (
{
closed = 1;
nodes = (
(196,828,o),
(50,681,o),
(50,578,qs),
(50,474,o),
(196,328,o),
(300,328,qs),
(404,328,o),
(550,474,o),
(550,578,qs),
(550,681,o),
(404,828,o),
(300,828,qs)
);
}
);
width = 600;
}
);
note = bullet;
unicode = 8226;
},
{
glyphname = guilsinglleft;
lastChange = "2024-07-02 17:45:55 +0000";
layers = (
{
layerId = m01;
shapes = (
{
closed = 1;
nodes = (
(35,516,l),
(35,465,l),
(256,190,l),
(286,241,l),
(196,490,l),
(286,739,l),
(256,790,l)
);
}
);
width = 321;
}
);
note = guilsinglleft;
unicode = 8249;
},
{
glyphname = guilsinglright;
lastChange = "2024-07-02 17:45:55 +0000";
layers = (
{
layerId = m01;
shapes = (
{
closed = 1;
nodes = (
(125,490,l),
(35,241,l),
(65,190,l),
(286,465,l),
(286,516,l),
(65,790,l),
(35,739,l)
);
}
);
width = 321;
}
);
note = guilsinglright;
unicode = 8250;
},
{
glyphname = fraction;
lastChange = "2024-07-02 17:45:55 +0000";
layers = (
{
layerId = m01;
shapes = (
{
closed = 1;
nodes = (
(25,55,l),
(135,55,l),
(775,1255,l),
(665,1255,l)
);
}
);
width = 800;
}
);
note = fraction;
unicode = (8260,8725);
},
{
glyphname = lira;
lastChange = "2024-07-02 17:45:55 +0000";
layers = (
{
layerId = m01;
shapes = (
{
closed = 1;
nodes = (
(738,403,o),
(716,347,qs),
(679,256,o),
(622,256,qs),
(609,256,o),
(595,261,qs),
(587,263,o),
(553,284,qs),
(517,306,o),
(490,317,qs),
(450,333,o),
(412,333,qs),
(360,333,o),
(312,304,q),
(358,378,o),
(375,443,q),
(640,443,l),
(640,533,l),
(384,533,l),
(382,564,o),
(373,596,q),
(640,596,l),
(640,686,l),
(336,686,l),
(249,856,o),
(239,920,qs),
(234,955,o),
(234,983,qs),
(234,1013,o),
(240,1035,qs),
(263,1116,o),
(363,1123,qs),
(373,1124,o),
(382,1124,qs),
(454,1124,o),
(511,1083,qs),
(573,1039,o),
(591,976,q),
(593,965,o),
(593,946,qs),
(593,916,o),
(588,867,q),
(683,867,l),
(711,1031,l),
(652,1121,o),
(551,1166,qs),
(472,1202,o),
(391,1202,qs),
(285,1202,o),
(220,1166,qs),
(159,1132,o),
(125,1066,qs),
(94,1007,o),
(94,938,qs),
(94,925,o),
(95,911,qs),
(105,801,o),
(175,686,q),
(35,686,l),
(35,596,l),
(229,596,l),
(246,562,o),
(255,533,q),
(35,533,l),
(35,443,l),
(263,443,l),
(253,336,o),
(150,179,q),
(150,128,l),
(182,160,o),
(226,189,qs),
(297,234,o),
(352,234,qs),
(368,234,o),
(382,231,qs),
(406,224,o),
(449,196,qs),
(507,156,o),
(509,155,qs),
(556,128,o),
(605,128,qs),
(612,128,ls),
(661,130,o),
(699,157,qs),
(756,196,o),
(788,333,qs),
(805,402,o),
(810,463,q),
(745,463,l)
);
}
);
width = 845;
}
);
note = lira;
unicode = 8356;
},
{
glyphname = Euro;
lastChange = "2024-07-02 17:45:55 +0000";
layers = (
{
layerId = m01;
shapes = (
{
closed = 1;
nodes = (
(326,857,o),
(387,970,q),
(468,1093,o),
(612,1119,q),
(632,1121,o),
(650,1121,qs),
(728,1121,o),
(782,1083,qs),
(844,1039,o),
(862,976,q),
(864,965,o),
(864,946,qs),
(864,916,o),
(859,867,q),
(954,867,l),
(982,1031,l),
(953,1098,o),
(875,1145,qs),
(780,1202,o),
(649,1202,qs),
(448,1202,o),
(302,1034,qs),
(160,871,o),
(160,643,qs),
(160,422,o),
(294,274,q),
(436,128,o),
(636,128,qs),
(860,128,o),
(986,331,q),
(928,361,l),
(860,292,o),
(821,267,qs),
(759,226,o),
(685,221,qs),
(676,220,o),
(667,220,qs),
(544,220,o),
(429,335,q),
(330,454,o),
(322,624,qs),
(321,698,l)
);
},
{
closed = 1;
nodes = (
(35,727,l),
(735,727,l),
(735,817,l),
(35,817,l)
);
},
{
closed = 1;
nodes = (
(35,517,l),
(735,517,l),
(735,607,l),
(35,607,l)
);
}
);
width = 1021;
}
);
note = Euro;
unicode = 8364;
},
{
glyphname = partialdiff;
lastChange = "2024-07-02 17:45:55 +0000";
layers = (
{
layerId = m01;
shapes = (
{
closed = 1;
nodes = (
(369,210,o),
(362,210,qs),
(285,210,o),
(234,278,qs),
(182,349,o),
(182,462,qs),
(182,470,ls),
(183,588,o),
(239,670,qs),
(296,755,o),
(383,762,qs),
(392,763,o),
(400,763,qs),
(475,763,o),
(523,697,qs),
(573,626,o),
(573,512,qs),
(573,507,ls),
(571,387,o),
(518,304,qs),
(463,219,o),
(377,211,qs)
);
},
{
closed = 1;
nodes = (
(246,1116,q),
(282,1098,l),
(321,1129,o),
(366,1140,qs),
(377,1143,o),
(389,1143,qs),
(416,1143,o),
(447,1127,qs),
(496,1102,o),
(535,1048,qs),
(622,929,o),
(622,737,qs),
(622,710,o),
(620,681,q),
(594,759,o),
(527,800,qs),
(470,834,o),
(404,834,qs),
(266,834,o),
(164,725,qs),
(65,619,o),
(50,469,qs),
(48,447,o),
(48,426,qs),
(48,309,o),
(119,231,qs),
(203,140,o),
(345,140,qs),
(489,140,o),
(587,236,qs),
(692,339,o),
(719,533,qs),
(734,635,o),
(734,724,qs),
(734,940,o),
(645,1074,qs),
(590,1156,o),
(512,1186,qs),
(470,1202,o),
(426,1202,qs),
(390,1202,o),
(352,1191,qs),
(279,1169,o)
);
}
);
width = 805;
}
);
note = partialdiff;
unicode = 8706;
},
{
glyphname = Delta;
lastChange = "2024-07-02 17:45:55 +0000";
layers = (
{
layerId = m01;
shapes = (
{
closed = 1;
nodes = (
(1035,193,l),
(1035,140,l),
(35,140,l),
(35,193,l),
(38,193,l),
(493,1190,l),
(544,1190,l)
);
},
{
closed = 1;
nodes = (
(856,227,l),
(497,1000,l),
(155,227,l)
);
}
);
width = 1070;
}
);
note = Delta;
unicode = 8710;
},
{
glyphname = product;
lastChange = "2024-07-02 17:45:55 +0000";
layers = (
{
layerId = m01;
shapes = (
{
closed = 1;
nodes = (
(50,1139,l),
(130,1107,l),
(130,-117,l),
(50,-149,l),
(50,-200,l),
(340,-200,l),
(340,-149,l),
(260,-117,l),
(260,1113,l),
(689,1113,l),
(689,-117,l),
(609,-149,l),
(609,-200,l),
(899,-200,l),
(899,-149,l),
(819,-117,l),
(819,1107,l),
(899,1139,l),
(899,1190,l),
(50,1190,l)
);
}
);
width = 949;
}
);
note = product;
unicode = 8719;
},
{
glyphname = summation;
lastChange = "2024-07-02 17:45:55 +0000";
layers = (
{
layerId = m01;
shapes = (
{
closed = 1;
nodes = (
(50,1139,l),
(394,534,l),
(50,-79,l),
(50,-130,l),
(831,-130,l),
(866,193,l),
(775,193,l),
(704,-53,l),
(222,-53,l),
(529,534,l),
(222,1113,l),
(704,1113,l),
(775,867,l),
(866,867,l),
(831,1190,l),
(50,1190,l)
);
}
);
width = 916;
}
);
note = summation;
unicode = 8721;
},
{
glyphname = minus;
lastChange = "2024-07-02 17:45:55 +0000";
layers = (
{
layerId = m01;
shapes = (
{
closed = 1;
nodes = (
(50,587,l),
(650,587,l),
(650,677,l),
(50,677,l)
);
}
);
width = 700;
}
);
note = minus;
unicode = 8722;
},
{
glyphname = radical;
lastChange = "2024-07-02 17:45:55 +0000";
layers = (
{
layerId = m01;
shapes = (
{
closed = 1;
nodes = (
(999,1231,l),
(703,1231,l),
(441,140,l),
(285,140,l),
(115,717,l),
(35,749,l),
(35,800,l),
(236,800,l),
(378,300,l),
(633,1351,l),
(999,1351,l)
);
}
);
width = 1034;
}
);
note = radical;
unicode = 8730;
},
{
glyphname = infinity;
lastChange = "2024-07-02 17:45:55 +0000";
layers = (
{
layerId = m01;
shapes = (
{
closed = 1;
nodes = (
(1344,599,qs),
(1276,569,o),
(1160,569,qs),
(1059,569,o),
(966,589,qs),
(868,611,o),
(811,650,q),
(838,667,o),
(864,687,qs),
(937,742,o),
(1004,768,qs),
(1077,797,o),
(1163,800,qs),
(1177,801,o),
(1191,801,qs),
(1313,801,o),
(1374,760,qs),
(1401,742,o),
(1412,718,qs),
(1418,704,o),
(1418,690,qs),
(1418,683,o),
(1417,677,qs),
(1408,628,o)
);
},
{
closed = 1;
nodes = (
(538,632,qs),
(465,603,o),
(379,600,qs),
(351,600,ls),
(229,600,o),
(168,640,qs),
(141,658,o),
(130,682,qs),
(124,696,o),
(124,710,qs),
(124,717,o),
(125,723,qs),
(134,772,o),
(198,801,qs),
(266,831,o),
(382,831,qs),
(483,831,o),
(576,811,qs),
(674,789,o),
(731,750,q),
(704,733,o),
(678,713,qs),
(605,658,o)
);
},
{
closed = 1;
nodes = (
(969,863,qs),
(864,841,o),
(771,779,q),
(716,832,o),
(612,865,qs),
(511,896,o),
(396,900,qs),
(367,900,ls),
(203,900,o),
(116,848,qs),
(35,800,o),
(35,716,qs),
(35,626,o),
(136,573,qs),
(234,522,o),
(398,522,qs),
(503,522,o),
(573,537,qs),
(678,559,o),
(771,621,q),
(826,568,o),
(930,535,qs),
(1031,504,o),
(1146,500,qs),
(1175,500,ls),
(1339,500,o),
(1426,552,qs),
(1507,600,o),
(1507,684,qs),
(1507,774,o),
(1406,827,qs),
(1308,878,o),
(1144,878,qs),
(1039,878,o)
);
}
);
width = 1542;
}
);
note = infinity;
unicode = 8734;
},
{
glyphname = integral;
lastChange = "2024-07-02 17:45:55 +0000";
layers = (
{
layerId = m01;
shapes = (
{
closed = 1;
nodes = (
(420,1289,o),
(533,1289,q),
(533,1210,l),
(448,1210,o),
(403,1171,qs),
(355,1131,o),
(355,1018,qs),
(355,49,ls),
(355,-129,o),
(228,-186,qs),
(148,-222,o),
(35,-222,q),
(35,-143,l),
(120,-143,o),
(165,-104,qs),
(213,-64,o),
(213,49,qs),
(213,1018,ls),
(213,1196,o),
(340,1253,qs)
);
}
);
width = 568;
}
);
note = integral;
unicode = 8747;
},
{
glyphname = uniF001;
lastChange = "2024-07-02 17:45:55 +0000";
layers = (
{
layerId = m01;
shapes = (
{
closed = 1;
nodes = (
(539,223,l),
(464,191,l),
(464,140,l),
(734,140,l),
(734,191,l),
(659,222,l),
(659,852,l),
(229,848,l),
(229,910,ls),
(229,1108,o),
(291,1132,q),
(302,1135,o),
(313,1135,qs),
(334,1135,o),
(355,1122,qs),
(376,1106,o),
(379,1062,qs),
(380,1051,o),
(380,1038,qs),
(380,1016,o),
(377,988,q),
(451,988,l),
(470,1113,l),
(418,1202,o),
(308,1202,qs),
(231,1202,o),
(184,1162,qs),
(109,1099,o),
(109,906,qs),
(109,844,l),
(15,833,l),
(15,762,l),
(109,762,l),
(109,223,l),
(24,191,l),
(24,140,l),
(324,140,l),
(324,191,l),
(229,222,l),
(229,762,l),
(539,762,l)
);
},
{
closed = 1;
nodes = (
(640,1038,o),
(659,1056,qs),
(677,1074,o),
(677,1100,qs),
(677,1125,ls),
(677,1151,o),
(659,1169,qs),
(640,1188,o),
(614,1188,qs),
(595,1188,ls),
(568,1188,o),
(550,1169,qs),
(532,1151,o),
(532,1125,qs),
(532,1100,ls),
(532,1074,o),
(550,1056,qs),
(568,1038,o),
(595,1038,qs),
(614,1038,ls)
);
}
);
width = 769;
}
);
note = uniF001;
unicode = (61441,64257);
},
{
glyphname = afii10017;
lastChange = "2024-07-02 17:45:55 +0000";
layers = (
{
layerId = m01;
shapes = (
{
closed = 1;
nodes = (
(477,1202,l),
(110,223,l),
(30,191,l),
(30,140,l),
(309,140,l),
(309,191,l),
(229,223,l),
(351,581,l),
(617,581,l),
(732,223,l),
(652,191,l),
(652,140,l),
(967,140,l),
(967,191,l),
(887,223,l),
(532,1202,l)
);
},
{
closed = 1;
nodes = (
(491,983,l),
(593,661,l),
(384,661,l)
);
}
);
width = 992;
}
);
note = afii10017;
unicode = 1040;
},
{
glyphname = afii10018;
lastChange = "2024-07-02 17:45:55 +0000";
layers = (
{
layerId = m01;
shapes = (
{
closed = 1;
nodes = (
(446,218,o),
(385,218,qs),
(335,218,o),
(282,227,q),
(282,636,l),
(314,638,o),
(343,638,qs),
(452,638,o),
(526,611,qs),
(640,568,o),
(655,455,qs),
(658,434,o),
(658,415,qs),
(658,267,o),
(501,231,qs)
);
},
{
closed = 1;
nodes = (
(686,867,l),
(777,867,l),
(742,1190,l),
(55,1190,l),
(55,1139,l),
(152,1107,l),
(152,223,l),
(55,191,l),
(55,140,l),
(332,140,ls),
(528,140,o),
(583,152,qs),
(705,176,o),
(762,265,qs),
(807,335,o),
(807,426,qs),
(807,446,o),
(805,467,qs),
(788,635,o),
(624,689,qs),
(525,720,o),
(376,720,qs),
(331,720,o),
(282,717,q),
(282,1113,l),
(615,1113,l)
);
}
);
width = 857;
}
);
note = afii10018;
unicode = 1041;
},
{
glyphname = afii10019;
lastChange = "2024-07-02 17:45:55 +0000";
layers = (
{
layerId = m01;
shapes = (
{
closed = 1;
nodes = (
(322,625,o),
(358,625,qs),
(479,625,o),
(551,599,qs),
(657,557,o),
(657,420,qs),
(657,410,o),
(656,400,qs),
(642,250,o),
(467,219,qs),
(426,212,o),
(372,212,qs),
(331,212,o),
(282,216,q),
(282,623,l)
);
},
{
closed = 1;
nodes = (
(520,729,q),
(451,708,o),
(354,708,qs),
(320,708,o),
(282,711,q),
(282,1108,l),
(326,1112,o),
(365,1112,qs),
(648,1112,o),
(648,911,qs),
(648,901,ls),
(648,786,o)
);
},
{
closed = 1;
nodes = (
(753,597,qs),
(704,653,o),
(621,671,q),
(598,673,l),
(598,676,l),
(612,679,l),
(701,711,o),
(742,768,qs),
(785,835,o),
(785,924,qs),
(785,1087,o),
(648,1147,qs),
(544,1190,o),
(433,1190,qs),
(55,1190,l),
(55,1140,l),
(152,1107,l),
(152,223,l),
(55,188,l),
(55,140,l),
(411,140,ls),
(541,140,o),
(618,164,qs),
(710,194,o),
(756,249,qs),
(807,312,o),
(807,417,qs),
(807,532,o)
);
}
);
width = 837;
}
);
note = afii10019;
unicode = 1042;
},
{
glyphname = afii10020;
lastChange = "2024-07-02 17:45:55 +0000";
layers = (
{
layerId = m01;
shapes = (
{
closed = 1;
nodes = (
(50,1139,l),
(130,1108,l),
(130,222,l),
(50,191,l),
(50,140,l),
(339,140,l),
(339,191,l),
(259,222,l),
(259,1113,l),
(616,1113,l),
(687,867,l),
(778,867,l),
(743,1190,l),
(50,1190,l)
);
}
);
width = 808;
}
);
note = afii10020;
unicode = 1043;
},
{
glyphname = afii10021;
lastChange = "2024-07-02 17:45:55 +0000";
layers = (
{
layerId = m01;
shapes = (
{
closed = 1;
nodes = (
(277,217,l),
(293,235,o),
(334,355,qs),
(410,603,o),
(413,1113,q),
(733,1113,l),
(733,217,l)
);
},
{
closed = 1;
nodes = (
(868,216,l),
(868,1108,l),
(973,1139,l),
(973,1190,l),
(209,1190,l),
(209,1139,l),
(321,1101,l),
(292,515,o),
(221,379,q),
(158,228,o),
(129,217,q),
(40,217,l),
(15,-85,l),
(106,-85,l),
(168,140,l),
(848,140,l),
(910,-85,l),
(1001,-85,l),
(976,216,l)
);
}
);
width = 1021;
}
);
note = afii10021;
unicode = 1044;
},
{
glyphname = afii10022;
lastChange = "2024-07-02 17:45:55 +0000";
layers = (
{
layerId = m01;
shapes = (
{
closed = 1;
nodes = (
(50,1139,l),
(130,1108,l),
(130,222,l),
(50,191,l),
(50,140,l),
(761,140,l),
(796,463,l),
(705,463,l),
(634,217,l),
(260,217,l),
(260,623,l),
(452,623,l),
(513,497,l),
(554,497,l),
(544,662,l),
(554,826,l),
(513,826,l),
(452,700,l),
(260,700,l),
(260,1113,l),
(634,1113,l),
(705,867,l),
(796,867,l),
(761,1190,l),
(50,1190,l)
);
}
);
width = 836;
}
);
note = afii10022;
unicode = 1045;
},
{
glyphname = afii10024;
lastChange = "2024-07-02 17:45:55 +0000";
layers = (
{
layerId = m01;
shapes = (
{
closed = 1;
nodes = (
(837,1139,l),
(837,1190,l),
(547,1190,l),
(547,1139,l),
(627,1107,l),
(627,695,l),
(503,695,l),
(276,1107,l),
(359,1139,l),
(359,1190,l),
(49,1190,l),
(49,1139,l),
(150,1102,l),
(405,688,l),
(404,686,l),
(357,673,o),
(229,575,q),
(184,400,o),
(151,298,qs),
(130,230,o),
(89,217,qs),
(79,214,o),
(70,214,qs),
(61,214,o),
(52,217,q),
(30,152,l),
(90,128,o),
(154,128,qs),
(205,128,o),
(248,171,qs),
(287,210,o),
(305,269,qs),
(321,326,o),
(360,534,q),
(439,621,o),
(483,621,qs),
(627,621,l),
(627,223,l),
(547,191,l),
(547,140,l),
(837,140,l),
(837,191,l),
(757,223,l),
(757,621,l),
(901,621,ls),
(945,621,o),
(1025,534,q),
(1063,326,o),
(1080,269,qs),
(1097,210,o),
(1136,171,qs),
(1179,128,o),
(1230,128,qs),
(1294,128,o),
(1354,152,q),
(1332,217,l),
(1324,214,o),
(1315,214,qs),
(1306,214,o),
(1295,217,qs),
(1254,230,o),
(1233,298,qs),
(1200,400,o),
(1155,575,q),
(1027,673,o),
(980,686,q),
(980,688,l),
(1234,1102,l),
(1335,1139,l),
(1335,1190,l),
(1025,1190,l),
(1025,1139,l),
(1109,1107,l),
(881,695,l),
(757,695,l),
(757,1107,l)
);
}
);
width = 1384;
}
);
note = afii10024;
unicode = 1046;
},
{
glyphname = afii10025;
lastChange = "2024-07-02 17:45:55 +0000";
layers = (
{
layerId = m01;
shapes = (
{
closed = 1;
nodes = (
(520,665,q),
(520,670,l),
(540,675,o),
(548,678,qs),
(624,710,o),
(668,765,qs),
(719,827,o),
(719,911,qs),
(719,1202,o),
(368,1202,qs),
(246,1202,o),
(59,1097,o),
(31,1031,q),
(59,867,l),
(154,867,l),
(149,904,o),
(149,929,qs),
(149,945,o),
(151,956,qs),
(159,1030,o),
(204,1074,q),
(265,1123,o),
(357,1123,qs),
(572,1123,o),
(572,911,qs),
(572,777,o),
(402,722,qs),
(353,704,o),
(217,704,q),
(217,621,l),
(339,620,o),
(403,608,qs),
(575,573,o),
(575,419,qs),
(575,405,ls),
(575,289,o),
(480,241,qs),
(430,214,o),
(364,214,qs),
(328,214,o),
(287,222,qs),
(185,237,o),
(73,374,q),
(20,345,l),
(129,147,o),
(336,130,qs),
(359,128,o),
(381,128,qs),
(481,128,o),
(569,165,qs),
(732,233,o),
(732,410,qs),
(732,517,o),
(677,579,qs),
(635,627,o),
(548,657,qs),
(539,661,o)
);
}
);
width = 752;
}
);
note = afii10025;
unicode = 1047;
},
{
glyphname = afii10026;
lastChange = "2024-07-02 17:45:55 +0000";
layers = (
{
layerId = m01;
shapes = (
{
closed = 1;
nodes = (
(689,1139,l),
(779,1107,l),
(779,1017,l),
(270,442,l),
(270,1108,l),
(351,1139,l),
(351,1190,l),
(50,1190,l),
(50,1139,l),
(140,1107,l),
(140,223,l),
(50,191,l),
(50,140,l),
(351,140,l),
(351,191,l),
(270,222,l),
(270,312,l),
(779,887,l),
(779,223,l),
(689,191,l),
(689,140,l),
(989,140,l),
(989,191,l),
(909,222,l),
(909,1108,l),
(989,1139,l),
(989,1190,l),
(689,1190,l)
);
}
);
width = 1039;
}
);
note = afii10026;
unicode = 1048;
},
{
glyphname = afii10027;
lastChange = "2024-07-02 17:45:55 +0000";
layers = (
{
layerId = m01;
shapes = (
{
closed = 1;
nodes = (
(689,1139,l),
(779,1107,l),
(779,1017,l),
(270,442,l),
(270,1108,l),
(351,1139,l),
(351,1190,l),
(50,1190,l),
(50,1139,l),
(140,1107,l),
(140,223,l),
(50,191,l),
(50,140,l),
(351,140,l),
(351,191,l),
(270,222,l),
(270,312,l),
(779,887,l),
(779,223,l),
(689,191,l),
(689,140,l),
(989,140,l),
(989,191,l),
(909,222,l),
(909,1108,l),
(989,1139,l),
(989,1190,l),
(689,1190,l)
);
},
{
closed = 1;
nodes = (
(676,1262,qs),
(739,1283,o),
(763,1321,qs),
(784,1355,o),
(784,1397,qs),
(784,1404,ls),
(783,1445,o),
(766,1465,qs),
(751,1483,o),
(717,1489,qs),
(709,1490,o),
(702,1490,qs),
(672,1490,o),
(653,1470,qs),
(638,1454,o),
(638,1432,qs),
(638,1421,o),
(642,1409,qs),
(648,1391,o),
(659,1378,q),
(659,1355,o),
(641,1333,qs),
(606,1294,o),
(519,1294,qs),
(433,1294,o),
(397,1333,q),
(380,1355,o),
(380,1378,q),
(390,1391,o),
(396,1409,qs),
(400,1422,o),
(400,1433,qs),
(400,1454,o),
(385,1470,qs),
(366,1490,o),
(337,1490,qs),
(330,1490,o),
(322,1489,qs),
(289,1483,o),
(274,1465,qs),
(256,1445,o),
(255,1404,qs),
(255,1397,ls),
(255,1355,o),
(276,1321,qs),
(299,1283,o),
(362,1262,qs),
(427,1240,o),
(519,1240,qs),
(612,1240,o)
);
}
);
width = 1039;
}
);
note = afii10027;
unicode = 1049;
},
{
glyphname = afii10028;
lastChange = "2024-07-02 17:45:55 +0000";
layers = (
{
layerId = m01;
shapes = (
{
closed = 1;
nodes = (
(867,214,o),
(858,214,qs),
(849,214,o),
(838,217,qs),
(797,230,o),
(776,298,qs),
(743,400,o),
(698,575,q),
(560,672,o),
(513,685,q),
(513,687,l),
(777,1102,l),
(878,1139,l),
(878,1190,l),
(568,1190,l),
(568,1139,l),
(652,1107,l),
(414,694,l),
(260,694,l),
(260,1108,l),
(340,1139,l),
(340,1190,l),
(50,1190,l),
(50,1139,l),
(130,1107,l),
(130,223,l),
(50,191,l),
(50,140,l),
(340,140,l),
(340,191,l),
(260,223,l),
(260,620,l),
(434,620,ls),
(478,620,o),
(568,534,q),
(606,326,o),
(623,269,qs),
(640,210,o),
(679,171,qs),
(722,128,o),
(773,128,qs),
(837,128,o),
(897,152,q),
(875,217,l)
);
}
);
width = 927;
}
);
note = afii10028;
unicode = 1050;
},
{
glyphname = afii10029;
lastChange = "2024-07-02 17:45:55 +0000";
layers = (
{
layerId = m01;
shapes = (
{
closed = 1;
nodes = (
(920,1190,l),
(190,1190,l),
(190,1139,l),
(292,1102,l),
(280,450,o),
(206,297,q),
(180,230,o),
(114,217,q),
(109,217,ls),
(83,217,o),
(52,227,q),
(20,157,l),
(66,128,o),
(140,128,qs),
(296,128,o),
(327,256,q),
(370,383,o),
(386,1113,q),
(711,1113,l),
(711,223,l),
(631,191,l),
(631,140,l),
(920,140,l),
(920,191,l),
(840,223,l),
(840,1107,l),
(920,1139,l)
);
}
);
width = 970;
}
);
note = afii10029;
unicode = 1051;
},
{
glyphname = afii10030;
lastChange = "2024-07-02 17:45:55 +0000";
layers = (
{
layerId = m01;
shapes = (
{
closed = 1;
nodes = (
(641,362,l),
(401,1190,l),
(127,1190,l),
(127,1139,l),
(202,1107,l),
(112,228,l),
(15,191,l),
(15,140,l),
(306,140,l),
(306,191,l),
(219,224,l),
(295,1026,l),
(307,1026,l),
(577,140,l),
(685,140,l),
(942,1026,l),
(950,1026,l),
(1047,224,l),
(962,191,l),
(962,140,l),
(1274,140,l),
(1274,191,l),
(1189,225,l),
(1083,1107,l),
(1155,1139,l),
(1155,1190,l),
(891,1190,l)
);
}
);
width = 1289;
}
);
note = afii10030;
unicode = 1052;
},
{
glyphname = afii10031;
lastChange = "2024-07-02 17:45:55 +0000";
layers = (
{
layerId = m01;
shapes = (
{
closed = 1;
nodes = (
(688,1139,l),
(768,1107,l),
(768,701,l),
(260,701,l),
(260,1107,l),
(340,1139,l),
(340,1190,l),
(50,1190,l),
(50,1139,l),
(130,1107,l),
(130,223,l),
(50,191,l),
(50,140,l),
(340,140,l),
(340,191,l),
(260,223,l),
(260,621,l),
(768,621,l),
(768,223,l),
(688,191,l),
(688,140,l),
(978,140,l),
(978,191,l),
(898,223,l),
(898,1107,l),
(978,1139,l),
(978,1190,l),
(688,1190,l)
);
}
);
width = 1028;
}
);
note = afii10031;
unicode = 1053;
},
{
glyphname = afii10032;
lastChange = "2024-07-02 17:45:55 +0000";
layers = (
{
layerId = m01;
shapes = (
{
closed = 1;
nodes = (
(551,218,o),
(537,218,qs),
(413,218,o),
(312,329,qs),
(201,451,o),
(185,636,qs),
(182,666,o),
(182,695,qs),
(182,844,o),
(256,960,qs),
(344,1099,o),
(486,1111,qs),
(499,1112,o),
(513,1112,qs),
(637,1112,o),
(738,1001,qs),
(849,879,o),
(865,694,qs),
(868,664,o),
(868,635,qs),
(868,486,o),
(794,370,qs),
(706,231,o),
(564,219,qs)
);
},
{
closed = 1;
nodes = (
(172,1030,qs),
(25,861,o),
(25,635,qs),
(25,416,o),
(172,270,qs),
(316,128,o),
(525,128,qs),
(729,128,o),
(878,299,qs),
(1025,468,o),
(1025,693,qs),
(1025,913,o),
(878,1059,qs),
(734,1202,o),
(525,1202,qs),
(321,1202,o)
);
}
);
width = 1050;
}
);
note = afii10032;
unicode = 1054;
},
{
glyphname = afii10033;
lastChange = "2024-07-02 17:45:55 +0000";
layers = (
{
layerId = m01;
shapes = (
{
closed = 1;
nodes = (
(50,1139,l),
(130,1107,l),
(130,223,l),
(50,191,l),
(50,140,l),
(340,140,l),
(340,191,l),
(260,223,l),
(260,1113,l),
(739,1113,l),
(739,223,l),
(659,191,l),
(659,140,l),
(949,140,l),
(949,191,l),
(869,223,l),
(869,1107,l),
(949,1139,l),
(949,1190,l),
(50,1190,l)
);
}
);
width = 999;
}
);
note = afii10033;
unicode = 1055;
},
{
glyphname = afii10034;
lastChange = "2024-07-02 17:45:55 +0000";
layers = (
{
layerId = m01;
shapes = (
{
closed = 1;
nodes = (
(277,1190,qs),
(50,1190,l),
(50,1139,l),
(147,1107,l),
(147,223,l),
(50,191,l),
(50,140,l),
(364,140,l),
(364,191,l),
(277,222,l),
(277,1108,l),
(310,1113,o),
(344,1113,qs),
(396,1113,o),
(452,1102,qs),
(606,1066,o),
(622,922,qs),
(624,900,o),
(624,880,qs),
(624,768,o),
(557,717,qs),
(492,668,o),
(339,668,q),
(326,610,l),
(385,603,o),
(437,603,qs),
(562,603,o),
(642,645,qs),
(779,717,o),
(779,893,qs),
(779,1120,o),
(543,1175,qs),
(479,1190,o)
);
}
);
width = 814;
}
);
note = afii10034;
unicode = 1056;
},
{
glyphname = afii10035;
lastChange = "2024-07-02 17:45:55 +0000";
layers = (
{
layerId = m01;
shapes = (
{
closed = 1;
nodes = (
(551,220,o),
(542,220,qs),
(419,220,o),
(304,335,q),
(202,458,o),
(196,636,qs),
(195,654,o),
(195,670,qs),
(195,848,o),
(262,970,q),
(343,1093,o),
(487,1119,q),
(507,1121,o),
(525,1121,qs),
(603,1121,o),
(657,1083,qs),
(719,1039,o),
(737,976,q),
(739,965,o),
(739,946,qs),
(739,916,o),
(734,867,q),
(829,867,l),
(857,1031,l),
(828,1098,o),
(750,1145,qs),
(655,1202,o),
(524,1202,qs),
(323,1202,o),
(177,1034,qs),
(35,871,o),
(35,643,qs),
(35,422,o),
(169,274,q),
(311,128,o),
(511,128,qs),
(735,128,o),
(861,331,q),
(803,361,l),
(735,292,o),
(696,267,qs),
(634,226,o),
(560,221,qs)
);
}
);
width = 896;
}
);
note = afii10035;
unicode = 1057;
},
{
glyphname = afii10036;
lastChange = "2024-07-02 17:45:55 +0000";
layers = (
{
layerId = m01;
shapes = (
{
closed = 1;
nodes = (
(25,867,l),
(116,867,l),
(187,1113,l),
(415,1113,l),
(415,222,l),
(335,191,l),
(335,140,l),
(625,140,l),
(625,191,l),
(545,222,l),
(545,1113,l),
(773,1113,l),
(844,867,l),
(935,867,l),
(900,1190,l),
(60,1190,l)
);
}
);
width = 960;
}
);
note = afii10036;
unicode = 1058;
},
{
glyphname = afii10037;
lastChange = "2024-07-02 17:45:55 +0000";
layers = (
{
layerId = m01;
shapes = (
{
closed = 1;
nodes = (
(688,1190,l),
(688,1139,l),
(769,1107,l),
(487,423,l),
(492,440,o),
(492,463,qs),
(492,488,o),
(479,531,q),
(247,1108,l),
(325,1139,l),
(325,1190,l),
(15,1190,l),
(15,1139,l),
(90,1107,l),
(428,348,l),
(416,313,o),
(349,218,o),
(311,209,q),
(303,208,o),
(294,208,qs),
(261,208,o),
(231,227,q),
(195,157,l),
(245,118,o),
(329,118,qs),
(433,118,o),
(500,246,qs),
(620,473,o),
(866,1108,q),
(949,1139,l),
(949,1190,l)
);
}
);
width = 964;
}
);
note = afii10037;
unicode = 1059;
},
{
glyphname = afii10038;
lastChange = "2024-07-02 17:45:55 +0000";
layers = (
{
layerId = m01;
shapes = (
{
closed = 1;
nodes = (
(286,972,q),
(347,1028,o),
(455,1028,qs),
(494,1028,o),
(539,1021,q),
(539,377,l),
(489,367,o),
(446,367,qs),
(353,367,o),
(294,415,qs),
(182,509,o),
(182,701,qs),
(182,885,o)
);
},
{
closed = 1;
nodes = (
(921,428,qs),
(860,372,o),
(752,372,qs),
(713,372,o),
(668,379,q),
(668,1023,l),
(718,1033,o),
(761,1033,qs),
(854,1033,o),
(913,985,qs),
(1025,901,o),
(1025,729,qs),
(1025,525,o)
);
},
{
closed = 1;
nodes = (
(1032,1036,qs),
(940,1103,o),
(787,1103,qs),
(732,1103,o),
(668,1094,q),
(668,1147,l),
(748,1179,l),
(748,1230,l),
(449,1230,l),
(449,1179,l),
(539,1147,l),
(539,1094,l),
(491,1099,o),
(448,1099,qs),
(274,1099,o),
(175,1024,qs),
(25,908,o),
(25,686,qs),
(25,476,o),
(175,364,qs),
(267,297,o),
(420,297,qs),
(475,297,o),
(539,306,q),
(539,223,l),
(459,191,l),
(459,140,l),
(748,140,l),
(748,191,l),
(668,223,l),
(668,306,l),
(716,301,o),
(759,301,qs),
(933,301,o),
(1032,376,q),
(1182,502,o),
(1182,734,q),
(1172,934,o)
);
}
);
width = 1203;
}
);
note = afii10038;
unicode = 1060;
},
{
glyphname = afii10039;
lastChange = "2024-07-02 17:45:55 +0000";
layers = (
{
layerId = m01;
shapes = (
{
closed = 1;
nodes = (
(698,1139,l),
(783,1108,l),
(535,744,l),
(305,1108,l),
(390,1139,l),
(390,1190,l),
(30,1190,l),
(30,1139,l),
(125,1107,l),
(434,661,l),
(123,223,l),
(20,191,l),
(20,140,l),
(340,140,l),
(340,191,l),
(255,222,l),
(501,587,l),
(748,222,l),
(663,191,l),
(663,140,l),
(1018,140,l),
(1018,191,l),
(923,223,l),
(602,665,l),
(908,1107,l),
(1008,1139,l),
(1008,1190,l),
(698,1190,l)
);
}
);
width = 1038;
}
);
note = afii10039;
unicode = 1061;
},
{
glyphname = afii10040;
lastChange = "2024-07-02 17:45:55 +0000";
layers = (
{
layerId = m01;
shapes = (
{
closed = 1;
nodes = (
(1013,-85,l),
(988,216,l),
(889,216,l),
(889,1107,l),
(969,1139,l),
(969,1190,l),
(679,1190,l),
(679,1139,l),
(759,1107,l),
(759,217,l),
(260,217,l),
(260,1107,l),
(340,1139,l),
(340,1190,l),
(50,1190,l),
(50,1139,l),
(130,1107,l),
(130,223,l),
(50,191,l),
(50,140,l),
(860,140,l),
(922,-85,l)
);
}
);
width = 1023;
}
);
note = afii10040;
unicode = 1062;
},
{
glyphname = afii10041;
lastChange = "2024-07-02 17:45:55 +0000";
layers = (
{
layerId = m01;
shapes = (
{
closed = 1;
nodes = (
(921,1190,l),
(621,1190,l),
(621,1139,l),
(711,1107,l),
(711,787,l),
(680,728,o),
(621,698,qs),
(564,669,o),
(480,669,qs),
(462,669,ls),
(394,669,o),
(338,689,qs),
(275,711,o),
(249,769,q),
(235,794,o),
(235,865,qs),
(235,1108,l),
(315,1139,l),
(315,1190,l),
(25,1190,l),
(25,1139,l),
(105,1107,l),
(105,843,ls),
(106,744,o),
(139,693,qs),
(221,576,o),
(442,572,qs),
(542,572,o),
(634,618,qs),
(685,646,o),
(711,681,q),
(711,223,l),
(631,191,l),
(631,140,l),
(921,140,l),
(921,191,l),
(841,222,l),
(841,1108,l),
(921,1139,l)
);
}
);
width = 971;
}
);
note = afii10041;
unicode = 1063;
},
{
glyphname = afii10042;
lastChange = "2024-07-02 17:45:55 +0000";
layers = (
{
layerId = m01;
shapes = (
{
closed = 1;
nodes = (
(830,1139,l),
(830,1190,l),
(539,1190,l),
(539,1139,l),
(620,1107,l),
(620,217,l),
(260,217,l),
(260,1107,l),
(340,1139,l),
(340,1190,l),
(50,1190,l),
(50,1139,l),
(130,1107,l),
(130,223,l),
(50,191,l),
(50,140,l),
(1319,140,l),
(1319,191,l),
(1239,223,l),
(1239,1107,l),
(1319,1139,l),
(1319,1190,l),
(1029,1190,l),
(1029,1139,l),
(1109,1107,l),
(1109,217,l),
(750,217,l),
(750,1107,l)
);
}
);
width = 1369;
}
);
note = afii10042;
unicode = 1064;
},
{
glyphname = afii10043;
lastChange = "2024-07-02 17:45:55 +0000";
layers = (
{
layerId = m01;
shapes = (
{
closed = 1;
nodes = (
(1363,-85,l),
(1338,216,l),
(1239,216,l),
(1239,1107,l),
(1319,1139,l),
(1319,1190,l),
(1029,1190,l),
(1029,1139,l),
(1109,1107,l),
(1109,217,l),
(750,217,l),
(750,1107,l),
(830,1139,l),
(830,1190,l),
(539,1190,l),
(539,1139,l),
(620,1107,l),
(620,217,l),
(260,217,l),
(260,1107,l),
(340,1139,l),
(340,1190,l),
(50,1190,l),
(50,1139,l),
(130,1107,l),
(130,223,l),
(50,191,l),
(50,140,l),
(1210,140,l),
(1272,-85,l)
);
}
);
width = 1378;
}
);
note = afii10043;
unicode = 1065;
},
{
glyphname = afii10044;
lastChange = "2024-07-02 17:45:55 +0000";
layers = (
{
layerId = m01;
shapes = (
{
closed = 1;
nodes = (
(664,218,o),
(612,218,qs),
(570,218,o),
(530,227,q),
(530,636,l),
(555,638,o),
(579,638,qs),
(670,638,o),
(744,611,qs),
(858,568,o),
(873,455,qs),
(876,434,o),
(876,415,qs),
(876,267,o),
(719,231,qs)
);
},
{
closed = 1;
nodes = (
(25,867,l),
(116,867,l),
(187,1113,l),
(400,1113,l),
(400,223,l),
(303,191,l),
(303,140,l),
(530,140,ls),
(746,140,o),
(801,152,qs),
(923,176,o),
(980,265,qs),
(1025,335,o),
(1025,426,qs),
(1025,446,o),
(1023,467,qs),
(1006,635,o),
(842,689,qs),
(743,720,o),
(612,720,qs),
(572,720,o),
(530,717,q),
(530,1108,l),
(620,1139,l),
(620,1190,l),
(60,1190,l)
);
}
);
width = 1060;
}
);
note = afii10044;
unicode = 1066;
},
{
glyphname = afii10045;
lastChange = "2024-07-02 17:45:55 +0000";
layers = (
{
layerId = m01;
shapes = (
{
closed = 1;
nodes = (
(613,434,o),
(613,415,qs),
(613,267,o),
(456,231,qs),
(401,218,o),
(352,218,qs),
(312,218,o),
(277,227,q),
(277,636,l),
(300,638,o),
(323,638,qs),
(407,638,o),
(481,611,qs),
(595,568,o),
(610,455,qs)
);
},
{
closed = 1;
nodes = (
(579,689,qs),
(480,720,o),
(355,720,qs),
(317,720,o),
(277,717,q),
(277,1108,l),
(367,1139,l),
(367,1190,l),
(50,1190,l),
(50,1139,l),
(147,1107,l),
(147,223,l),
(50,191,l),
(50,140,l),
(277,140,ls),
(483,140,o),
(538,152,qs),
(660,176,o),
(717,265,qs),
(762,335,o),
(762,426,qs),
(762,446,o),
(760,467,qs),
(743,635,o)
);
},
{
closed = 1;
nodes = (
(818,1139,l),
(898,1107,l),
(898,223,l),
(818,191,l),
(818,140,l),
(1108,140,l),
(1108,191,l),
(1028,223,l),
(1028,1107,l),
(1108,1139,l),
(1108,1190,l),
(818,1190,l)
);
}
);
width = 1158;
}
);
note = afii10045;
unicode = 1067;
},
{
glyphname = afii10046;
lastChange = "2024-07-02 17:45:55 +0000";
layers = (
{
layerId = m01;
shapes = (
{
closed = 1;
nodes = (
(623,434,o),
(623,415,qs),
(623,267,o),
(466,231,qs),
(411,218,o),
(359,218,qs),
(317,218,o),
(277,227,q),
(277,636,l),
(302,638,o),
(326,638,qs),
(417,638,o),
(491,611,qs),
(605,568,o),
(620,455,qs)
);
},
{
closed = 1;
nodes = (
(589,689,qs),
(490,720,o),
(359,720,qs),
(319,720,o),
(277,717,q),
(277,1108,l),
(367,1139,l),
(367,1190,l),
(50,1190,l),
(50,1139,l),
(147,1107,l),
(147,223,l),
(50,191,l),
(50,140,l),
(277,140,ls),
(493,140,o),
(548,152,qs),
(670,176,o),
(727,265,qs),
(772,335,o),
(772,426,qs),
(772,446,o),
(770,467,qs),
(753,635,o)
);
}
);
width = 807;
}
);
note = afii10046;
unicode = 1068;
},
{
glyphname = afii10047;
lastChange = "2024-07-02 17:45:55 +0000";
layers = (
{
layerId = m01;
shapes = (
{
closed = 1;
nodes = (
(618,352,q),
(521,221,o),
(372,221,qs),
(232,221,o),
(93,361,q),
(35,331,l),
(159,131,o),
(379,128,qs),
(598,131,o),
(731,299,qs),
(861,461,o),
(861,687,qs),
(861,908,o),
(727,1056,q),
(585,1202,o),
(385,1202,qs),
(253,1202,o),
(159,1145,qs),
(81,1098,o),
(51,1031,q),
(80,867,l),
(175,867,l),
(169,915,o),
(169,944,qs),
(169,965,o),
(172,976,qs),
(187,1038,o),
(232,1080,q),
(281,1116,o),
(359,1119,qs),
(371,1119,ls),
(499,1119,o),
(600,1000,q),
(693,877,o),
(700,698,q),
(691,698,ls),
(670,698,o),
(646,702,qs),
(620,706,o),
(569,718,qs),
(508,732,o),
(481,738,qs),
(444,745,o),
(411,745,qs),
(376,745,o),
(345,737,qs),
(296,725,o),
(259,694,qs),
(233,672,o),
(215,643,qs),
(206,628,o),
(202,618,q),
(252,608,l),
(260,621,o),
(282,632,q),
(319,639,o),
(362,639,qs),
(383,639,o),
(406,637,q),
(521,614,o),
(537,611,qs),
(577,605,o),
(608,605,qs),
(625,605,o),
(640,607,qs),
(670,610,o),
(699,622,q),
(691,461,o)
);
}
);
width = 896;
}
);
note = afii10047;
unicode = 1069;
},
{
glyphname = afii10048;
lastChange = "2024-07-02 17:45:55 +0000";
layers = (
{
layerId = m01;
shapes = (
{
closed = 1;
nodes = (
(947,218,o),
(934,218,qs),
(827,218,o),
(727,319,q),
(616,451,o),
(600,636,qs),
(597,666,o),
(597,694,qs),
(597,845,o),
(672,970,q),
(759,1099,o),
(881,1111,qs),
(893,1112,o),
(906,1112,qs),
(1013,1112,o),
(1113,1011,q),
(1224,879,o),
(1240,694,qs),
(1243,664,o),
(1243,636,qs),
(1243,485,o),
(1168,360,q),
(1081,231,o),
(959,219,qs)
);
},
{
closed = 1;
nodes = (
(587,260,q),
(731,128,o),
(920,128,qs),
(1104,128,o),
(1253,289,q),
(1400,468,o),
(1400,693,qs),
(1400,913,o),
(1253,1069,q),
(1109,1202,o),
(920,1202,qs),
(736,1202,o),
(587,1040,q),
(462,888,o),
(443,701,q),
(260,701,l),
(260,1107,l),
(340,1139,l),
(340,1190,l),
(50,1190,l),
(50,1139,l),
(130,1107,l),
(130,223,l),
(50,191,l),
(50,140,l),
(340,140,l),
(340,191,l),
(260,223,l),
(260,621,l),
(440,621,l),
(445,411,o)
);
}
);
width = 1420;
}
);
note = afii10048;
unicode = 1070;
},
{
glyphname = afii10049;
lastChange = "2024-07-02 17:45:55 +0000";
layers = (
{
layerId = m01;
shapes = (
{
closed = 1;
nodes = (
(501,1108,o),
(556,1108,qs),
(603,1108,o),
(647,1103,q),
(647,706,l),
(471,707,o),
(419,724,qs),
(304,762,o),
(289,875,qs),
(288,889,o),
(288,902,qs),
(288,1070,o),
(444,1101,q)
);
},
{
closed = 1;
nodes = (
(557,191,l),
(557,140,l),
(857,140,l),
(857,191,l),
(777,223,l),
(777,1107,l),
(874,1139,l),
(874,1190,l),
(637,1190,ls),
(426,1190,o),
(371,1178,qs),
(249,1154,o),
(182,1065,q),
(137,995,o),
(137,904,qs),
(137,884,o),
(139,863,qs),
(163,677,o),
(390,659,q),
(390,655,l),
(301,636,o),
(234,575,q),
(186,401,o),
(156,298,qs),
(135,230,o),
(94,217,qs),
(84,214,o),
(75,214,qs),
(66,214,o),
(57,217,q),
(35,152,l),
(95,128,o),
(159,128,qs),
(210,128,o),
(253,171,qs),
(292,210,o),
(310,269,qs),
(326,326,o),
(365,534,q),
(405,627,o),
(636,627,qs),
(647,627,l),
(647,223,l)
);
}
);
width = 924;
}
);
note = afii10049;
unicode = 1071;
},
{
glyphname = afii10065;
lastChange = "2024-07-02 17:45:55 +0000";
layers = (
{
layerId = m01;
shapes = (
{
closed = 1;
nodes = (
(358,236,o),
(292,216,qs),
(269,209,o),
(248,209,qs),
(224,209,o),
(203,218,qs),
(159,237,o),
(157,288,qs),
(157,293,ls),
(157,378,o),
(249,428,qs),
(279,445,o),
(394,484,q),
(394,296,l)
);
},
{
closed = 1;
nodes = (
(518,852,o),
(254,852,qs),
(185,852,o),
(120,814,qs),
(61,779,o),
(43,737,q),
(63,612,l),
(134,612,l),
(132,640,o),
(132,659,qs),
(132,677,o),
(134,686,qs),
(145,732,o),
(175,759,qs),
(205,785,o),
(249,785,qs),
(327,785,o),
(361,736,qs),
(395,687,o),
(395,576,qs),
(395,562,o),
(394,546,q),
(220,497,o),
(175,475,qs),
(20,399,o),
(20,273,qs),
(20,266,o),
(21,258,qs),
(25,196,o),
(64,163,qs),
(104,128,o),
(179,128,qs),
(315,128,o),
(403,227,q),
(408,205,o),
(421,183,qs),
(446,140,o),
(488,140,qs),
(563,140,o),
(604,165,q),
(582,230,l),
(571,225,o),
(561,225,qs),
(552,225,o),
(543,230,qs),
(518,244,o),
(518,298,qs),
(518,563,ls)
);
}
);
width = 614;
}
);
note = afii10065;
unicode = 1072;
},
{
glyphname = afii10066;
lastChange = "2024-07-02 17:45:55 +0000";
layers = (
{
layerId = m01;
shapes = (
{
closed = 1;
nodes = (
(414,200,o),
(406,200,qs),
(326,200,o),
(266,267,qs),
(198,341,o),
(188,460,qs),
(186,482,o),
(186,504,qs),
(186,598,o),
(226,669,qs),
(277,759,o),
(365,766,qs),
(373,767,o),
(381,767,qs),
(460,767,o),
(519,696,qs),
(583,619,o),
(593,498,qs),
(595,474,o),
(595,452,qs),
(595,360,o),
(558,294,qs),
(511,209,o),
(423,201,qs)
);
},
{
closed = 1;
nodes = (
(162,703,qs),
(144,673,o),
(127,606,q),
(127,630,ls),
(127,670,o),
(132,703,qs),
(157,854,o),
(240,925,qs),
(305,981,o),
(510,991,qs),
(572,994,o),
(616,1028,qs),
(658,1060,o),
(675,1113,qs),
(692,1162,o),
(692,1182,qs),
(692,1187,o),
(691,1190,q),
(641,1189,l),
(639,1179,o),
(623,1166,qs),
(591,1141,o),
(518,1130,qs),
(357,1107,o),
(279,1065,qs),
(195,1021,o),
(129,919,qs),
(72,830,o),
(53,697,qs),
(44,635,o),
(44,574,qs),
(44,516,o),
(52,459,qs),
(78,285,o),
(175,201,qs),
(260,128,o),
(391,128,qs),
(534,128,o),
(632,238,qs),
(729,346,o),
(729,498,qs),
(729,647,o),
(632,744,qs),
(536,840,o),
(391,840,qs),
(246,840,o)
);
}
);
width = 764;
}
);
note = afii10066;
unicode = 1073;
},
{
glyphname = afii10067;
lastChange = "2024-07-02 17:45:55 +0000";
layers = (
{
layerId = m01;
shapes = (
{
closed = 1;
nodes = (
(251,461,o),
(277,461,qs),
(363,461,o),
(401,443,qs),
(459,415,o),
(459,339,qs),
(459,330,o),
(458,320,qs),
(449,228,o),
(341,216,qs),
(322,214,o),
(301,214,qs),
(263,214,o),
(220,222,q),
(220,459,l)
);
},
{
closed = 1;
nodes = (
(365,535,qs),
(343,530,o),
(252,530,qs),
(220,530,l),
(220,769,l),
(254,771,o),
(282,771,qs),
(353,771,o),
(387,758,qs),
(455,731,o),
(455,643,qs),
(455,556,o)
);
},
{
closed = 1;
nodes = (
(471,489,qs),
(470,489,o),
(455,492,q),
(455,494,l),
(464,497,o),
(471,500,qs),
(524,522,o),
(549,553,qs),
(579,592,o),
(579,658,qs),
(579,775,o),
(471,815,qs),
(401,840,o),
(257,840,qs),
(35,840,l),
(35,789,l),
(100,757,l),
(100,223,l),
(35,191,l),
(35,140,l),
(262,140,ls),
(411,140,o),
(463,156,qs),
(594,198,o),
(594,329,qs),
(594,462,o)
);
}
);
width = 629;
}
);
note = afii10067;
unicode = 1074;
},
{
glyphname = afii10068;
lastChange = "2024-07-02 17:45:55 +0000";
layers = (
{
layerId = m01;
shapes = (
{
closed = 1;
nodes = (
(35,789,l),
(100,758,l),
(100,223,l),
(35,191,l),
(35,140,l),
(285,140,l),
(285,191,l),
(220,222,l),
(220,768,l),
(438,768,l),
(500,612,l),
(571,612,l),
(546,840,l),
(35,840,l)
);
}
);
width = 596;
}
);
note = afii10068;
unicode = 1075;
},
{
glyphname = afii10069;
lastChange = "2024-07-02 17:45:55 +0000";
layers = (
{
layerId = m01;
shapes = (
{
closed = 1;
nodes = (
(226,212,l),
(238,232,o),
(254,274,qs),
(311,423,o),
(313,768,q),
(523,768,l),
(523,212,l)
);
},
{
closed = 1;
nodes = (
(643,211,l),
(643,758,l),
(708,789,l),
(708,840,l),
(150,840,l),
(150,789,l),
(241,751,l),
(238,641,o),
(218,503,qs),
(196,351,o),
(171,298,qs),
(136,222,o),
(119,212,q),
(40,212,l),
(15,-45,l),
(96,-45,l),
(148,140,l),
(623,140,l),
(675,-45,l),
(756,-45,l),
(731,211,l)
);
}
);
width = 781;
}
);
note = afii10069;
unicode = 1076;
},
{
glyphname = afii10070;
lastChange = "2024-07-02 17:45:55 +0000";
layers = (
{
layerId = m01;
shapes = (
{
closed = 1;
nodes = (
(345,791,o),
(358,791,qs),
(458,791,o),
(475,686,qs),
(480,652,o),
(480,620,qs),
(480,602,l),
(160,602,l),
(177,681,o),
(222,730,qs),
(268,781,o),
(331,789,qs)
);
},
{
closed = 1;
nodes = (
(595,565,o),
(595,588,qs),
(595,675,o),
(570,737,qs),
(525,852,o),
(361,852,qs),
(218,852,o),
(116,739,qs),
(15,627,o),
(15,475,qs),
(15,322,o),
(106,226,qs),
(200,128,o),
(356,128,qs),
(507,128,o),
(592,265,q),
(549,288,l),
(506,245,o),
(479,228,qs),
(440,204,o),
(390,201,qs),
(377,201,ls),
(293,201,o),
(225,273,qs),
(149,353,o),
(145,471,qs),
(144,488,o),
(144,501,qs),
(144,528,o),
(147,541,q),
(593,541,l)
);
}
);
width = 621;
}
);
note = afii10070;
unicode = 1077;
},
{
glyphname = afii10072;
lastChange = "2024-07-02 17:45:55 +0000";
layers = (
{
layerId = m01;
shapes = (
{
closed = 1;
nodes = (
(964,214,o),
(956,214,qs),
(948,214,o),
(939,217,qs),
(903,230,o),
(882,298,qs),
(849,400,o),
(849,426,q),
(769,498,o),
(721,510,q),
(721,513,l),
(876,752,l),
(967,789,l),
(967,840,l),
(727,840,l),
(727,789,l),
(791,757,l),
(653,520,l),
(567,520,l),
(567,758,l),
(627,789,l),
(627,840,l),
(396,840,l),
(396,789,l),
(456,758,l),
(456,520,l),
(370,520,l),
(232,757,l),
(296,789,l),
(296,840,l),
(56,840,l),
(56,789,l),
(147,752,l),
(302,513,l),
(302,511,l),
(254,498,o),
(174,426,q),
(174,400,o),
(141,298,qs),
(120,230,o),
(84,217,qs),
(75,214,o),
(67,214,qs),
(59,214,o),
(52,217,q),
(30,152,l),
(80,128,o),
(144,128,qs),
(191,128,o),
(217,171,qs),
(231,194,o),
(253,269,qs),
(269,326,o),
(272,397,q),
(282,413,o),
(297,429,qs),
(327,460,o),
(354,460,qs),
(456,460,l),
(456,222,l),
(396,191,l),
(396,140,l),
(627,140,l),
(627,191,l),
(567,222,l),
(567,460,l),
(669,460,ls),
(713,460,o),
(751,397,q),
(754,326,o),
(770,269,qs),
(792,193,o),
(806,171,qs),
(832,128,o),
(879,128,qs),
(943,128,o),
(993,152,q),
(971,217,l)
);
}
);
width = 1008;
}
);
note = afii10072;
unicode = 1078;
},
{
glyphname = afii10073;
lastChange = "2024-07-02 17:45:55 +0000";
layers = (
{
layerId = m01;
shapes = (
{
closed = 1;
nodes = (
(400,490,q),
(400,493,l),
(414,497,o),
(419,499,qs),
(470,520,o),
(500,557,qs),
(534,599,o),
(534,656,qs),
(534,852,o),
(277,852,qs),
(188,852,o),
(120,814,qs),
(62,781,o),
(43,737,q),
(62,613,l),
(136,613,l),
(133,643,o),
(133,662,qs),
(133,678,o),
(135,686,qs),
(147,736,o),
(177,759,qs),
(211,785,o),
(277,785,qs),
(411,785,o),
(411,656,qs),
(411,566,o),
(319,538,qs),
(294,532,o),
(225,532,qs),
(198,532,o),
(166,533,q),
(166,461,l),
(202,463,o),
(231,463,qs),
(286,463,o),
(319,455,qs),
(413,428,o),
(413,324,qs),
(413,241,o),
(354,211,qs),
(318,195,o),
(270,195,qs),
(250,195,o),
(229,198,qs),
(147,208,o),
(67,288,q),
(25,265,l),
(102,141,o),
(263,129,qs),
(281,128,o),
(298,128,qs),
(373,128,o),
(433,153,qs),
(543,199,o),
(543,318,qs),
(543,390,o),
(506,432,qs),
(477,464,o),
(419,485,qs),
(413,487,o)
);
}
);
width = 568;
}
);
note = afii10073;
unicode = 1079;
},
{
glyphname = afii10074;
lastChange = "2024-07-02 17:45:55 +0000";
layers = (
{
layerId = m01;
shapes = (
{
closed = 1;
nodes = (
(471,789,l),
(536,757,l),
(536,697,l),
(220,377,l),
(220,758,l),
(285,789,l),
(285,840,l),
(35,840,l),
(35,789,l),
(100,757,l),
(100,223,l),
(35,191,l),
(35,140,l),
(285,140,l),
(285,191,l),
(220,222,l),
(220,282,l),
(536,602,l),
(536,223,l),
(471,191,l),
(471,140,l),
(721,140,l),
(721,191,l),
(656,222,l),
(656,758,l),
(721,789,l),
(721,840,l),
(471,840,l)
);
}
);
width = 756;
}
);
note = afii10074;
unicode = 1080;
},
{
glyphname = afii10075;
lastChange = "2024-07-02 17:45:55 +0000";
layers = (
{
layerId = m01;
shapes = (
{
closed = 1;
nodes = (
(721,840,l),
(471,840,l),
(471,789,l),
(536,757,l),
(536,697,l),
(220,377,l),
(220,758,l),
(285,789,l),
(285,840,l),
(35,840,l),
(35,789,l),
(100,757,l),
(100,223,l),
(35,191,l),
(35,140,l),
(285,140,l),
(285,191,l),
(220,222,l),
(220,282,l),
(536,602,l),
(536,223,l),
(471,191,l),
(471,140,l),
(721,140,l),
(721,191,l),
(656,222,l),
(656,758,l),
(721,789,l)
);
},
{
closed = 1;
nodes = (
(582,962,qs),
(600,991,o),
(600,1028,qs),
(600,1032,ls),
(599,1066,o),
(585,1083,qs),
(572,1098,o),
(541,1103,qs),
(534,1104,o),
(528,1104,qs),
(501,1104,o),
(485,1087,qs),
(473,1074,o),
(473,1056,qs),
(473,1047,o),
(476,1036,qs),
(481,1021,o),
(490,1010,q),
(490,1008,ls),
(490,992,o),
(477,976,qs),
(450,942,o),
(378,942,qs),
(305,942,o),
(278,976,qs),
(266,992,o),
(266,1008,qs),
(266,1010,l),
(275,1021,o),
(280,1036,qs),
(283,1046,o),
(283,1055,qs),
(283,1074,o),
(271,1087,qs),
(255,1104,o),
(228,1104,qs),
(222,1104,o),
(215,1103,qs),
(184,1098,o),
(172,1083,qs),
(157,1066,o),
(156,1032,qs),
(156,1025,ls),
(156,990,o),
(174,962,qs),
(215,895,o),
(378,895,qs),
(540,895,o)
);
}
);
width = 756;
}
);
note = afii10075;
unicode = 1081;
},
{
glyphname = afii10076;
lastChange = "2024-07-02 17:45:55 +0000";
layers = (
{
layerId = m01;
shapes = (
{
closed = 1;
nodes = (
(651,214,o),
(643,214,qs),
(635,214,o),
(626,217,qs),
(590,230,o),
(569,298,qs),
(536,400,o),
(531,426,q),
(451,498,o),
(404,511,q),
(403,513,l),
(558,752,l),
(649,789,l),
(649,840,l),
(409,840,l),
(409,789,l),
(473,757,l),
(335,520,l),
(225,520,l),
(225,758,l),
(285,789,l),
(285,840,l),
(35,840,l),
(35,789,l),
(105,757,l),
(105,223,l),
(35,191,l),
(35,140,l),
(285,140,l),
(285,191,l),
(225,222,l),
(225,454,l),
(351,454,ls),
(395,454,o),
(433,397,q),
(441,326,o),
(457,269,qs),
(479,194,o),
(493,171,qs),
(519,128,o),
(566,128,qs),
(630,128,o),
(680,152,q),
(658,217,l)
);
}
);
width = 695;
}
);
note = afii10076;
unicode = 1082;
},
{
glyphname = afii10077;
lastChange = "2024-07-02 17:45:55 +0000";
layers = (
{
layerId = m01;
shapes = (
{
closed = 1;
nodes = (
(715,840,l),
(130,840,l),
(130,789,l),
(222,752,l),
(217,440,o),
(171,298,qs),
(150,230,o),
(94,217,qs),
(80,214,o),
(65,214,qs),
(49,214,o),
(32,217,q),
(10,152,l),
(46,128,o),
(110,128,qs),
(229,128,o),
(260,246,qs),
(296,384,o),
(299,768,q),
(525,768,l),
(525,223,l),
(457,191,l),
(457,140,l),
(715,140,l),
(715,191,l),
(640,223,l),
(640,757,l),
(715,789,l)
);
}
);
width = 750;
}
);
note = afii10077;
unicode = 1083;
},
{
glyphname = afii10078;
lastChange = "2024-07-02 17:45:55 +0000";
layers = (
{
layerId = m01;
shapes = (
{
closed = 1;
nodes = (
(472,302,l),
(305,840,l),
(98,840,l),
(98,789,l),
(163,757,l),
(102,228,l),
(15,191,l),
(15,140,l),
(252,140,l),
(252,191,l),
(175,224,l),
(226,676,l),
(238,676,l),
(418,140,l),
(496,140,l),
(680,676,l),
(688,676,l),
(745,224,l),
(670,191,l),
(670,140,l),
(935,140,l),
(935,191,l),
(860,225,l),
(794,757,l),
(856,789,l),
(856,840,l),
(662,840,l)
);
}
);
width = 950;
}
);
note = afii10078;
unicode = 1084;
},
{
glyphname = afii10079;
lastChange = "2024-07-02 17:45:55 +0000";
layers = (
{
layerId = m01;
shapes = (
{
closed = 1;
nodes = (
(490,789,l),
(555,757,l),
(555,521,l),
(225,521,l),
(225,758,l),
(290,789,l),
(290,840,l),
(40,840,l),
(40,789,l),
(105,757,l),
(105,223,l),
(40,191,l),
(40,140,l),
(290,140,l),
(290,191,l),
(225,222,l),
(225,461,l),
(555,461,l),
(555,223,l),
(490,191,l),
(490,140,l),
(740,140,l),
(740,191,l),
(675,222,l),
(675,758,l),
(740,789,l),
(740,840,l),
(490,840,l)
);
}
);
width = 780;
}
);
note = afii10079;
unicode = 1085;
},
{
glyphname = afii10080;
lastChange = "2024-07-02 17:45:55 +0000";
layers = (
{
layerId = m01;
shapes = (
{
closed = 1;
nodes = (
(389,200,o),
(381,200,qs),
(301,200,o),
(237,272,qs),
(166,351,o),
(155,471,qs),
(153,489,o),
(153,507,qs),
(153,605,o),
(201,681,qs),
(257,771,o),
(347,779,qs),
(355,780,o),
(363,780,qs),
(443,780,o),
(507,708,qs),
(578,629,o),
(589,509,qs),
(591,491,o),
(591,473,qs),
(591,375,o),
(543,299,qs),
(487,209,o),
(397,201,qs)
);
},
{
closed = 1;
nodes = (
(124,736,qs),
(20,622,o),
(20,470,qs),
(20,322,o),
(124,224,qs),
(225,128,o),
(372,128,qs),
(516,128,o),
(620,243,qs),
(724,357,o),
(724,509,qs),
(724,657,o),
(620,756,qs),
(519,852,o),
(372,852,qs),
(229,852,o)
);
}
);
width = 744;
}
);
note = afii10080;
unicode = 1086;
},
{
glyphname = afii10081;
lastChange = "2024-07-02 17:45:55 +0000";
layers = (
{
layerId = m01;
shapes = (
{
closed = 1;
nodes = (
(35,789,l),
(100,757,l),
(100,223,l),
(35,191,l),
(35,140,l),
(285,140,l),
(285,191,l),
(220,222,l),
(220,768,l),
(536,768,l),
(536,223,l),
(471,191,l),
(471,140,l),
(721,140,l),
(721,191,l),
(656,222,l),
(656,758,l),
(721,789,l),
(721,840,l),
(35,840,l)
);
}
);
width = 756;
}
);
note = afii10081;
unicode = 1087;
},
{
glyphname = afii10082;
lastChange = "2024-07-02 17:45:55 +0000";
layers = (
{
layerId = m01;
shapes = (
{
closed = 1;
nodes = (
(453,200,o),
(444,200,qs),
(364,200,o),
(303,260,qs),
(231,330,o),
(221,447,qs),
(221,453,o),
(220,483,q),
(224,590,o),
(278,682,q),
(335,767,o),
(414,777,qs),
(422,778,o),
(431,778,qs),
(509,778,o),
(571,708,qs),
(639,629,o),
(650,509,qs),
(652,490,o),
(652,472,qs),
(652,375,o),
(607,299,qs),
(552,209,o),
(463,201,qs)
);
},
{
closed = 1;
nodes = (
(220,689,q),
(210,842,l),
(35,833,l),
(35,781,l),
(100,750,l),
(100,-127,l),
(35,-159,l),
(35,-210,l),
(285,-210,l),
(285,-159,l),
(220,-128,l),
(220,208,l),
(315,128,o),
(438,128,qs),
(585,128,o),
(684,241,qs),
(785,356,o),
(785,531,qs),
(785,672,o),
(690,764,qs),
(600,852,o),
(474,852,qs),
(294,852,o)
);
}
);
width = 805;
}
);
note = afii10082;
unicode = 1088;
},
{
glyphname = afii10083;
lastChange = "2024-07-02 17:45:55 +0000";
layers = (
{
layerId = m01;
shapes = (
{
closed = 1;
nodes = (
(377,201,ls),
(293,201,o),
(225,273,qs),
(149,353,o),
(145,471,qs),
(145,490,ls),
(145,616,o),
(195,693,qs),
(247,773,o),
(339,784,qs),
(352,786,o),
(365,786,qs),
(411,786,o),
(446,762,qs),
(486,735,o),
(498,686,qs),
(500,679,o),
(500,665,qs),
(500,646,o),
(496,612,q),
(570,612,l),
(589,737,l),
(570,782,o),
(517,814,qs),
(453,852,o),
(365,852,qs),
(221,852,o),
(117,739,qs),
(15,627,o),
(15,475,qs),
(15,322,o),
(107,226,qs),
(201,128,o),
(356,128,qs),
(507,128,o),
(592,265,q),
(550,288,l),
(506,245,o),
(480,228,qs),
(441,204,o),
(390,201,qs)
);
}
);
width = 607;
}
);
note = afii10083;
unicode = 1089;
},
{
glyphname = afii10084;
lastChange = "2024-07-02 17:45:55 +0000";
layers = (
{
layerId = m01;
shapes = (
{
closed = 1;
nodes = (
(15,612,l),
(86,612,l),
(147,768,l),
(285,768,l),
(285,223,l),
(220,191,l),
(220,140,l),
(470,140,l),
(470,191,l),
(405,222,l),
(405,768,l),
(543,768,l),
(604,612,l),
(675,612,l),
(650,840,l),
(40,840,l)
);
}
);
width = 690;
}
);
note = afii10084;
unicode = 1090;
},
{
glyphname = afii10085;
lastChange = "2024-07-02 17:45:55 +0000";
layers = (
{
layerId = m01;
shapes = (
{
closed = 1;
nodes = (
(483,789,l),
(562,758,l),
(397,241,l),
(397,346,o),
(225,758,q),
(305,789,l),
(305,840,l),
(15,840,l),
(15,789,l),
(100,757,l),
(349,140,l),
(305,1,o),
(233,-95,qs),
(202,-135,o),
(161,-140,qs),
(157,-141,o),
(152,-141,qs),
(139,-141,o),
(122,-132,q),
(90,-198,l),
(135,-232,o),
(199,-232,qs),
(285,-232,o),
(363,-81,qs),
(388,-30,o),
(440,129,qs),
(645,756,l),
(731,789,l),
(731,840,l),
(483,840,l)
);
}
);
width = 746;
}
);
note = afii10085;
unicode = 1091;
},
{
glyphname = afii10086;
lastChange = "2024-07-02 17:45:55 +0000";
layers = (
{
layerId = m01;
shapes = (
{
closed = 1;
nodes = (
(888,191,ls),
(798,191,o),
(737,262,qs),
(676,339,o),
(668,471,q),
(668,545,l),
(677,644,o),
(720,706,qs),
(767,772,o),
(840,779,qs),
(848,780,o),
(856,780,qs),
(934,780,o),
(990,708,qs),
(1051,631,o),
(1062,509,qs),
(1064,485,o),
(1064,463,qs),
(1064,360,o),
(1026,289,qs),
(978,199,o),
(890,191,qs)
);
},
{
closed = 1;
nodes = (
(382,200,o),
(374,200,qs),
(296,200,o),
(240,272,qs),
(179,349,o),
(168,471,qs),
(166,495,o),
(166,517,qs),
(166,620,o),
(204,691,qs),
(252,781,o),
(340,789,qs),
(348,790,o),
(356,790,qs),
(434,790,o),
(490,718,q),
(551,631,o),
(562,499,qs),
(563,488,o),
(563,477,qs),
(563,446,ls),
(559,350,o),
(515,281,qs),
(468,208,o),
(390,201,qs)
);
},
{
closed = 1;
nodes = (
(750,852,o),
(675,736,qs),
(673,732,o),
(671,722,qs),
(669,708,o),
(668,707,q),
(668,1190,l),
(667,1190,l),
(498,1170,l),
(498,1119,l),
(563,1087,l),
(563,707,l),
(560,723,ls),
(557,739,o),
(557,740,q),
(482,852,o),
(365,852,qs),
(222,852,o),
(128,744,qs),
(35,638,o),
(35,485,qs),
(35,333,o),
(128,231,qs),
(222,128,o),
(365,128,qs),
(488,128,o),
(558,235,q),
(560,248,ls),
(563,260,o),
(563,261,qs),
(563,-127,l),
(498,-159,l),
(498,-210,l),
(733,-210,l),
(733,-159,l),
(668,-128,l),
(668,261,ls),
(668,260,o),
(671,245,qs),
(673,230,l),
(741,128,o),
(865,128,qs),
(1008,128,o),
(1102,236,qs),
(1195,342,o),
(1195,495,qs),
(1195,647,o),
(1102,748,qs),
(1009,852,o),
(865,852,qs)
);
}
);
width = 1230;
}
);
note = afii10086;
unicode = 1092;
},
{
glyphname = afii10087;
lastChange = "2024-07-02 17:45:55 +0000";
layers = (
{
layerId = m01;
shapes = (
{
closed = 1;
nodes = (
(484,789,l),
(559,758,l),
(394,555,l),
(245,758,l),
(320,789,l),
(320,840,l),
(30,840,l),
(30,789,l),
(105,757,l),
(320,492,l),
(108,223,l),
(25,191,l),
(25,140,l),
(280,140,l),
(280,191,l),
(205,222,l),
(370,432,l),
(526,222,l),
(451,191,l),
(451,140,l),
(746,140,l),
(746,191,l),
(671,223,l),
(445,499,l),
(659,757,l),
(739,789,l),
(739,840,l),
(484,840,l)
);
}
);
width = 771;
}
);
note = afii10087;
unicode = 1093;
},
{
glyphname = afii10088;
lastChange = "2024-07-02 17:45:55 +0000";
layers = (
{
layerId = m01;
shapes = (
{
closed = 1;
nodes = (
(464,789,l),
(529,758,l),
(529,212,l),
(220,212,l),
(220,757,l),
(285,789,l),
(285,840,l),
(35,840,l),
(35,789,l),
(100,758,l),
(100,222,l),
(35,191,l),
(35,140,l),
(629,140,l),
(681,-45,l),
(762,-45,l),
(737,211,l),
(649,211,l),
(649,757,l),
(714,789,l),
(714,840,l),
(464,840,l)
);
}
);
width = 787;
}
);
note = afii10088;
unicode = 1094;
},
{
glyphname = afii10089;
lastChange = "2024-07-02 17:45:55 +0000";
layers = (
{
layerId = m01;
shapes = (
{
closed = 1;
nodes = (
(730,840,l),
(480,840,l),
(480,789,l),
(545,757,l),
(545,570,ls),
(545,538,o),
(494,505,q),
(440,479,o),
(373,479,qs),
(324,479,o),
(286,496,qs),
(246,515,o),
(231,549,qs),
(220,576,o),
(220,609,qs),
(220,758,l),
(285,789,l),
(285,840,l),
(35,840,l),
(35,789,l),
(100,757,l),
(100,583,ls),
(102,529,o),
(131,489,qs),
(165,442,o),
(233,421,qs),
(280,407,o),
(334,407,qs),
(356,407,o),
(379,409,qs),
(445,416,o),
(477,431,qs),
(539,460,o),
(545,488,q),
(545,223,l),
(480,191,l),
(480,140,l),
(730,140,l),
(730,191,l),
(665,222,l),
(665,758,l),
(730,789,l)
);
}
);
width = 765;
}
);
note = afii10089;
unicode = 1095;
},
{
glyphname = afii10090;
lastChange = "2024-07-02 17:45:55 +0000";
layers = (
{
layerId = m01;
shapes = (
{
closed = 1;
nodes = (
(415,789,l),
(480,758,l),
(480,212,l),
(220,212,l),
(220,757,l),
(285,789,l),
(285,840,l),
(35,840,l),
(35,789,l),
(100,758,l),
(100,222,l),
(35,191,l),
(35,140,l),
(1045,140,l),
(1045,191,l),
(980,223,l),
(980,757,l),
(1045,789,l),
(1045,840,l),
(795,840,l),
(795,789,l),
(860,758,l),
(860,212,l),
(600,212,l),
(600,757,l),
(665,789,l),
(665,840,l),
(415,840,l)
);
}
);
width = 1080;
}
);
note = afii10090;
unicode = 1096;
},
{
glyphname = afii10091;
lastChange = "2024-07-02 17:45:55 +0000";
layers = (
{
layerId = m01;
shapes = (
{
closed = 1;
nodes = (
(415,789,l),
(480,758,l),
(480,212,l),
(220,212,l),
(220,757,l),
(285,789,l),
(285,840,l),
(35,840,l),
(35,789,l),
(100,758,l),
(100,222,l),
(35,191,l),
(35,140,l),
(960,140,l),
(1012,-45,l),
(1093,-45,l),
(1068,211,l),
(980,211,l),
(980,757,l),
(1045,789,l),
(1045,840,l),
(795,840,l),
(795,789,l),
(860,758,l),
(860,212,l),
(600,212,l),
(600,757,l),
(665,789,l),
(665,840,l),
(415,840,l)
);
}
);
width = 1118;
}
);
note = afii10091;
unicode = 1097;
},
{
glyphname = afii10092;
lastChange = "2024-07-02 17:45:55 +0000";
layers = (
{
layerId = m01;
shapes = (
{
closed = 1;
nodes = (
(540,216,qs),
(521,214,o),
(499,214,qs),
(458,214,o),
(409,222,q),
(409,476,l),
(426,477,o),
(442,477,qs),
(543,477,o),
(592,454,qs),
(657,424,o),
(657,341,qs),
(657,331,o),
(656,320,qs),
(649,228,o)
);
},
{
closed = 1;
nodes = (
(673,523,qs),
(608,548,o),
(484,548,qs),
(449,548,o),
(409,546,q),
(409,840,l),
(35,840,l),
(10,612,l),
(81,612,l),
(143,769,l),
(289,769,l),
(289,223,l),
(224,191,l),
(224,140,l),
(419,140,ls),
(610,140,o),
(661,156,qs),
(720,175,o),
(754,225,qs),
(786,273,o),
(786,338,qs),
(786,349,ls),
(780,481,o)
);
}
);
width = 809;
}
);
note = afii10092;
unicode = 1098;
},
{
glyphname = afii10093;
lastChange = "2024-07-02 17:45:55 +0000";
layers = (
{
layerId = m01;
shapes = (
{
closed = 1;
nodes = (
(878,840,l),
(628,840,l),
(628,789,l),
(693,757,l),
(693,223,l),
(628,191,l),
(628,140,l),
(878,140,l),
(878,191,l),
(813,222,l),
(813,758,l),
(878,789,l)
);
},
{
closed = 1;
nodes = (
(341,216,qs),
(322,214,o),
(302,214,qs),
(264,214,o),
(220,222,q),
(220,476,l),
(236,477,o),
(250,477,qs),
(345,477,o),
(394,454,qs),
(459,425,o),
(459,341,qs),
(459,331,o),
(458,320,qs),
(450,228,o)
);
},
{
closed = 1;
nodes = (
(285,789,l),
(285,840,l),
(35,840,l),
(35,789,l),
(100,757,l),
(100,223,l),
(35,191,l),
(35,140,l),
(230,140,ls),
(412,140,o),
(463,156,qs),
(522,175,o),
(556,225,qs),
(588,273,o),
(588,338,qs),
(588,349,ls),
(582,481,o),
(475,523,qs),
(410,548,o),
(291,548,qs),
(258,548,o),
(220,546,q),
(220,758,l)
);
}
);
width = 913;
}
);
note = afii10093;
unicode = 1099;
},
{
glyphname = afii10094;
lastChange = "2024-07-02 17:45:55 +0000";
layers = (
{
layerId = m01;
shapes = (
{
closed = 1;
nodes = (
(351,216,qs),
(332,214,o),
(310,214,qs),
(270,214,o),
(220,222,q),
(220,476,l),
(237,477,o),
(253,477,qs),
(354,477,o),
(403,454,qs),
(469,424,o),
(469,339,qs),
(469,330,o),
(468,320,qs),
(460,228,o)
);
},
{
closed = 1;
nodes = (
(484,523,qs),
(419,548,o),
(295,548,qs),
(260,548,o),
(220,546,q),
(220,758,l),
(285,789,l),
(285,840,l),
(35,840,l),
(35,789,l),
(100,757,l),
(100,223,l),
(35,191,l),
(35,140,l),
(230,140,ls),
(421,140,o),
(473,156,qs),
(531,175,o),
(565,225,qs),
(597,273,o),
(597,338,qs),
(597,349,ls),
(591,481,o)
);
}
);
width = 625;
}
);
note = afii10094;
unicode = 1100;
},
{
glyphname = afii10095;
lastChange = "2024-07-02 17:45:55 +0000";
layers = (
{
layerId = m01;
shapes = (
{
closed = 1;
nodes = (
(96,814,qs),
(34,781,o),
(15,737,q),
(34,612,l),
(108,612,l),
(105,647,o),
(105,667,qs),
(105,679,o),
(106,686,qs),
(115,736,o),
(142,757,qs),
(173,782,o),
(239,782,qs),
(331,782,o),
(397,705,qs),
(465,627,o),
(469,509,qs),
(469,506,l),
(468,506,ls),
(447,506,o),
(308,533,qs),
(281,538,o),
(257,538,qs),
(196,538,o),
(153,503,qs),
(123,478,o),
(113,449,q),
(148,436,l),
(153,445,o),
(169,452,qs),
(187,461,o),
(214,461,qs),
(233,461,o),
(256,456,qs),
(358,437,o),
(379,435,qs),
(392,434,o),
(403,434,qs),
(439,434,o),
(467,445,q),
(456,332,o),
(396,264,qs),
(338,197,o),
(257,197,qs),
(152,197,o),
(61,288,q),
(18,265,l),
(55,206,o),
(110,171,qs),
(177,128,o),
(261,128,qs),
(404,128,o),
(503,241,qs),
(599,352,o),
(599,505,qs),
(599,658,o),
(507,754,qs),
(412,852,o),
(256,852,qs),
(166,852,o)
);
}
);
width = 614;
}
);
note = afii10095;
unicode = 1101;
},
{
glyphname = afii10096;
lastChange = "2024-07-02 17:45:55 +0000";
layers = (
{
layerId = m01;
shapes = (
{
closed = 1;
nodes = (
(709,197,o),
(702,197,qs),
(632,197,o),
(571,271,qs),
(505,350,o),
(494,471,qs),
(492,491,o),
(492,510,qs),
(492,607,o),
(535,682,qs),
(587,774,o),
(666,782,qs),
(673,783,o),
(680,783,qs),
(750,783,o),
(811,709,qs),
(877,630,o),
(888,509,qs),
(890,489,o),
(890,470,qs),
(890,373,o),
(847,298,qs),
(795,206,o),
(716,198,qs)
);
},
{
closed = 1;
nodes = (
(467,751,qs),
(371,653,o),
(360,511,q),
(220,511,l),
(220,757,l),
(285,789,l),
(285,840,l),
(35,840,l),
(35,789,l),
(100,757,l),
(100,223,l),
(35,191,l),
(35,140,l),
(285,140,l),
(285,191,l),
(220,222,l),
(220,451,l),
(360,451,l),
(370,311,o),
(467,220,qs),
(563,128,o),
(691,128,qs),
(824,128,o),
(924,238,qs),
(1023,347,o),
(1023,499,qs),
(1023,649,o),
(924,751,qs),
(826,852,o),
(691,852,qs),
(565,852,o)
);
}
);
width = 1038;
}
);
note = afii10096;
unicode = 1102;
},
{
glyphname = afii10097;
lastChange = "2024-07-02 17:45:55 +0000";
layers = (
{
layerId = m01;
shapes = (
{
closed = 1;
nodes = (
(271,756,qs),
(309,771,o),
(393,771,qs),
(418,771,o),
(448,770,q),
(448,520,l),
(395,520,ls),
(203,523,o),
(203,643,qs),
(203,729,o)
);
},
{
closed = 1;
nodes = (
(633,840,l),
(448,840,ls),
(254,840,o),
(184,812,qs),
(77,770,o),
(77,641,qs),
(77,559,o),
(133,515,qs),
(182,476,o),
(255,476,q),
(204,450,o),
(164,413,q),
(159,400,o),
(126,298,qs),
(105,230,o),
(69,217,qs),
(60,214,o),
(52,214,qs),
(44,214,o),
(37,217,q),
(15,152,l),
(65,128,o),
(129,128,qs),
(176,128,o),
(202,171,qs),
(215,194,o),
(237,269,qs),
(254,326,o),
(262,384,q),
(271,403,o),
(294,422,qs),
(342,460,o),
(448,460,q),
(448,222,l),
(383,191,l),
(383,140,l),
(633,140,l),
(633,191,l),
(568,223,l),
(568,757,l),
(633,789,l)
);
}
);
width = 668;
}
);
note = afii10097;
unicode = 1103;
},
{
glyphname = afii10071;
lastChange = "2024-07-02 17:45:55 +0000";
layers = (
{
layerId = m01;
shapes = (
{
closed = 1;
nodes = (
(514,895,o),
(530,912,qs),
(547,928,o),
(547,951,qs),
(547,974,ls),
(547,997,o),
(530,1013,qs),
(514,1030,o),
(490,1030,qs),
(473,1030,ls),
(450,1030,o),
(433,1013,qs),
(417,997,o),
(417,974,qs),
(417,951,ls),
(417,928,o),
(433,912,qs),
(450,895,o),
(473,895,qs),
(490,895,ls)
);
},
{
closed = 1;
nodes = (
(247,895,o),
(263,912,qs),
(280,928,o),
(280,951,qs),
(280,974,ls),
(280,997,o),
(263,1013,qs),
(247,1030,o),
(224,1030,qs),
(206,1030,ls),
(183,1030,o),
(167,1013,qs),
(150,997,o),
(150,974,qs),
(150,951,ls),
(150,928,o),
(167,912,qs),
(183,895,o),
(206,895,qs),
(224,895,ls)
);
},
{
closed = 1;
nodes = (
(345,791,o),
(358,791,qs),
(458,791,o),
(475,686,qs),
(480,652,o),
(480,620,qs),
(480,602,l),
(160,602,l),
(177,681,o),
(222,730,qs),
(268,781,o),
(331,789,qs)
);
},
{
closed = 1;
nodes = (
(595,565,o),
(595,588,qs),
(595,675,o),
(570,737,qs),
(525,852,o),
(361,852,qs),
(218,852,o),
(116,739,qs),
(15,627,o),
(15,475,qs),
(15,322,o),
(106,226,qs),
(200,128,o),
(356,128,qs),
(507,128,o),
(592,265,q),
(549,288,l),
(506,245,o),
(479,228,qs),
(440,204,o),
(390,201,qs),
(377,201,ls),
(293,201,o),
(225,273,qs),
(149,353,o),
(145,471,qs),
(144,488,o),
(144,501,qs),
(144,528,o),
(147,541,q),
(593,541,l)
);
}
);
width = 616;
}
);
note = afii10071;
unicode = 1105;
},
{
glyphname = afii10101;
lastChange = "2024-07-02 17:45:55 +0000";
layers = (
{
layerId = m01;
shapes = (
{
closed = 1;
nodes = (
(501,245,o),
(475,228,qs),
(436,204,o),
(385,201,qs),
(373,201,ls),
(294,201,o),
(230,265,qs),
(160,335,o),
(147,443,q),
(176,432,o),
(211,432,qs),
(223,432,o),
(235,433,qs),
(256,435,o),
(358,454,qs),
(381,459,o),
(400,459,qs),
(427,459,o),
(445,450,qs),
(461,443,o),
(466,434,q),
(501,448,l),
(490,476,o),
(461,501,qs),
(418,536,o),
(357,536,qs),
(333,536,o),
(306,531,qs),
(167,504,o),
(146,504,qs),
(145,504,l),
(147,629,o),
(199,703,qs),
(249,773,o),
(334,784,qs),
(347,786,o),
(360,786,qs),
(406,786,o),
(441,762,qs),
(481,735,o),
(493,686,qs),
(495,679,o),
(495,665,qs),
(495,646,o),
(491,612,q),
(565,612,l),
(584,737,l),
(565,782,o),
(512,814,qs),
(448,852,o),
(360,852,qs),
(217,852,o),
(115,739,qs),
(15,627,o),
(15,475,qs),
(15,322,o),
(104,226,qs),
(196,128,o),
(351,128,qs),
(502,128,o),
(587,265,q),
(545,288,l)
);
}
);
width = 602;
}
);
note = afii10101;
unicode = 1108;
},
{
glyphname = afii10103;
lastChange = "2024-07-02 17:45:55 +0000";
layers = (
{
layerId = m01;
shapes = (
{
closed = 1;
nodes = (
(197,925,o),
(214,942,qs),
(230,958,o),
(230,981,qs),
(230,1004,ls),
(230,1027,o),
(214,1043,qs),
(197,1060,o),
(174,1060,qs),
(157,1060,ls),
(133,1060,o),
(117,1043,qs),
(100,1027,o),
(100,1004,qs),
(100,981,ls),
(100,958,o),
(117,942,qs),
(133,925,o),
(157,925,qs),
(174,925,ls)
);
},
{
closed = 1;
nodes = (
(230,840,l),
(35,840,l),
(35,789,l),
(110,758,l),
(110,223,l),
(35,191,l),
(35,140,l),
(305,140,l),
(305,191,l),
(230,222,l)
);
}
);
width = 340;
}
);
note = afii10103;
unicode = 1110;
},
{
glyphname = afii10104;
lastChange = "2024-07-02 17:45:55 +0000";
layers = (
{
layerId = m01;
shapes = (
{
closed = 1;
nodes = (
(331,925,o),
(347,942,qs),
(364,958,o),
(364,981,qs),
(364,1004,ls),
(364,1027,o),
(347,1043,qs),
(331,1060,o),
(308,1060,qs),
(305,1060,ls),
(282,1060,o),
(266,1043,qs),
(249,1027,o),
(249,1004,qs),
(249,981,ls),
(249,958,o),
(266,942,qs),
(282,925,o),
(305,925,qs),
(308,925,ls)
);
},
{
closed = 1;
nodes = (
(122,925,o),
(138,942,qs),
(155,958,o),
(155,981,qs),
(155,1004,ls),
(155,1027,o),
(138,1043,qs),
(122,1060,o),
(99,1060,qs),
(96,1060,ls),
(73,1060,o),
(57,1043,qs),
(40,1027,o),
(40,1004,qs),
(40,981,ls),
(40,958,o),
(57,942,qs),
(73,925,o),
(96,925,qs),
(99,925,ls)
);
},
{
closed = 1;
nodes = (
(280,840,l),
(85,840,l),
(85,789,l),
(160,758,l),
(160,223,l),
(85,191,l),
(85,140,l),
(355,140,l),
(355,191,l),
(280,222,l)
);
}
);
width = 404;
}
);
note = afii10104;
unicode = 1111;
},
{
glyphname = afii10098;
lastChange = "2024-07-02 17:45:55 +0000";
layers = (
{
layerId = m01;
shapes = (
{
closed = 1;
nodes = (
(438,840,l),
(35,840,l),
(35,789,l),
(100,758,l),
(100,223,l),
(35,191,l),
(35,140,l),
(285,140,l),
(285,191,l),
(220,222,l),
(220,768,l),
(546,768,l),
(571,983,l),
(500,983,l)
);
}
);
width = 596;
}
);
note = afii10098;
unicode = 1169;
},
{
glyphname = afii10050;
lastChange = "2024-07-02 17:45:55 +0000";
layers = (
{
layerId = m01;
shapes = (
{
closed = 1;
nodes = (
(776,1386,l),
(685,1386,l),
(614,1190,l),
(50,1190,l),
(50,1139,l),
(130,1108,l),
(130,222,l),
(50,191,l),
(50,140,l),
(340,140,l),
(340,191,l),
(260,222,l),
(260,1113,l),
(741,1113,l)
);
}
);
width = 811;
}
);
note = afii10050;
unicode = 1168;
},
{
glyphname = afii10023;
lastChange = "2024-07-02 17:45:55 +0000";
layers = (
{
layerId = m01;
shapes = (
{
closed = 1;
nodes = (
(601,1245,o),
(618,1263,qs),
(636,1280,o),
(636,1305,qs),
(636,1330,ls),
(636,1355,o),
(618,1372,qs),
(601,1390,o),
(575,1390,qs),
(556,1390,ls),
(532,1390,o),
(513,1372,qs),
(496,1355,o),
(496,1330,qs),
(496,1305,ls),
(496,1280,o),
(513,1263,qs),
(532,1245,o),
(556,1245,qs),
(575,1245,ls)
);
},
{
closed = 1;
nodes = (
(295,1245,o),
(312,1263,qs),
(331,1280,o),
(331,1305,qs),
(331,1330,ls),
(331,1355,o),
(312,1372,qs),
(295,1390,o),
(271,1390,qs),
(251,1390,ls),
(226,1390,o),
(209,1372,qs),
(191,1355,o),
(191,1330,qs),
(191,1305,ls),
(191,1280,o),
(209,1263,qs),
(226,1245,o),
(251,1245,qs),
(271,1245,ls)
);
},
{
closed = 1;
nodes = (
(50,1139,l),
(130,1108,l),
(130,222,l),
(50,191,l),
(50,140,l),
(761,140,l),
(796,463,l),
(705,463,l),
(634,217,l),
(260,217,l),
(260,623,l),
(452,623,l),
(513,497,l),
(554,497,l),
(544,662,l),
(554,826,l),
(513,826,l),
(452,700,l),
(260,700,l),
(260,1113,l),
(634,1113,l),
(705,867,l),
(796,867,l),
(761,1190,l),
(50,1190,l)
);
}
);
width = 831;
}
);
note = afii10023;
unicode = 1025;
},
{
glyphname = afii10053;
lastChange = "2024-07-02 17:45:55 +0000";
layers = (
{
layerId = m01;
shapes = (
{
closed = 1;
nodes = (
(260,607,qs),
(275,605,o),
(292,605,qs),
(323,605,o),
(363,611,qs),
(379,614,o),
(493,637,q),
(516,639,o),
(537,639,qs),
(580,639,o),
(617,632,q),
(640,621,o),
(647,608,q),
(698,618,l),
(694,628,o),
(685,643,qs),
(667,672,o),
(641,694,qs),
(604,725,o),
(555,737,qs),
(524,745,o),
(488,745,qs),
(455,745,o),
(418,738,qs),
(392,732,o),
(330,718,qs),
(280,706,o),
(254,702,qs),
(227,698,o),
(205,698,qs),
(196,698,l),
(201,857,o),
(262,970,q),
(343,1093,o),
(487,1119,q),
(507,1121,o),
(525,1121,qs),
(603,1121,o),
(657,1083,qs),
(719,1039,o),
(737,976,q),
(739,965,o),
(739,946,qs),
(739,916,o),
(734,867,q),
(829,867,l),
(857,1031,l),
(828,1098,o),
(750,1145,qs),
(655,1202,o),
(524,1202,qs),
(323,1202,o),
(177,1034,qs),
(35,871,o),
(35,643,qs),
(35,422,o),
(169,274,q),
(311,128,o),
(511,128,qs),
(735,128,o),
(861,331,q),
(803,361,l),
(735,292,o),
(696,267,qs),
(634,226,o),
(560,221,qs),
(551,220,o),
(542,220,qs),
(419,220,o),
(304,335,q),
(205,454,o),
(197,624,q),
(228,610,o)
);
}
);
width = 896;
}
);
note = afii10053;
unicode = 1028;
},
{
glyphname = afii10055;
lastChange = "2024-07-02 17:45:55 +0000";
layers = (
{
layerId = m01;
shapes = (
{
closed = 1;
nodes = (
(50,1139,l),
(160,1107,l),
(160,223,l),
(60,191,l),
(60,140,l),
(390,140,l),
(390,191,l),
(290,223,l),
(290,1107,l),
(390,1139,l),
(390,1190,l),
(50,1190,l)
);
},
{
closed = 1;
nodes = (
(260,1273,o),
(279,1292,qs),
(300,1311,o),
(300,1339,qs),
(300,1366,ls),
(300,1394,o),
(279,1413,qs),
(260,1433,o),
(230,1433,qs),
(209,1433,ls),
(181,1433,o),
(159,1413,qs),
(140,1394,o),
(140,1366,qs),
(140,1339,ls),
(140,1311,o),
(159,1292,qs),
(181,1273,o),
(209,1273,qs),
(230,1273,ls)
);
}
);
width = 440;
}
);
note = afii10055;
unicode = 1030;
},
{
glyphname = afii10056;
lastChange = "2024-07-02 17:45:55 +0000";
layers = (
{
layerId = m01;
shapes = (
{
closed = 1;
nodes = (
(57,1139,l),
(167,1107,l),
(167,223,l),
(66,191,l),
(66,140,l),
(397,140,l),
(397,191,l),
(297,223,l),
(297,1107,l),
(397,1139,l),
(397,1190,l),
(57,1190,l)
);
},
{
closed = 1;
nodes = (
(158,1273,o),
(174,1293,qs),
(191,1312,o),
(191,1339,qs),
(191,1366,ls),
(191,1393,o),
(174,1412,qs),
(158,1433,o),
(132,1433,qs),
(113,1433,ls),
(90,1433,o),
(71,1412,qs),
(55,1393,o),
(55,1366,qs),
(55,1339,ls),
(55,1312,o),
(71,1293,qs),
(90,1273,o),
(113,1273,qs),
(132,1273,ls)
);
},
{
closed = 1;
nodes = (
(357,1273,o),
(374,1293,qs),
(391,1312,o),
(391,1339,qs),
(391,1366,ls),
(391,1393,o),
(374,1412,qs),
(357,1433,o),
(332,1433,qs),
(313,1433,ls),
(290,1433,o),
(271,1412,qs),
(255,1393,o),
(255,1366,qs),
(255,1339,ls),
(255,1312,o),
(271,1293,qs),
(290,1273,o),
(313,1273,qs),
(332,1273,ls)
);
}
);
width = 452;
}
);
note = afii10056;
unicode = 1031;
},
{
glyphname = OE;
lastChange = "2024-07-02 17:45:55 +0000";
layers = (
{
layerId = m01;
shapes = (
{
closed = 1;
nodes = (
(713,227,o),
(574,219,qs),
(561,218,o),
(547,218,qs),
(423,218,o),
(322,329,qs),
(211,451,o),
(195,636,qs),
(192,666,o),
(192,695,qs),
(192,844,o),
(266,960,qs),
(354,1099,o),
(496,1111,qs),
(509,1112,o),
(523,1112,qs),
(693,1112,o),
(772,1007,q),
(772,292,l)
);
},
{
closed = 1;
nodes = (
(560,1203,qs),
(548,1203,o),
(535,1202,q),
(331,1202,o),
(182,1030,qs),
(35,861,o),
(35,635,qs),
(35,416,o),
(182,270,qs),
(326,128,o),
(535,128,qs),
(608,129,o),
(692,140,q),
(1403,140,l),
(1438,463,l),
(1347,463,l),
(1276,217,l),
(902,217,l),
(902,623,l),
(1094,623,l),
(1155,497,l),
(1196,497,l),
(1186,662,l),
(1196,826,l),
(1155,826,l),
(1094,700,l),
(902,700,l),
(902,1113,l),
(1276,1113,l),
(1347,867,l),
(1438,867,l),
(1403,1190,l),
(698,1190,l),
(620,1203,o)
);
}
);
width = 1473;
}
);
note = OE;
unicode = 338;
},
{
glyphname = oe;
lastChange = "2024-07-02 17:45:55 +0000";
layers = (
{
layerId = m01;
shapes = (
{
closed = 1;
nodes = (
(909,789,qs),
(923,791,o),
(936,791,qs),
(1036,791,o),
(1053,686,qs),
(1058,652,o),
(1058,620,qs),
(1058,602,l),
(738,602,l),
(755,681,o),
(800,730,qs),
(846,781,o)
);
},
{
closed = 1;
nodes = (
(412,201,qs),
(404,200,o),
(396,200,qs),
(316,200,o),
(252,272,qs),
(181,351,o),
(170,471,qs),
(168,489,o),
(168,507,qs),
(168,605,o),
(216,681,qs),
(272,771,o),
(362,779,qs),
(370,780,o),
(378,780,qs),
(458,780,o),
(522,708,qs),
(593,629,o),
(604,509,qs),
(606,491,o),
(606,473,qs),
(606,375,o),
(558,299,qs),
(502,209,o)
);
},
{
closed = 1;
nodes = (
(615,756,q),
(525,852,o),
(387,852,qs),
(244,852,o),
(139,736,qs),
(35,622,o),
(35,470,qs),
(35,322,o),
(139,224,qs),
(240,128,o),
(387,128,qs),
(521,129,o),
(615,243,q),
(631,260,o),
(644,278,q),
(661,250,o),
(684,226,qs),
(778,128,o),
(934,128,qs),
(1085,128,o),
(1170,265,q),
(1127,288,l),
(1084,245,o),
(1057,228,qs),
(1018,204,o),
(968,201,qs),
(955,201,ls),
(871,201,o),
(803,273,qs),
(727,353,o),
(723,471,qs),
(722,488,o),
(722,501,qs),
(722,528,o),
(725,541,q),
(1171,541,l),
(1173,565,o),
(1173,588,qs),
(1173,675,o),
(1148,737,qs),
(1103,852,o),
(939,852,qs),
(796,852,o),
(694,739,qs),
(677,720,o),
(663,700,q),
(643,730,o)
);
}
);
width = 1208;
}
);
note = oe;
unicode = 339;
},
{
glyphname = perthousand;
lastChange = "2024-07-02 17:45:55 +0000";
layers = (
{
layerId = m01;
shapes = (
{
closed = 1;
nodes = (
(162,1049,qs),
(198,1087,o),
(250,1087,qs),
(302,1087,o),
(338,1049,qs),
(375,1011,o),
(375,958,qs),
(375,904,o),
(338,866,qs),
(302,828,o),
(250,828,qs),
(198,828,o),
(162,866,qs),
(125,904,o),
(125,958,qs),
(125,1011,o)
);
},
{
closed = 1;
nodes = (
(391,1099,qs),
(333,1158,o),
(250,1158,qs),
(167,1158,o),
(109,1099,qs),
(50,1040,o),
(50,958,qs),
(50,875,o),
(109,816,qs),
(167,758,o),
(250,758,qs),
(333,758,o),
(391,816,qs),
(450,875,o),
(450,958,qs),
(450,1040,o)
);
},
{
closed = 1;
nodes = (
(602,219,qs),
(565,257,o),
(565,311,qs),
(565,364,o),
(602,402,qs),
(639,441,o),
(690,441,qs),
(742,441,o),
(779,402,qs),
(815,364,o),
(815,311,qs),
(815,257,o),
(779,219,qs),
(742,181,o),
(690,181,qs),
(639,181,o)
);
},
{
closed = 1;
nodes = (
(549,452,qs),
(490,393,o),
(490,311,qs),
(490,228,o),
(549,169,qs),
(608,111,o),
(690,111,qs),
(773,111,o),
(832,169,qs),
(890,228,o),
(890,311,qs),
(890,393,o),
(832,452,qs),
(773,511,o),
(690,511,qs),
(608,511,o)
);
},
{
closed = 1;
nodes = (
(148,140,l),
(243,140,l),
(811,1140,l),
(731,1190,l)
);
},
{
closed = 1;
nodes = (
(1086,219,qs),
(1049,257,o),
(1049,311,qs),
(1049,364,o),
(1086,402,qs),
(1123,441,o),
(1174,441,qs),
(1226,441,o),
(1263,402,qs),
(1299,364,o),
(1299,311,qs),
(1299,257,o),
(1263,219,qs),
(1226,181,o),
(1174,181,qs),
(1123,181,o)
);
},
{
closed = 1;
nodes = (
(1033,452,qs),
(974,393,o),
(974,311,qs),
(974,228,o),
(1033,169,qs),
(1092,111,o),
(1174,111,qs),
(1257,111,o),
(1316,169,qs),
(1374,228,o),
(1374,311,qs),
(1374,393,o),
(1316,452,qs),
(1257,511,o),
(1174,511,qs),
(1092,511,o)
);
}
